<?xml  version="1.0" encoding="UTF-8"?>
<!DOCTYPE svg PUBLIC "-//W3C//DTD SVG 1.0//EN" "http://www.w3.org/TR/2001/REC-SVG-20010904/DTD/svg10.dtd" >
<svg xmlns="http://www.w3.org/2000/svg" >
<defs >
<font horiz-adv-x="493" id="swiggity-swooty">
<font-face font-family="" panose-1="2 4 4 2 5 3 5 10 3 4" ascent="914" descent="-273" units-per-em="1000" alphabetic="0">
</font-face>
<missing-glyph horiz-adv-x="250" />

<glyph unicode="&#xA;" />
<glyph unicode="&#xD;" horiz-adv-x="0" />
<glyph unicode=" " horiz-adv-x="250" />
<glyph unicode="!" horiz-adv-x="278" d="M113 175L105 180Q109 204 115 243T127 328T140 426T152 523T162 609T168 673Q178 674 190 677T214 685T236 695T253 704L260 697Q245 641 228 575T195 441T163 308T138 187L113 175ZM56 27Q56 55 72 74T108 94Q127 94 135 83T144 55Q144 27 128 8T92 -12Q73 -12 65 -1T56 27Z"  />
<glyph unicode="&quot;" horiz-adv-x="389" d="M336 481Q335 473 331 465T317 456Q307 456 303 464T298 481L286 627Q283 655 283 669Q283 678 290 691T317 704Q336 704 343 691T351 669Q351 655 348 627L336 481ZM191 481Q190 473 186 465T172 456Q162 456 158 464T153 481L141 627Q138 655 138 669Q138 678 145 691T172 704Q191 704 198 691T206 669Q206 655 203 627L191 481Z"  />
<glyph unicode="#" horiz-adv-x="500" d="M347 411H205L177 256H319L347 411ZM311 211H169L130 -3H82L121 211H10L21 256H129L157 411H45L54 456H165L204 670H252L213 456H355L394 670H442L403 456H514L507 411H395L367 256H479L470 211H359L320 -3H272L311 211Z"  />
<glyph unicode="$" horiz-adv-x="500" d="M231 25Q271 27 302 41T354 76T385 124T396 180Q396 202 391 218T373 247T336 272T275 301L231 25ZM298 649Q266 649 242 639T200 610T173 568T164 517Q164 495 168 478T183 445T212 417T257 391L298 649ZM80 83Q94 66 125 48T199 25L244 314Q172 345 138 384T104 480Q104 519 118 554T159 618T223 665T305 689Q307 703 309 720T313 746L315 749H345L348 746Q346 737 343 721T337 689Q382 689 414 680T476 654L491 647L494 643Q483 612 477 579T466 518L463 515H442L439 518L433 593Q427 600 418 609T396 626T367 640T330 649L287 376L351 350Q415 324 438 291T462 217Q462 167 442 127T389 58T314 11T225 -12L221 -39Q217 -62 214 -82T211 -114L208 -117H175L172 -114Q176 -103 180 -82T188 -40L192 -15Q132 -15 92 -3T30 20L27 24Q31 39 35 56T44 91T51 126T56 157L59 160H77L80 157V83Z"  />
<glyph unicode="%" horiz-adv-x="796" d="M68 448Q68 490 80 531T117 607T178 662T263 683Q289 683 311 676T351 654T377 613T387 552Q387 520 377 479T345 402T285 340T194 315Q168 315 146 323T106 347T78 389T68 448ZM128 439Q128 396 147 369T203 342Q239 342 263 363T301 414T321 481T327 547Q327 605 310 630T250 656Q222 656 200 641T161 597T137 528T128 439ZM441 118Q441 160 453 201T490 277T551 332T636 353Q662 353 684 346T724 324T750 283T760 222Q760 190 750 149T718 72T658 10T567 -15Q541 -15 519 -7T479 17T451 59T441 118ZM501 109Q501 66 520 39T576 12Q612 12 636 33T674 84T694 151T700 217Q700 275 683 300T623 326Q595 326 573 311T534 267T510 198T501 109ZM609 715L612 718H651L654 715L206 -47L203 -50H164L161 -47L609 715Z"  />
<glyph unicode="&amp;" horiz-adv-x="722" d="M334 375Q332 377 324 377T306 378Q262 378 224 364T157 326T112 268T96 195Q96 150 112 118T155 65T214 34T282 24Q336 24 381 39T460 79T511 138T529 208Q529 246 509 273T445 300Q403 300 385 277T365 218L362 215H344L341 218L350 313Q360 323 382 335T446 353L594 375Q649 382 673 401T698 455Q698 478 685 491T656 510V513L677 526H680Q684 523 691 518T705 503T717 479T722 447Q722 408 707 384T663 346T595 324T509 314V312Q540 308 564 288T589 223Q589 186 565 145T495 69T387 11T248 -12Q195 -12 154 2T84 41T40 101T24 176Q24 222 44 259T95 325T166 371T243 394V396Q231 399 216 403T186 418T163 447T153 495Q153 528 173 563T227 626T303 673T389 692Q419 692 440 687T473 677L476 672Q468 648 462 614T454 554L451 551H433L430 554V632Q416 641 395 646T349 652Q326 652 302 643T258 617T226 576T213 523Q213 474 239 444T319 414Q327 414 335 414T350 417L353 413L334 375Z"  />
<glyph unicode="&apos;" horiz-adv-x="259" d="M207 481Q206 473 202 465T188 456Q178 456 174 464T169 481L157 627Q154 655 154 669Q154 678 161 691T188 704Q207 704 214 691T222 669Q222 655 219 627L207 481Z"  />
<glyph unicode="(" horiz-adv-x="315" d="M205 -119H202Q176 -76 154 -32T115 59T89 156T79 260Q79 333 99 400T155 527T238 639T341 737H344L357 723V720Q327 693 290 647T219 538T164 394T142 217Q142 161 149 116T168 31T194 -41T224 -107V-110L205 -119Z"  />
<glyph unicode=")" horiz-adv-x="315" d="M130 737H133Q159 694 181 650T220 559T246 462T256 358Q256 284 236 218T180 91T97 -21T-6 -119H-9L-22 -105V-102Q8 -75 45 -29T116 80T171 224T193 401Q193 457 186 502T167 587T141 659T111 725V728L130 737Z"  />
<glyph unicode="*" horiz-adv-x="444" d="M117 585V588Q128 599 137 613T151 641L154 643L266 535L294 689H297Q306 681 322 675T352 667L355 664L284 527L432 555L435 552Q432 538 433 520T439 489L436 486L284 506L354 379V376Q340 374 323 366T296 349H293L264 500L151 397H148Q143 412 135 428T119 456V459L256 518L117 585Z"  />
<glyph unicode="+" horiz-adv-x="600" d="M276 229H47V277H276V506H324V277H553V229H324V0H276V229Z"  />
<glyph unicode="&#x2c;" horiz-adv-x="250" d="M162 102Q154 85 140 57T103 -7Q83 -39 59 -73T9 -135L-19 -146L-25 -141Q-10 -123 6 -95T36 -35T60 28T73 83Q91 85 116 93T156 109L162 102Z"  />
<glyph unicode="-" horiz-adv-x="370" d="M52 220Q64 246 69 280Q103 274 185 274Q222 274 258 275T313 280L316 275Q310 264 305 246T297 214Q290 215 277 216T248 218T214 219T179 220Q134 220 105 218T60 214L52 220Z"  />
<glyph unicode="." horiz-adv-x="250" d="M50 27Q50 55 66 74T102 94Q121 94 129 83T138 55Q138 27 122 8T86 -12Q67 -12 59 -1T50 27Z"  />
<glyph unicode="/" horiz-adv-x="259" d="M279 701L282 704H321L324 701L16 -12L13 -15H-26L-29 -12L279 701Z"  />
<glyph unicode="0" horiz-adv-x="500" d="M55 229Q55 264 60 311T78 408T110 508T159 596T227 659T316 683Q364 683 395 665T444 616T469 542T477 451Q477 407 471 356T452 253T418 153T368 67T300 8T213 -15Q163 -15 132 7T84 64T61 142T55 229ZM121 192Q121 107 141 60T222 12Q257 12 285 35T334 96T369 184T393 285T407 387T411 478Q411 521 407 554T392 610T361 644T311 656Q264 656 229 616T169 510T133 361T121 192Z"  />
<glyph unicode="1" horiz-adv-x="500" d="M282 487Q290 527 296 562T304 622L106 526L103 528Q108 540 112 559T118 592Q140 594 192 610T328 660Q345 667 359 673T380 683L389 674Q384 659 376 626T359 547T339 449T319 341T300 231T282 131Q277 99 275 82T272 56Q272 39 281 33T325 25L401 23L404 20L399 0L396 -3Q355 -2 315 -1T234 0Q192 0 152 -1T71 -3L68 0L73 20L76 23L141 25Q164 26 175 30T192 46Q203 72 208 102T222 173L282 487Z"  />
<glyph unicode="2" horiz-adv-x="500" d="M160 643Q181 658 212 670T292 683Q328 683 357 673T408 643T441 598T453 539Q453 467 413 400T293 252Q239 196 185 146T93 61V59Q115 58 143 57T219 57Q274 57 320 60T407 69L411 65Q403 51 399 33T394 0L391 -3Q359 -2 310 -1T210 0Q152 0 96 -1T1 -3L-2 0L0 15L89 96Q141 147 191 196T276 289Q294 310 313 334T347 387T373 446T384 511Q384 545 374 567T347 602T311 621T274 627Q242 627 219 617T177 591T146 557T122 520H119L101 527V530L160 643Z"  />
<glyph unicode="3" horiz-adv-x="500" d="M160 394Q180 389 205 389Q247 389 278 401T330 433T360 481T370 539Q370 581 343 605T270 630Q244 630 224 622T186 600T156 572T133 542H130L112 552V555L175 653Q196 666 227 674T286 683Q314 683 341 675T389 651T423 612T436 557Q436 499 397 453T289 383V381Q313 379 339 372T388 348T425 301T440 225Q440 170 417 126T355 50T266 2T164 -15Q137 -15 115 -10T77 2T48 17T29 32Q32 42 35 59T42 95T47 131T51 158L54 161H72L75 158Q72 143 72 126Q72 106 76 86T93 50T126 25T181 15Q231 15 266 33T324 81T357 145T368 212Q368 241 363 267T342 314T300 347T227 359Q205 359 186 355T149 345L145 350L160 394Z"  />
<glyph unicode="4" horiz-adv-x="500" d="M130 192Q99 192 73 191T27 188L24 191V210L106 329Q151 395 195 453T278 562Q305 600 330 630T369 673Q382 675 399 677T427 683L432 678Q428 668 424 649T414 607T404 558T395 510L346 240Q407 240 436 242T479 247L483 243Q478 234 473 218T467 189L464 186Q452 188 423 190T339 192L327 107Q324 88 323 74T322 52Q322 39 331 33T378 25L441 23L444 20L440 0L437 -3Q397 -2 358 -1T279 0Q239 0 200 -1T121 -3L118 0L123 20L126 23L181 25Q213 26 226 30T244 40Q251 48 254 66T262 104L279 192H130ZM323 440Q331 490 340 535T358 613L356 615L322 570Q305 549 283 520T237 458T189 392T145 330T109 278T86 245L88 240H286L323 440Z"  />
<glyph unicode="5" horiz-adv-x="500" d="M145 379L147 377Q170 402 203 413T278 425Q321 425 352 413T404 381T433 332T443 270Q443 207 421 155T361 65T276 6T175 -15Q143 -15 120 -10T79 3T49 20T29 37Q32 49 35 66T42 102T46 137T48 165L51 168H72L75 165Q72 154 72 134Q72 109 78 88T98 52T134 27T190 18Q237 18 271 38T329 91T363 164T374 246Q374 286 363 313T334 356T295 378T255 385Q228 385 207 379T171 363T144 344T123 324L104 330Q110 357 118 397T134 479T148 556T158 610L170 675L174 678Q202 672 239 671T320 670Q374 670 419 671T484 678L491 670L456 615Q406 612 316 612Q278 612 246 613T194 616L145 379Z"  />
<glyph unicode="6" horiz-adv-x="500" d="M58 180Q58 252 76 326T129 467T218 585T341 667Q359 675 376 679T417 683Q440 683 455 679T478 672Q472 662 468 645T462 616L454 614Q446 626 433 634T390 643Q338 643 297 614T224 537T171 430T137 312H139Q149 325 165 342T204 374T254 399T314 410Q338 410 363 402T410 377T444 332T457 263Q457 194 432 142T370 55T289 3T209 -15Q172 -15 144 0T96 41T68 102T58 180ZM124 169Q124 139 129 113T148 68T182 37T235 25Q265 25 293 38T342 78T377 146T391 245Q391 267 386 288T369 325T337 352T285 363Q254 363 225 350T174 312T138 251T124 169Z"  />
<glyph unicode="7" horiz-adv-x="500" d="M308 610Q236 610 183 608T112 604L103 610Q111 621 114 642Q116 652 116 661T117 676L123 680Q140 678 165 676T219 672Q248 671 277 671T332 670Q461 670 521 676L524 673V647Q484 588 440 519T353 377T271 235T201 102Q185 70 173 43T156 0L153 -3Q143 -2 133 -1T113 0Q102 0 92 -1T71 -3L67 2Q78 18 103 55T158 140L457 610H308Z"  />
<glyph unicode="8" horiz-adv-x="500" d="M178 515Q178 460 209 431T289 383Q342 408 376 448T410 549Q410 598 381 622T313 647Q292 647 268 638T224 613T191 571T178 515ZM41 131Q41 171 56 204T96 265T154 313T222 349Q204 357 186 367T152 393T128 429T118 479Q118 518 138 554T190 619T261 665T339 683Q396 683 433 652T470 564Q470 520 454 488T413 432T363 394T316 370Q368 347 400 311T433 217Q433 173 413 132T358 58T281 5T191 -15Q155 -15 128 -4T81 27T51 74T41 131ZM101 144Q101 112 110 89T134 51T170 29T212 21Q239 21 266 31T316 63T353 116T367 192Q367 246 336 278T248 335Q205 315 177 291T132 241T108 190T101 144Z"  />
<glyph unicode="9" horiz-adv-x="500" d="M40 106L43 109L59 113L62 111Q66 98 74 83T96 55T127 34T168 25Q224 25 263 57T328 138T371 246T398 360L396 362Q384 344 366 326T325 293T276 270T220 261Q196 261 171 269T124 294T90 339T77 408Q77 476 102 527T164 613T245 665T325 683Q364 683 392 667T440 623T467 558T476 478Q475 374 447 284T373 128T269 23T149 -15Q125 -15 106 -10T73 3L40 106ZM410 503Q410 532 405 557T386 602T352 632T299 643Q269 643 241 630T192 591T157 523T143 426Q143 404 148 383T165 346T197 319T249 308Q280 308 309 321T360 359T396 420T410 503Z"  />
<glyph unicode=":" horiz-adv-x="250" d="M112 392Q112 420 128 439T164 459Q183 459 191 448T200 420Q200 392 184 373T148 353Q129 353 121 364T112 392ZM50 27Q50 55 66 74T102 94Q121 94 129 83T138 55Q138 27 122 8T86 -12Q67 -12 59 -1T50 27Z"  />
<glyph unicode=";" horiz-adv-x="250" d="M162 102Q154 85 140 57T103 -7Q83 -39 59 -73T9 -135L-19 -146L-25 -141Q-10 -123 6 -95T36 -35T60 28T73 83Q91 85 116 93T156 109L162 102ZM112 392Q112 420 128 439T164 459Q183 459 191 448T200 420Q200 392 184 373T148 353Q129 353 121 364T112 392Z"  />
<glyph unicode="&lt;" horiz-adv-x="600" d="M47 226V280L553 514V459L107 253L553 47V-8L47 226Z"  />
<glyph unicode="=" horiz-adv-x="600" d="M47 375H553V327H47V375ZM47 179H553V131H47V179Z"  />
<glyph unicode="&gt;" horiz-adv-x="600" d="M47 47L493 253L47 459V514L553 280V226L47 -8V47Z"  />
<glyph unicode="?" horiz-adv-x="389" d="M185 185Q174 190 161 205T147 248Q147 267 153 283T171 318T204 358T251 409Q298 459 320 492T343 561Q343 577 337 593T319 622T289 642T245 650Q219 650 202 644T171 625T147 597T127 562L124 559L107 566L104 569Q115 589 127 617T149 672Q166 683 191 693T253 704Q288 704 317 694T366 666T398 624T409 570Q409 543 403 522T381 480T342 435T282 378Q244 342 224 320T193 284T182 262T180 247Q180 224 190 215T209 200L207 191L185 185ZM104 27Q104 55 120 74T156 94Q175 94 183 83T192 55Q192 27 176 8T140 -12Q121 -12 113 -1T104 27Z"  />
<glyph unicode="@" horiz-adv-x="800" d="M323 275Q323 225 336 206T376 186Q392 186 417 202T465 249T504 323T521 419Q521 456 504 471T468 487Q446 487 421 471T374 426T338 359T323 275ZM647 43Q630 34 606 24T552 5T492 -9T431 -15Q363 -15 308 0T209 42T134 104T82 177T51 254T41 329Q41 413 70 482T152 600T275 677T429 704Q506 704 567 680T671 615T736 517T759 397Q759 346 745 301T706 223T645 170T567 150Q541 150 524 157T497 174T483 198T477 222H475Q455 192 421 171T354 150Q312 150 282 182T251 279Q251 326 270 371T318 450T385 506T458 527Q485 527 505 513T533 473H535L543 514H612L543 243Q540 229 540 217Q540 199 552 190T582 180Q615 180 642 196T688 241T718 309T729 396Q729 452 707 502T646 591T552 651T431 674Q359 674 302 651T204 583T141 472T119 318Q119 262 140 208T201 111T298 42T430 15Q499 15 547 30T633 64L647 43Z"  />
<glyph unicode="A" horiz-adv-x="667" d="M408 700H453L558 109Q563 85 566 67T577 38Q586 27 617 25L644 23L647 20L642 0L639 -3Q619 -2 592 -1T532 0Q503 0 472 -1T405 -3L402 0L405 20L408 23L450 25Q468 26 477 31T490 44Q493 52 491 70T484 117L458 275Q435 276 402 276T331 277Q293 277 262 277T204 275L110 101Q100 83 95 71T89 47Q89 35 99 31T139 25L174 23L177 20L173 0L170 -3Q135 -2 107 -1T55 0Q34 0 5 -1T-51 -3L-54 0L-52 20L-49 23L-24 25Q-5 27 10 38T42 76L408 700ZM401 617H399L222 310Q268 307 340 307Q375 307 404 307T453 310L401 617Z"  />
<glyph unicode="B" horiz-adv-x="574" d="M166 539Q171 567 174 590T178 626Q178 643 171 652T136 664L89 666L86 669L90 689L93 692Q108 692 120 692T145 691T170 690T199 689Q220 689 245 689T295 690T343 691T383 692Q410 692 436 685T483 662T517 621T530 561Q530 519 513 486T469 429T410 388T350 364V362Q382 362 412 354T464 330T500 287T514 225Q514 180 491 139T430 66T347 16T256 -3Q227 -3 194 -2T132 0Q97 0 65 -1T23 -3L20 0L24 20L27 23Q53 25 64 34T78 53Q82 67 86 86T94 129L166 539ZM169 150Q164 123 161 96T156 46Q176 41 205 37T268 33Q311 33 342 48T395 88T426 146T436 214Q436 287 391 314T252 342H200L169 150ZM206 375H254Q295 375 332 385T397 418T441 472T458 550Q458 605 426 632T333 659Q313 659 298 659T259 656Q253 635 247 604T234 537L206 375Z"  />
<glyph unicode="C" horiz-adv-x="648" d="M603 66Q591 56 567 42T510 16T439 -6T363 -15Q224 -15 148 57T67 272Q64 372 97 452T186 588T316 674T464 704Q486 704 512 701T564 693T614 681T656 666L659 663Q655 648 651 630T644 594T639 558T636 529L633 526H615L612 529L606 610Q566 636 525 646T434 656Q348 656 292 624T202 540T156 426T142 300Q142 226 163 175T219 92T296 45T379 30Q408 30 440 36T502 54T559 80T606 109H609L614 103L603 66Z"  />
<glyph unicode="D" horiz-adv-x="722" d="M166 539Q171 567 174 590T178 626Q178 643 171 652T136 664L89 666L86 669L90 689L93 692Q122 691 152 690T215 689Q273 689 320 690T413 692Q474 692 527 678T618 633T679 554T701 436Q701 354 671 275T585 135T454 35T284 -3Q242 -3 209 -2T158 0Q137 0 115 0T75 -1T42 -2T23 -3L20 0L24 20L27 23Q53 25 64 34T78 53Q82 67 86 86T94 129L166 539ZM620 422Q620 541 557 598T371 656Q358 656 342 656T311 655T281 654T258 652Q252 629 244 587T227 492T207 379T187 260T169 146T155 49Q169 46 187 43T223 38T257 34T282 33Q365 31 428 62T534 148T598 273T620 422Z"  />
<glyph unicode="E" horiz-adv-x="556" d="M166 539Q171 567 174 590T178 626Q178 643 171 652T136 664L89 666L86 669L90 689L93 692Q122 691 152 690T215 689Q255 689 298 689T384 690T464 691T535 692L538 689Q524 591 523 547L520 544H502L499 547Q498 561 498 577T497 607T493 632T483 646Q474 649 460 651T428 654T392 655T356 656Q283 656 258 653Q253 632 248 609T238 556L207 376H302Q326 376 350 377T395 379T432 381T456 382L462 377L442 333Q433 334 417 335T382 338T341 339T298 340H201L151 37H304Q357 37 398 39T453 50Q464 76 472 106T485 154L488 157H506L509 154Q503 124 497 81T485 0L482 -3Q450 -3 411 -3T329 -2T243 -1T158 0Q137 0 115 0T75 -1T42 -2T23 -3L20 0L24 20L27 23Q53 25 64 34T78 53Q82 67 86 86T94 129L166 539Z"  />
<glyph unicode="F" horiz-adv-x="500" d="M167 555Q172 580 174 600T177 630Q177 645 170 654T140 664L91 666L89 669L93 689L96 692Q126 691 158 690T222 689Q260 689 300 689T381 690T458 691T525 692L528 689Q521 656 518 619T512 547L509 544H491L488 547Q486 579 486 607T478 641Q472 645 459 648T431 652T397 655T363 656Q330 656 302 655T257 652Q252 627 247 602T235 541L206 356H293Q347 356 392 359T455 369L460 363Q453 354 447 340T437 315Q416 317 378 318T291 320H200L163 106Q161 94 160 80T158 54Q158 37 170 32T217 25L255 23L258 20L254 0L251 -3Q238 -2 199 -1T114 0Q82 0 51 -1T-9 -3L-12 0L-8 20L-5 23L35 25Q48 26 56 29T70 39T80 59T87 92L167 555Z"  />
<glyph unicode="G" horiz-adv-x="704" d="M434 271L437 274Q451 273 481 272T549 271Q583 271 619 272T675 274L678 271L674 251L671 248Q654 247 645 246T631 240T623 226T616 199Q607 157 601 121T594 68Q594 63 594 59T596 53Q598 49 601 49L598 34H589Q583 34 563 27T512 10T441 -7T352 -15Q293 -15 239 0T144 51T79 145T55 287Q55 372 86 448T173 581T303 671T466 704Q521 704 571 691T659 665L662 662Q657 647 654 629T647 592T642 557T638 528L635 525H617L614 528Q614 543 613 568T610 610Q592 620 569 629T521 645T471 655T422 659Q342 659 287 625T198 539T149 423T133 300Q133 162 198 92T384 21Q438 21 472 33T524 56Q529 82 533 109T541 158T547 195T549 213Q549 231 538 237T491 246L432 248L429 251L434 271Z"  />
<glyph unicode="H" horiz-adv-x="741" d="M167 555Q172 580 174 600T177 630Q177 645 170 654T140 664L91 666L89 669L93 689L96 692Q126 691 158 690T222 689Q254 689 285 690T347 692L349 689L345 669L342 666L309 664Q293 663 283 661T267 654T258 639T251 615L209 381Q254 380 300 379T397 378Q441 378 485 379T573 381L609 582Q613 602 613 613T614 631Q614 663 577 664L526 666L523 669L527 689L530 692Q561 691 593 690T657 689Q689 689 721 690T782 692L785 689L781 669L778 666L743 664Q726 663 716 661T700 653T692 639T686 613L599 108Q593 76 593 59Q593 47 599 37T625 25L678 23L681 20L677 0L674 -3Q644 -2 613 -1T549 0Q517 0 485 -1T423 -3L420 0L424 20L427 23L467 25Q482 26 491 29T507 39T518 59T525 92L568 345Q525 346 480 347T387 348Q340 348 294 347T203 345L162 99Q160 84 159 73T157 56Q157 40 164 34T202 25L243 23L245 20L241 0L237 -3Q208 -2 177 -1T114 0Q82 0 51 -1T-9 -3L-12 0L-8 20L-5 23L35 25Q48 26 56 29T70 39T80 59T87 92L167 555Z"  />
<glyph unicode="I" horiz-adv-x="315" d="M176 564Q180 584 182 600T184 633Q184 644 177 653T142 664L95 666L92 669L96 689L99 692L221 689L356 692L359 689L356 669L353 666L315 664Q297 663 287 661T270 651T261 632T254 598L173 133Q168 103 166 85T163 57Q163 43 171 35T203 25L255 23L258 20L254 0L251 -3Q219 -2 186 -1T118 0Q86 0 54 -1T-9 -3L-12 0L-8 20L-5 23L43 25Q73 27 82 51T99 125L176 564Z"  />
<glyph unicode="J" horiz-adv-x="278" d="M148 528Q155 570 159 591T163 627Q163 640 156 651T121 664L69 666L66 669L70 689L73 692L200 689L335 692L338 689L335 669L332 666L294 664Q276 663 265 661T247 651T236 627T227 582L139 32Q131 -17 118 -60T82 -135T26 -186T-54 -205Q-66 -205 -81 -202Q-81 -194 -83 -180T-88 -157L-79 -154Q-74 -160 -65 -166T-38 -172Q-15 -172 1 -159T30 -121T51 -64T66 10L148 528Z"  />
<glyph unicode="K" horiz-adv-x="630" d="M497 94Q515 72 528 59T552 38T576 27T603 23L606 20L601 0L598 -3Q585 -2 570 -1T540 0Q523 0 507 -1T476 -3Q460 23 439 52T385 120L207 342L173 133Q168 103 166 85T163 57Q163 43 171 35T203 25L244 23L247 20L243 0L240 -3Q216 -2 184 -1T118 0Q86 0 54 -1T-9 -3L-12 0L-8 20L-5 23L43 25Q73 27 82 51T99 125L177 564Q181 584 183 600T185 633Q185 644 178 653T143 664L96 666L93 669L97 689L100 692L222 689L348 692L351 689L348 669L345 666L315 664Q297 663 287 660T270 649T260 625T251 582L210 352Q255 387 310 442T436 570Q461 595 477 613T504 644T519 667T527 689L530 692Q541 691 555 690T588 689Q605 689 621 690T647 692L650 689L647 669L644 666Q609 665 588 653T537 612L277 366L497 94Z"  />
<glyph unicode="L" horiz-adv-x="537" d="M166 539Q171 567 174 590T178 626Q178 643 171 652T136 664L89 666L86 669L90 689L93 692Q122 691 152 690T215 689Q250 689 285 690T359 692L362 689L359 669L356 666L309 664Q291 663 281 661T264 651T254 627T245 582L170 154Q165 124 160 90T153 33H284Q305 33 329 34T375 37T413 42T436 51Q441 55 447 70T460 104T471 138T479 161L482 164H500L503 161Q501 151 497 133T489 92T481 45T476 0L473 -3Q441 -3 403 -3T323 -2T240 -1T158 0Q137 0 115 0T75 -1T42 -2T23 -3L20 0L24 20L27 23Q53 25 64 34T78 53Q82 67 86 86T94 129L166 539Z"  />
<glyph unicode="M" horiz-adv-x="926" d="M201 547Q209 576 213 594T217 627Q217 642 207 652T164 664L127 666L124 669L128 689L131 692Q144 691 161 690T204 689Q227 689 247 690T280 692Q287 658 298 620T323 530L440 94L786 692Q801 691 821 690T869 689Q892 689 913 690T944 692L947 689L942 669L939 666L914 664Q896 662 882 661T860 652Q851 643 849 622T844 555L813 112Q812 98 811 86T810 57Q810 43 818 35T850 25L899 23L902 20L897 0L894 -3Q862 -2 831 -1T768 0Q736 0 705 -1T642 -3L639 0L644 20L647 23L679 25Q722 28 729 42Q732 48 734 58T738 81T741 105T743 128L782 599H780L497 123Q470 77 451 41T421 -15H400L348 179L244 562H242L133 152Q122 112 116 89T110 52Q110 35 121 31T151 25L193 23L196 20L191 0L188 -3Q162 -2 136 -1T84 0Q58 0 32 -1T-21 -3L-24 0L-20 20L-17 23L11 25Q31 27 39 30T52 44Q56 53 63 71T78 113L201 547Z"  />
<glyph unicode="N" horiz-adv-x="741" d="M178 619L167 634Q158 647 145 653T106 662L75 666L72 669L76 689L79 692Q97 691 115 690T152 689Q170 689 188 690T225 692Q242 655 266 611T328 503L572 99L648 560Q654 596 655 614T657 641Q657 655 643 658T604 664L572 666L569 669L574 689L577 692Q604 691 631 690T686 689Q713 689 740 690T794 692L797 689L793 669L790 666L748 664Q733 663 725 661T711 647Q703 634 697 606T686 548L619 164Q608 105 602 60T594 -12H549Q542 4 532 23T509 64T485 106T461 147L207 572L134 121Q131 102 129 83T126 51Q126 40 134 33T165 25L209 23L212 20L207 0L204 -3Q177 -2 150 -1T97 0Q70 0 43 -1T-11 -3L-14 0L-9 20L-6 23L23 25Q45 27 56 30T73 48Q81 68 88 101T103 183L178 619Z"  />
<glyph unicode="O" horiz-adv-x="741" d="M136 266Q136 216 146 172T181 94T246 41T347 21Q420 21 474 58T564 154T617 286T635 430Q635 548 580 608T423 668Q359 668 313 645T234 585T183 503T153 412T140 328T136 266ZM58 256Q58 346 84 427T160 569T285 667T457 704Q524 704 572 683T651 627T698 545T713 446Q713 345 682 260T597 114T472 19T320 -15Q251 -15 202 4T120 59T73 145T58 256Z"  />
<glyph unicode="P" horiz-adv-x="556" d="M176 564Q180 584 182 600T184 633Q184 644 177 653T142 664L95 666L92 669L96 689L99 692L221 689Q270 687 310 689T386 692Q416 692 447 686T503 663T543 618T559 544Q559 494 542 449T494 371T421 317T330 297Q307 297 285 302T246 315L243 318V341L246 344Q257 339 274 333T316 327Q349 327 379 340T431 379T467 441T481 524Q481 564 468 590T435 631T390 653T339 659Q317 659 298 657T265 653Q257 627 253 601T243 546L173 133Q168 103 166 85T163 57Q163 43 171 35T203 25L255 23L258 20L254 0L251 -3Q219 -2 186 -1T118 0Q86 0 54 -1T-9 -3L-12 0L-8 20L-5 23L43 25Q73 27 82 51T99 125L176 564Z"  />
<glyph unicode="Q" horiz-adv-x="741" d="M136 266Q136 216 146 172T181 94T246 41T347 21Q420 21 474 58T564 154T617 286T635 430Q635 548 580 608T423 668Q359 668 313 645T234 585T183 503T153 412T140 328T136 266ZM675 -58L678 -61Q675 -73 668 -95T646 -141T609 -181T553 -198Q521 -198 486 -180T395 -127Q365 -108 342 -94T301 -71T267 -57T235 -52Q204 -52 184 -78T148 -156H145L128 -147L126 -144Q132 -123 141 -99T164 -54T199 -21T252 -7V-5Q151 11 105 80T58 256Q58 346 84 427T160 569T285 667T457 704Q524 704 572 683T651 627T698 545T713 446Q713 345 682 260T597 114T472 19T320 -15Q310 -15 302 -13V-15Q320 -19 345 -31T412 -69Q447 -90 470 -103T510 -124T540 -135T569 -138Q608 -138 625 -118T654 -61L657 -58H675Z"  />
<glyph unicode="R" horiz-adv-x="611" d="M176 564Q180 584 182 600T184 633Q184 644 177 653T142 664L95 666L92 669L96 689L99 692L221 689Q256 689 297 690T386 692Q415 692 444 686T496 664T535 624T550 561Q550 509 526 470T467 405T396 364T333 348L450 171Q474 134 495 106T530 59Q544 40 562 32T606 22L609 20L605 0L602 -3Q588 -2 573 -1T542 0Q525 0 510 -1T478 -3Q471 11 454 40T412 108L234 365L237 377Q245 376 251 376T266 375Q320 375 359 389T423 428T460 484T472 548Q472 582 460 603T428 637T385 654T338 659Q316 659 296 657T265 652Q258 623 252 593T241 533L173 133Q168 103 166 85T163 57Q163 43 171 35T203 25L244 23L247 20L243 0L240 -3Q216 -2 184 -1T118 0Q86 0 54 -1T-9 -3L-12 0L-8 20L-5 23L43 25Q58 26 67 32T81 47T89 68T94 92L176 564Z"  />
<glyph unicode="S" horiz-adv-x="519" d="M80 85Q87 75 101 65T133 45T174 31T221 25Q263 25 295 38T350 74T384 124T396 183Q396 207 390 224T368 255T323 284T249 318Q174 350 139 389T104 489Q104 532 121 571T170 640T245 686T341 704Q383 704 415 695T476 669L491 661L494 657Q483 625 477 592T467 530L464 527H443L440 530L434 607Q427 614 416 624T389 643T352 658T306 664Q273 664 247 653T202 623T174 579T164 526Q164 495 172 473T199 432T251 397T334 362Q373 348 397 332T436 299T456 263T462 221Q462 165 438 121T375 47T287 1T188 -15Q131 -15 92 -3T30 21L27 25Q35 53 43 91T56 160L59 163H77L80 160V85Z"  />
<glyph unicode="T" horiz-adv-x="593" d="M304 511Q312 554 316 588T325 652H273Q250 652 227 651T184 649T152 645T135 641Q129 638 123 624T112 591T102 556T95 529L92 526H74L71 529Q77 563 81 603T88 685L92 692Q129 692 163 692T231 691T297 690T366 689Q408 689 448 689T524 690T586 691T630 692L634 685Q626 653 619 614T609 534L606 531H588L585 534Q585 544 585 560T584 592T582 620T580 635Q577 639 561 642T523 647T476 651T434 652H400L310 133Q305 103 303 85T300 57Q300 43 308 35T340 25L392 23L395 20L391 0L388 -3Q356 -2 323 -1T255 0Q223 0 191 -1T128 -3L125 0L129 20L132 23L180 25Q210 27 219 51T236 125L304 511Z"  />
<glyph unicode="U" horiz-adv-x="741" d="M157 548Q161 572 164 594T168 628Q168 643 160 652T119 664L82 666L79 669L83 689L86 692Q103 691 120 690T166 689Q199 689 222 690T256 692Q250 672 245 644T234 586L169 220Q166 203 164 187T162 150Q162 97 194 67T291 36Q334 36 370 48T437 79T494 122T543 169L606 542Q611 571 613 589T616 629Q616 649 603 655T563 664L529 666L526 669L530 689L533 692Q558 691 588 690T655 689Q695 689 730 690T785 692L788 689L784 669L781 666L747 664Q727 663 716 660T698 650T690 629T683 593L603 133Q600 113 597 93T593 61Q593 41 607 34T648 25L680 23L683 20L679 0L676 -3Q659 -2 640 -1T600 0Q580 0 560 -1T520 -3L514 3L537 120L535 122Q512 97 482 73T418 29T344 -3T264 -15Q235 -15 205 -7T150 20T109 69T93 144Q93 157 95 174T100 210T106 246T111 276L157 548Z"  />
<glyph unicode="V" horiz-adv-x="630" d="M140 582Q136 607 133 622T126 646T113 658T92 664L55 666L52 669L58 689L61 692Q84 691 114 690T176 689Q190 689 208 689T244 690T275 691T294 692L297 689L293 669L290 666L260 664Q243 663 233 661T217 655T211 646T209 635Q209 624 211 603T216 560L276 82H278L518 514Q542 557 558 590T575 641Q575 657 562 660T535 664L498 666L495 669L500 689L503 692Q523 691 552 690T610 689Q626 689 643 689T675 690T703 691T720 692L723 689L719 669L716 666L690 664Q679 663 671 661T655 653T641 638T626 614L267 -8H225L140 582Z"  />
<glyph unicode="W" horiz-adv-x="963" d="M526 551L220 -8H175L138 590Q136 614 134 628T125 650T108 660T79 664L60 666L57 669L61 689L64 692Q76 692 87 692T112 691T140 690T177 689Q195 689 214 689T250 690T280 691T299 692L302 689L297 669L294 666L260 664Q243 663 233 660T218 649T211 629T211 598L234 97H236L457 501Q488 560 511 607T549 694H567Q578 615 594 536T631 370L691 86H693L881 528Q887 541 893 556T904 586T913 613T917 633Q917 650 906 656T862 664L832 666L829 669L834 689L837 692Q866 691 894 690T951 689Q988 689 1017 690T1055 692L1058 689L1054 669L1051 666L1029 664Q1017 664 1007 659T987 644T967 615T944 569L691 -8H646L526 551Z"  />
<glyph unicode="X" horiz-adv-x="648" d="M183 122Q166 99 151 78T136 47Q136 34 146 31T181 25L218 23L221 20L216 0L213 -3Q207 -3 195 -3T168 -2T135 -1T101 0Q71 0 37 -1T-18 -3L-21 0L-15 20L-12 23L14 25Q24 26 31 27T46 31T60 40T76 56Q90 71 106 91T134 125L308 344L199 551Q186 576 175 599T153 639Q145 652 132 657T104 664L63 666L60 669L67 689L70 692Q93 691 125 690T190 689Q206 689 226 689T265 690T298 691T319 692L322 689L318 669L315 666L260 664Q250 664 243 660T235 645Q235 633 243 617T261 580L354 396L492 577Q509 600 520 617T532 644Q532 661 500 664L447 666L444 669L449 689L452 692Q473 691 507 690T580 689Q619 689 648 690T688 692L691 689L687 669L684 666L646 664Q634 663 619 656T581 622L372 363L516 90Q527 69 535 57T551 37T567 28T586 25L621 23L624 20L619 0L616 -3Q592 -2 561 -1T497 0Q462 0 427 -1T366 -3L363 0L368 20L371 23L416 25Q433 26 443 30T453 49Q453 57 445 75T426 113L326 308L183 122Z"  />
<glyph unicode="Y" horiz-adv-x="611" d="M666 629Q624 626 586 600T515 533T452 445T398 349Q375 303 366 273T355 228Q343 159 337 112T330 58Q330 41 342 34T381 25L415 23L418 20L413 0L410 -3Q404 -3 390 -3T359 -2T323 -1T288 0Q247 0 215 -1T162 -3L159 0L164 20L168 23L197 25Q226 27 239 36T257 71Q260 86 265 111T274 165T282 217T286 256Q286 272 280 306T261 384T233 472T197 555T155 617T110 641Q95 641 83 637T57 625L54 628L51 649L54 653Q60 656 70 661T91 674T113 690T131 704Q168 701 197 680T250 612T296 491T343 308H345Q362 350 391 408T461 525T555 633T672 704L666 629Z"  />
<glyph unicode="Z" horiz-adv-x="630" d="M255 37Q294 37 337 38T417 41T482 47T516 54Q521 57 527 69T539 97T549 129T557 158L560 161H578L581 158Q574 123 568 79T559 0L556 -3Q509 -2 439 -1T287 0Q201 0 128 -1T6 -3L3 0L9 21L75 103L510 653H320Q260 653 214 650T157 639Q153 636 149 624T140 597T132 567T126 541L123 538H105L102 541Q104 556 106 576T109 616T112 656T115 689L118 692Q151 692 190 692T270 691T355 690T438 689Q480 689 530 690T620 692L623 689L620 673Q607 659 594 644T567 611L112 37H255Z"  />
<glyph unicode="[" horiz-adv-x="315" d="M134 417Q149 519 159 600T172 722L178 727Q212 724 259 724Q305 724 340 727L343 724L339 703L336 700Q285 698 264 695T237 679Q229 658 217 581T187 386L157 187Q152 155 146 118T135 46T126 -14T122 -51Q122 -72 145 -76T228 -82L231 -85L226 -106L223 -109Q209 -108 186 -107T136 -106Q110 -106 88 -107T49 -109L46 -104Q57 -72 70 -3T96 156L134 417Z"  />
<glyph unicode="\" horiz-adv-x="259" d="M46 701L49 704H88L91 701L251 -12L247 -15H208L206 -12L46 701Z"  />
<glyph unicode="]" horiz-adv-x="315" d="M201 201Q186 99 176 18T163 -104L157 -109Q140 -107 121 -107T76 -106Q29 -106 -5 -109L-8 -106L-4 -85L-1 -82Q50 -80 71 -77T98 -61Q106 -40 118 37T148 232L178 431Q183 463 189 500T200 572T209 632T213 669Q213 690 190 694T107 700L104 703L109 724L112 727Q126 726 149 725T199 724Q225 724 247 725T286 727L289 722Q278 690 265 621T239 462L201 201Z"  />
<glyph unicode="^" horiz-adv-x="600" d="M276 670H324L507 305H452L300 604L148 305H93L276 670Z"  />
<glyph unicode="_" horiz-adv-x="500" d="M0 -125V-75H500V-125H0Z"  />
<glyph unicode="`" horiz-adv-x="278" d="M97 637Q85 647 77 655T69 674Q69 684 77 693T99 703Q111 703 121 695T144 670L250 537H220L97 637Z"  />
<glyph unicode="a" horiz-adv-x="481" d="M436 468Q427 449 417 414T395 337T374 249T356 165T344 100T339 68Q339 42 352 42Q361 42 373 48T405 68L434 91H437L444 75V72L401 39Q372 17 346 3T297 -12Q283 -12 278 -4T273 15Q273 25 276 48T285 97T295 146T302 181L300 183Q279 152 249 118T185 55T120 7T64 -12Q20 -12 20 74Q20 123 30 171T55 260T85 331T109 376Q114 383 132 399T177 433T235 463T299 476Q334 476 357 470T397 456L428 476L436 468ZM86 82Q86 63 90 53T108 42Q125 42 151 60T204 104T257 162T299 220Q306 232 315 261T333 321T347 380T354 415Q340 420 321 424T286 428Q245 428 220 425T181 407Q170 396 156 369T127 295Q113 252 100 199T86 82Z"  />
<glyph unicode="b" horiz-adv-x="463" d="M370 343Q370 380 363 404T334 428Q315 428 290 417T240 387T191 343T153 288Q141 264 132 239T118 189T110 142T107 103Q107 68 125 46T181 24Q214 24 240 39T288 81T324 140T350 209T365 279T370 343ZM121 506Q125 527 129 548T136 589T141 623T143 647Q143 658 136 663T104 668H65L62 671L66 686L69 689Q77 690 95 692T136 700T182 711T222 727L230 719Q224 701 216 664T197 579L142 312H144Q175 360 209 391T276 441T336 468T382 476Q411 476 425 452T439 367Q439 298 416 230T354 109T263 22T151 -12Q101 -12 73 12T44 82Q44 105 49 130T60 185L121 506Z"  />
<glyph unicode="c" horiz-adv-x="370" d="M286 46Q253 22 215 5T141 -12Q82 -12 53 27T24 137Q24 209 42 263T77 347Q85 362 106 384T156 426T220 461T292 476Q322 476 341 469T371 455L374 450Q368 439 364 423T358 390T354 358T353 332L350 329H332L329 332V413Q321 416 303 422T255 428Q225 428 204 420T167 396T140 361T121 316Q102 261 96 219T90 139Q90 93 110 63T172 33Q216 33 255 54T331 108H334L342 93V90L286 46Z"  />
<glyph unicode="d" horiz-adv-x="500" d="M90 112Q90 99 91 86T95 61T105 43T122 36Q135 36 156 50T201 87T249 139T295 201Q324 246 339 299T366 413Q349 420 328 425T273 431Q231 431 210 420T181 400Q173 393 158 364T128 292T102 203T90 112ZM381 196Q373 154 367 117T360 58Q360 42 369 42Q377 42 395 53T454 94H457L465 78V75Q412 39 374 14T311 -12Q285 -12 285 19Q285 41 295 86T319 186L317 188Q290 147 258 111T194 48T131 4T78 -12Q49 -12 37 14T24 89Q24 139 36 188T64 279T96 350T121 388Q135 403 156 418T200 447T248 468T295 476Q318 476 337 472T374 462L384 506Q388 527 392 548T399 589T404 623T406 647Q406 658 399 663T367 668H328L325 671L329 686L332 689Q340 690 358 692T399 700T445 711T485 727L493 719Q487 701 479 664T460 579L381 196Z"  />
<glyph unicode="e" horiz-adv-x="389" d="M306 62Q268 31 221 10T126 -12Q75 -12 48 19T20 116Q20 158 28 199T48 276T73 337T98 374Q142 418 188 447T294 476Q333 476 355 459T378 401Q378 364 358 335T307 283T236 246T159 222L95 207Q91 193 89 170T86 118Q86 77 103 53T164 28Q185 28 205 33T244 47T276 66T302 85L330 108H333L341 93V90L306 62ZM155 241Q183 247 212 260T263 293T300 336T315 386Q315 412 303 426T262 440Q233 440 210 428T169 394T137 345T115 286L100 229L155 241Z"  />
<glyph unicode="f" horiz-adv-x="278" d="M203 435H223Q250 435 274 437T307 443L314 432Q309 423 304 410T296 386L292 383Q275 385 255 386T217 387H194L142 109Q128 32 111 -37T58 -158Q51 -168 38 -187T5 -225T-37 -258T-87 -273Q-104 -273 -114 -270T-132 -263Q-127 -251 -121 -229T-112 -192L-104 -186Q-98 -195 -83 -205T-43 -216Q-24 -216 -11 -206T11 -180T27 -145T39 -107Q50 -72 59 -27T77 71L134 387H118Q99 387 81 386T52 382L49 385L52 401L56 405Q79 408 102 419T141 441L156 525Q159 545 163 560T174 589T191 614T216 641Q232 656 251 671T291 699T330 719T365 727Q391 727 405 725T428 720Q422 706 415 682T406 643L394 639Q386 652 365 662T321 673Q281 673 257 640T220 534L203 435Z"  />
<glyph unicode="g" horiz-adv-x="444" d="M166 3L135 -10Q117 -18 97 -29T61 -56T34 -93T23 -139Q23 -183 58 -214T159 -246Q228 -246 271 -220T315 -139Q315 -87 241 -42L166 3ZM116 273Q116 249 121 229T136 193T164 169T206 160Q242 160 266 179T305 226T326 284T333 336Q333 389 314 420T245 452Q217 452 194 439T153 403T126 347T116 273ZM147 17L133 27Q122 34 114 41T105 60Q104 71 110 80T126 98L172 139Q159 141 139 145T100 163T67 200T53 264Q53 304 67 342T109 410T178 458T274 476Q305 476 331 465T377 428Q405 428 434 429T476 436L480 429Q475 420 472 406T466 380Q455 381 435 382T395 383Q397 374 398 363T399 337Q399 295 383 259T338 197T274 154T199 137L186 126Q177 118 170 109T162 91Q162 83 187 67T265 15Q291 -3 312 -18T349 -49T372 -82T381 -121Q381 -154 363 -182T313 -230T242 -262T157 -273Q57 -273 9 -239T-40 -148Q-40 -120 -25 -96T11 -54T57 -22T98 -2L147 17Z"  />
<glyph unicode="h" horiz-adv-x="519" d="M24 -4Q31 16 43 69T70 191T100 335T127 477T147 589T155 647Q155 659 147 663T116 668H77L74 671L78 686L81 689Q117 692 159 702T231 727L239 719Q233 701 224 664T206 579L140 245L142 243Q182 310 223 354T302 424T370 461T421 472Q438 472 445 461T453 433Q453 420 450 401T441 365L395 181Q390 162 386 143T378 108T373 81T371 65Q371 45 384 45Q389 45 399 50T422 63T447 80T470 97H473L479 80V77Q460 63 439 47T397 18T358 -3T327 -12Q311 -12 304 -3T296 22Q296 31 302 58T318 122T338 200T359 279T374 347T381 391Q381 400 377 406T361 412Q346 412 327 403T286 377T245 340T208 297Q149 216 125 144T93 3Q77 0 61 -3T30 -12L24 -4Z"  />
<glyph unicode="i" horiz-adv-x="278" d="M127 336Q132 356 134 374T137 400Q137 413 128 413Q120 413 107 406T76 388L44 368H41L35 382V385L67 408Q113 441 141 458T185 476Q199 476 205 471T212 450Q212 438 208 422T199 382L138 137Q133 114 129 95T125 63Q125 51 127 47T137 42Q147 42 178 64L220 94H223L231 77V74L190 46Q157 23 129 6T83 -12Q65 -12 61 0T56 23Q56 37 58 53T66 90L127 336ZM169 634Q169 663 185 681T220 700Q239 700 246 690T253 667Q253 638 237 620T202 601Q183 601 176 611T169 634Z"  />
<glyph unicode="j" horiz-adv-x="241" d="M111 284Q119 324 123 351T128 392Q128 400 126 404T116 408Q105 408 85 395T37 362H34L25 378V381L85 422Q119 445 141 460T181 476Q203 476 203 450Q203 430 197 404T184 343L111 -20Q103 -62 92 -92T65 -152Q37 -204 1 -238T-74 -273Q-91 -273 -101 -271T-118 -265Q-112 -253 -108 -230T-103 -192L-92 -188Q-84 -201 -69 -213T-36 -225Q-12 -225 -2 -209T16 -171Q25 -144 34 -103T53 -14L111 284ZM160 634Q160 663 176 681T211 700Q230 700 237 690T244 667Q244 638 228 620T193 601Q174 601 167 611T160 634Z"  />
<glyph unicode="k" horiz-adv-x="444" d="M185 250Q162 221 147 200T122 153T105 93T93 3Q80 1 60 -3T32 -12L23 -4Q35 36 49 96T79 224T107 361T131 490T148 592T155 647Q155 658 151 663T133 668H78L75 671L79 686L82 689Q120 692 157 702T232 727L243 720Q237 705 230 673T214 605L134 220H136Q169 263 206 308T280 391T351 452T414 476Q421 476 427 476T441 474L425 412Q418 414 411 415T395 416Q379 416 365 411T334 394T292 358T230 299L301 109Q313 74 324 56T348 37Q361 37 378 48L411 68H414L422 54V51L365 13Q351 3 333 -4T304 -12Q298 -12 291 -9T277 5T261 34T242 83L185 250Z"  />
<glyph unicode="l" horiz-adv-x="259" d="M141 506Q145 527 149 548T156 589T161 623T163 647Q163 658 156 663T124 668H85L82 671L86 686L89 689Q97 690 115 692T156 700T202 711T242 727L250 719Q244 701 236 664T217 579L138 196Q130 154 124 117T117 58Q117 42 126 42Q134 42 152 53T211 94H214L222 78V75Q169 39 131 14T68 -12Q57 -12 50 -7T42 15Q42 34 52 73T73 172L141 506Z"  />
<glyph unicode="m" horiz-adv-x="759" d="M37 -4Q47 29 57 69T78 152T96 236T110 310T119 367T123 398Q123 404 122 408T114 413Q107 413 91 404T57 384L27 364H24L17 381V384L57 411Q75 423 93 435T127 456T157 470T180 476Q195 476 195 455Q195 441 190 415T178 360L154 256H156Q201 325 243 368T320 435T379 467T413 476Q444 476 444 445Q444 431 440 413T430 368L403 256H405Q446 316 487 358T565 426T629 464T673 476Q702 476 702 439Q702 431 700 415T694 387L644 181Q639 162 635 143T627 108T621 81T619 65Q619 45 633 45Q638 45 648 50T671 63T696 80T718 97H721L728 80V77Q710 64 690 49T649 20T610 -3T576 -12Q560 -12 554 -3T547 22Q547 32 553 60T568 126T588 204T608 284T624 352T630 395Q630 404 626 410T613 416Q600 416 582 407T543 381T502 344T465 301Q436 268 417 230T385 152T366 73T356 -1L296 -12L287 -7Q290 4 297 33T314 102T334 186T352 270T366 343T372 389Q372 416 352 416Q343 416 326 407T287 380T243 338T201 285Q166 233 140 164T106 -1L46 -12L37 -4Z"  />
<glyph unicode="n" horiz-adv-x="519" d="M36 -4Q43 17 52 52T70 130T89 216T106 297T117 361T122 395Q122 406 120 409T110 413Q105 413 95 408T73 396T49 380T26 364H23L16 381V384Q27 391 49 406T95 437T143 464T179 476Q194 476 194 455Q194 441 189 415T177 360L154 256H156Q190 307 226 348T296 417T362 461T420 476Q440 476 448 466T457 441Q457 425 454 406T445 369L399 181Q394 162 390 143T382 108T377 81T375 65Q375 54 377 50T388 45Q393 45 403 50T426 63T451 80T473 97H476L483 80V77Q465 64 445 49T404 20T365 -3T331 -12Q315 -12 308 -3T300 22Q300 32 306 60T322 126T342 204T363 284T378 352T385 395Q385 404 381 410T368 416Q354 416 335 408T295 384T254 349T216 306Q187 267 168 228T136 151T116 76T105 3L44 -12L36 -4Z"  />
<glyph unicode="o" horiz-adv-x="444" d="M344 302Q344 331 340 357T325 402T299 432T257 443Q214 443 183 416T131 346T100 251T90 147Q90 73 115 44T181 15Q221 15 252 44T303 116T333 210T344 302ZM24 144Q24 209 41 269T92 375T171 448T275 476Q314 476 340 464T381 431T403 384T410 329Q410 272 393 212T342 102T261 20T152 -12Q84 -12 54 31T24 144Z"  />
<glyph unicode="p" horiz-adv-x="481" d="M115 50Q126 45 150 37T208 28Q250 28 284 59T341 138T378 244T391 358Q391 401 381 413T348 425Q323 425 291 405T229 349T172 260T133 142L115 50ZM69 418Q84 428 100 438T130 456T156 470T174 476Q193 476 193 455Q193 444 189 424T178 373L158 281H160Q179 315 204 350T260 413T324 458T395 476Q426 476 441 457T457 382Q457 287 430 214T359 90T264 14T163 -12Q140 -12 127 -9T103 -3Q100 -18 93 -51T79 -123T66 -199T59 -260Q45 -261 25 -264T-5 -273L-14 -267Q-8 -246 4 -198T31 -82T63 71T97 252Q105 297 111 336T118 399Q118 411 108 411Q101 411 90 405T62 388L22 362H19L14 381V384L69 418Z"  />
<glyph unicode="q" horiz-adv-x="481" d="M318 186H316Q296 150 267 115T204 51T139 6T80 -12Q24 -12 24 80Q24 128 33 175T57 264T88 336T120 385Q132 399 152 415T198 444T250 467T304 476Q336 476 361 470T405 458L436 476L445 470Q431 435 421 394T397 296Q373 191 356 96T326 -73T307 -196T298 -258Q282 -260 259 -264T222 -273L216 -264Q228 -253 235 -225T253 -148L318 186ZM90 109Q90 97 91 85T95 62T106 46T126 39Q149 39 176 58T230 107T280 170T317 232Q323 244 329 265T342 311T355 363T366 415Q347 421 326 426T273 431Q226 431 206 420T175 395Q158 371 143 335T116 259T97 179T90 109Z"  />
<glyph unicode="r" horiz-adv-x="370" d="M76 418Q91 429 107 439T137 458T163 471T182 476Q193 476 196 468T200 449Q200 437 197 420T187 375L159 252H161Q167 264 178 285T204 331T239 382T281 428T327 462T376 476Q387 476 393 473L396 468Q387 452 383 424T378 377H360Q360 382 358 386T352 394Q344 401 328 401Q298 401 263 367T197 278T143 151T115 4Q101 2 82 -2T51 -12L44 0Q51 21 60 55T79 130T97 212T113 291T124 357T128 399Q128 412 118 412Q112 412 97 404T65 384L32 362H29L20 377V380L76 418Z"  />
<glyph unicode="s" horiz-adv-x="370" d="M49 58Q63 47 86 36T150 24Q200 24 232 54T265 137Q265 156 259 168T240 188T207 200T160 208Q142 210 122 214T84 228T54 256T42 305Q42 342 63 373T114 428T180 463T243 476Q278 476 298 469T329 456L331 452Q326 439 323 425T316 396T311 370T308 350L305 347H287L284 350L290 409Q279 416 258 423T198 431Q151 431 127 405T102 336Q102 319 105 307T118 286T144 272T188 263L215 260Q248 256 269 249T303 229T320 199T325 159Q325 129 307 99T259 44T191 4T112 -12Q76 -12 50 -6T11 3L9 7Q13 20 16 36T23 70T28 103T31 129L34 132H52L55 129L49 58Z"  />
<glyph unicode="t" horiz-adv-x="296" d="M129 388Q108 386 88 386T46 382L42 385L45 401L50 405Q67 407 93 418T139 441Q147 477 154 521T164 601Q180 603 199 611T229 627L237 620Q230 601 224 577T213 527T203 478T196 436Q209 436 224 436T255 438T282 440T303 444L309 439Q304 429 299 415T291 388Q281 388 267 388T239 389T212 390T188 391L145 157Q140 125 136 103T131 63Q131 54 133 48T144 42Q152 42 172 54T214 84L242 106H245L256 92V89L222 62Q178 27 145 8T87 -12Q59 -12 59 16Q59 30 62 48T71 96L129 388Z"  />
<glyph unicode="u" horiz-adv-x="519" d="M69 414Q85 424 102 435T136 455T167 470T189 476Q197 476 203 471T209 454Q209 439 203 418T190 367L179 319Q162 245 152 201T136 132T128 96T126 77Q126 64 129 56T144 48Q153 48 171 59T211 90T258 138T306 199Q330 234 347 271T376 342T392 407T399 459Q406 460 415 462T433 466T449 471T461 476L469 468Q460 446 450 411T430 335T411 253T395 174T384 111T380 73Q380 48 394 48Q401 48 413 55T448 79L476 99H479L485 82V79L454 56Q440 45 423 33T388 11T356 -5T332 -12Q311 -12 311 9Q311 24 315 46T327 112L350 225H348Q321 179 287 137T217 61T148 8T93 -12Q70 -12 64 2T57 33Q57 41 59 53T67 96T84 179T116 322Q122 348 126 370T131 406Q131 417 123 417Q115 417 103 410T62 384L36 367H33L27 382V385L69 414Z"  />
<glyph unicode="v" horiz-adv-x="481" d="M358 471Q360 473 366 474T384 476Q420 476 437 448T455 377Q455 343 445 301T415 215T370 131T311 58T244 7T170 -12Q139 -12 118 -2T83 27T64 69T58 121Q58 169 77 217T122 306T174 378T213 425L211 427Q203 422 187 418T155 414Q137 414 124 417T93 420Q77 420 68 417T54 411L26 354L22 351H7L4 354Q7 362 12 374T22 402T33 433T42 464Q59 471 97 471Q126 471 149 467T200 462Q223 462 236 466T257 473L267 464Q252 447 228 414T180 337T141 242T124 138Q124 84 144 59T200 33Q240 33 275 62T337 136T379 236T395 343Q395 378 388 400T359 422Q343 422 331 414T309 399H306L296 409V412L358 471Z"  />
<glyph unicode="w" horiz-adv-x="704" d="M26 354L22 351H7L4 354Q7 362 12 374T22 402T33 433T42 464Q59 471 97 471Q126 471 149 467T200 462Q223 462 236 466T257 473L267 464Q252 447 228 414T180 335T141 234T124 120Q124 80 137 57T179 33Q212 33 243 70T300 166T348 301T382 454Q396 456 415 462T446 473L453 468Q439 427 425 378T400 280T383 188T376 116Q376 75 389 54T435 33Q467 33 499 59T557 128T599 227T615 343Q615 378 608 400T579 422Q563 422 551 414T529 399H526L516 409V412L578 471Q580 473 586 474T604 476Q640 476 657 448T675 377Q675 315 650 247T585 121T497 26T401 -12Q359 -12 341 17T322 91Q322 114 324 133T330 170H328Q316 143 299 111T260 52T209 7T146 -12Q102 -12 80 23T58 121Q58 169 77 217T122 306T174 378T213 425L211 427Q203 422 187 418T155 414Q137 414 124 417T93 420Q77 420 68 417T54 411L26 354Z"  />
<glyph unicode="x" horiz-adv-x="426" d="M240 258L271 101Q282 45 307 45Q326 45 346 59T391 92H394L402 78V75L355 34Q334 16 314 2T266 -12Q243 -12 232 11T212 77L194 177H192L113 63Q87 25 64 7T14 -12Q1 -12 -9 -8T-26 -2Q-24 5 -22 16T-17 41T-13 66T-11 88L-8 91L5 93L8 90L12 56Q22 48 40 48Q50 48 61 54T82 71T103 94T122 120L189 212L162 350Q157 374 148 395T117 416Q98 416 81 403T46 367H43L29 375L28 378Q33 384 40 394T54 415T66 436T74 451Q82 458 99 467T142 476Q169 476 187 459T214 400L234 289L287 376Q312 417 343 446T407 476Q418 476 426 474T439 470Q433 453 430 430T426 393L423 390L411 388L408 390Q407 399 402 407T382 416Q364 416 344 403T300 355L240 258Z"  />
<glyph unicode="y" horiz-adv-x="481" d="M57 427Q86 447 111 461T149 476Q166 476 171 463T176 426Q176 414 176 399T174 362T169 308T162 230Q158 188 156 149T154 87Q154 51 175 51Q185 51 204 67T246 109T291 167T329 232Q343 261 354 293T374 356T388 414T398 461Q414 462 433 466T464 476L471 468Q460 450 449 414T425 338L392 225Q369 145 346 63T284 -92Q267 -125 244 -157T194 -215T137 -257T76 -273Q49 -273 29 -261T0 -225Q-3 -214 -4 -202T-5 -180Q6 -174 20 -164T42 -145L54 -150Q52 -155 51 -160T49 -176Q49 -184 52 -194T62 -212T80 -227T108 -233Q142 -233 170 -206T224 -126T273 2T321 174H319Q301 146 277 114T227 53T177 7T133 -12Q110 -12 101 5T91 50Q91 73 93 96T97 140L108 290Q110 311 111 334T113 376Q113 416 92 416Q85 416 74 411T41 392L16 376H13L7 390V393L57 427Z"  />
<glyph unicode="z" horiz-adv-x="370" d="M306 400L304 402Q299 400 291 400T275 398Q266 397 257 397T241 397Q222 397 189 403Q177 405 166 407T142 409Q131 409 122 408T104 405L74 348L70 346H54L51 349Q62 372 72 402T88 459Q95 462 107 467T146 472Q165 472 185 468T225 457T264 447T302 442Q329 442 345 453T372 476L384 472V444L52 62L54 60Q66 64 78 66T108 68Q124 68 141 66T176 59Q193 56 209 54T238 51Q258 51 267 53T281 57L307 121L310 124H328L331 121Q328 113 323 97T313 62T303 25T296 -4Q283 -7 270 -9T236 -12Q213 -12 193 -7T149 4Q123 10 103 15T57 20Q29 20 11 10T-21 -12H-24L-35 6V9L306 400Z"  />
<glyph unicode="{" horiz-adv-x="315" d="M185 575Q191 613 201 641T230 689T277 717T347 727L344 715Q316 709 298 697T268 668T250 629T240 583L219 448Q215 422 209 400T192 361T163 330T116 310V308Q151 298 166 279T182 233Q182 219 180 203T175 170L154 37Q151 20 151 6T150 -23Q150 -53 166 -71T220 -97L217 -109Q149 -109 123 -85T96 -10Q96 2 97 15T101 43L124 186Q126 198 127 208T128 228Q128 258 116 278T68 309Q93 316 109 327T136 354T152 388T162 432L185 575Z"  />
<glyph unicode="|" horiz-adv-x="222" d="M87 750H135V-250H87V750Z"  />
<glyph unicode="}" horiz-adv-x="315" d="M148 43Q142 5 132 -23T103 -71T56 -99T-14 -109L-11 -97Q17 -91 35 -79T65 -50T83 -11T93 35L114 170Q118 196 124 218T141 257T170 288T217 308V310Q182 320 167 339T151 385Q151 399 153 415T158 448L179 581Q182 598 182 612T183 641Q183 671 167 689T113 715L116 727Q184 727 210 703T237 628Q237 616 236 603T232 575L209 432Q207 420 206 410T205 390Q205 360 217 340T265 309Q215 294 197 265T171 186L148 43Z"  />
<glyph unicode="~" horiz-adv-x="600" d="M69 227Q77 243 88 258T115 286T149 305T194 313Q222 313 251 304T309 279Q337 265 363 255T410 245Q424 245 435 251T457 267T477 289T495 313L531 283Q523 267 512 252T485 224T451 205T406 197Q378 197 349 206T291 231Q263 245 237 255T190 265Q176 265 165 259T143 243T123 221T105 197L69 227Z"  />
<glyph unicode="&#xA0;" horiz-adv-x="250" />
<glyph unicode="&#xA1;" horiz-adv-x="278" d="M165 289L173 284Q169 260 163 221T151 136T138 38T126 -59T116 -145T110 -209Q100 -211 88 -214T64 -221T42 -231T25 -240L18 -233Q33 -178 50 -112T83 23T114 156T140 277L165 289ZM134 409Q134 437 150 456T186 476Q205 476 213 465T222 437Q222 409 206 390T170 370Q151 370 143 381T134 409Z"  />
<glyph unicode="&#xA2;" horiz-adv-x="500" d="M330 427Q328 428 317 428Q287 428 266 420T229 396T202 361T183 316Q164 261 158 219T152 139Q152 110 160 87T186 49L330 427ZM213 36Q222 33 234 33Q278 33 317 54T393 108H396L404 93V90L348 46Q315 22 277 5T203 -12Q197 -12 195 -11L189 -26Q183 -42 176 -61T165 -92L162 -95H135L132 -92Q137 -81 144 -61T160 -20L165 -6Q125 5 106 42T86 137Q86 209 104 263T139 347Q147 362 167 383T215 425T278 460T349 476L351 481Q359 500 365 517T374 545L377 548H404L407 545Q402 538 396 521T380 479L378 474Q398 472 411 466T433 455L436 450Q430 439 426 423T420 390T416 358T415 332L412 329H394L391 332V413Q386 415 379 418T359 423L213 36Z"  />
<glyph unicode="&#xA3;" horiz-adv-x="500" d="M434 622Q423 627 401 635T346 644Q308 644 282 630T239 583T212 493T196 352H246Q257 352 272 352T303 354T332 356T354 358L358 353Q354 348 352 337T349 319L345 316Q331 318 308 318T255 319H192Q190 298 187 269T174 205T149 134T105 60Q122 61 137 61T170 62Q186 62 210 61T259 57T307 53T348 51Q371 51 388 53T412 57Q417 66 422 77T431 99T439 119T445 135L448 138H467L470 135Q466 122 462 105T453 70T446 34T440 0Q430 -5 412 -10T375 -15Q348 -15 313 -6T233 11Q193 19 154 25T84 32Q71 18 51 5T13 -15H-4L3 35Q11 39 26 45T74 57Q89 79 98 101T112 153T120 221T126 319H94Q77 319 64 319T42 316L38 319Q44 332 46 350L52 354Q62 352 95 352H127Q129 381 131 416T136 478Q140 509 151 535T192 591Q202 601 219 618T261 650T315 677T382 689Q417 689 443 681T480 665L483 661Q478 651 474 636T467 603T462 568T458 538L455 535H437L434 538V622Z"  />
<glyph unicode="&#xA4;" horiz-adv-x="500" d="M87 214Q61 245 50 280T38 353Q38 390 49 426T89 492L38 544L73 579L124 529Q154 555 191 567T264 579Q302 579 338 567T404 529L455 579L490 544L441 495Q467 465 478 428T490 353Q490 316 479 281T442 213L490 162L455 127L407 180Q376 152 340 140T264 127Q226 127 190 139T121 180L73 127L38 162L87 214ZM86 353Q86 316 100 284T138 227T194 189T264 175Q301 175 333 189T390 227T428 283T442 353Q442 390 428 422T390 479T334 517T264 531Q227 531 195 517T138 479T100 423T86 353Z"  />
<glyph unicode="&#xA5;" horiz-adv-x="500" d="M556 614Q521 611 490 587T430 526T378 443T332 349Q321 324 314 304T304 269H447L450 266L441 238L437 235H297L287 171H433L436 168L427 140L423 137H282Q274 97 273 80T271 58Q271 41 281 34T312 25L340 23L342 20L338 0L335 -3Q330 -3 319 -3T294 -2T265 -1T236 0Q202 0 176 -1T133 -3L130 0L135 20L137 23L162 25Q186 27 196 36T212 71L223 137H76L73 140L82 168L86 171H228L237 235H90L87 238L96 266L100 269H238Q237 290 231 324T216 398T195 478T168 552T136 605T101 626Q91 626 83 624T67 616L56 609L53 612L50 634L53 638Q59 641 68 646T86 659T104 675T119 689Q150 689 173 670T215 607T251 490T286 308H288Q302 350 327 408T386 524T465 627T562 689L556 614Z"  />
<glyph unicode="&#xA6;" horiz-adv-x="222" d="M87 175H135V-175H87V175ZM87 675H135V325H87V675Z"  />
<glyph unicode="&#xA7;" horiz-adv-x="500" d="M59 -130Q63 -134 74 -142T101 -158T137 -172T179 -178Q212 -178 239 -166T286 -134T317 -88T328 -34Q328 -13 321 2T295 34T240 71T148 123Q89 155 66 189T42 261Q42 288 51 311T77 355T113 391T156 419Q139 433 124 453T109 508Q109 542 125 577T171 640T239 686T326 704Q373 704 406 694T454 674L457 670Q444 638 437 604T427 543L424 540H409L406 543V632Q392 641 366 652T302 664Q270 664 245 654T201 626T173 586T163 540Q163 518 171 501T199 467T249 431T327 385Q354 370 375 357T411 328T434 293T442 247Q442 203 418 166T330 91Q338 85 347 77T364 57T377 29T382 -8Q382 -43 364 -80T315 -147T242 -198T151 -218Q100 -218 63 -202T9 -172L6 -167Q12 -155 17 -138T26 -103T34 -67T38 -38L41 -35H56L59 -38V-130ZM307 106Q322 116 336 128T362 154T381 186T388 225Q388 261 362 284T289 336L179 401Q168 394 154 384T127 359T105 326T96 284Q96 249 114 227T174 181L307 106Z"  />
<glyph unicode="&#xA8;" horiz-adv-x="278" d="M75 645Q75 662 88 675T119 689Q136 689 149 676T163 645Q163 627 150 614T119 601Q102 601 89 614T75 645ZM258 645Q258 662 271 675T302 689Q319 689 332 676T346 645Q346 627 333 614T302 601Q285 601 272 614T258 645Z"  />
<glyph unicode="&#xA9;" horiz-adv-x="800" d="M41 344Q41 419 69 484T146 598T260 675T400 704Q474 704 539 676T653 599T730 485T759 344Q759 270 731 205T654 90T540 13T400 -15Q326 -15 261 13T146 90T69 204T41 344ZM532 439Q532 455 527 471T508 499T472 520T416 528Q338 528 299 480T259 355Q258 272 299 221T425 169Q453 169 474 176T510 194T535 221T552 253H567L550 182Q548 174 538 169T511 158Q494 153 470 149T414 145Q357 145 316 161T248 206T209 271T196 351Q196 394 211 430T256 494T327 536T420 552Q461 552 487 546T531 534Q550 526 550 507V439H532ZM92 344Q92 279 116 223T181 124T279 58T400 33Q464 33 520 57T618 124T684 222T708 344Q708 408 684 465T619 564T521 631T400 656Q335 656 279 632T182 565T116 465T92 344Z"  />
<glyph unicode="&#xAA;" horiz-adv-x="289" d="M329 448V446L302 428Q282 414 264 405T233 396Q224 396 220 401T215 412Q215 423 217 433T223 459L236 513H234Q221 494 202 474T161 436T118 407T82 396Q48 396 48 452Q48 479 55 507T73 559T94 601T111 629Q114 633 126 643T155 663T193 681T234 689Q257 689 272 686T298 677L318 689L323 684Q314 667 304 630T283 554T267 484T260 448Q260 432 269 432Q281 432 303 446L322 458H324L329 448ZM96 466Q96 447 99 440T110 432Q121 432 137 442T171 468T204 500T229 532Q238 543 245 561T257 596T266 628T270 648Q262 651 249 653T216 656Q193 656 179 655T156 646T140 624T124 583Q113 554 105 522T96 466Z"  />
<glyph unicode="&#xAB;" horiz-adv-x="481" d="M231 58V55L217 46H214Q199 67 179 92T139 142T98 189T62 228L65 246Q87 262 113 284T164 329T214 374T258 416H261L272 405V402L133 231L231 58ZM398 58V55L384 46H381Q366 67 346 92T306 142T265 189T229 228L232 246Q254 262 280 284T331 329T381 374T425 416H428L439 405V402L300 231L398 58Z"  />
<glyph unicode="&#xAC;" horiz-adv-x="600" d="M505 327H47V375H553V111H505V327Z"  />
<glyph unicode="&#xAD;" horiz-adv-x="370" d="M52 220Q64 246 69 280Q103 274 185 274Q222 274 258 275T313 280L316 275Q310 264 305 246T297 214Q290 215 277 216T248 218T214 219T179 220Q134 220 105 218T60 214L52 220Z"  />
<glyph unicode="&#xAE;" horiz-adv-x="800" d="M236 173Q261 173 274 180T288 217V472Q288 495 275 504T236 514V532H406Q471 532 501 508T532 440Q532 398 508 370T447 331L517 228Q533 205 548 189T590 173V155H535Q517 155 504 165T472 202L390 324H339V217Q339 188 352 181T397 173V155H236V173ZM339 342H393Q433 342 452 366T472 434Q472 476 448 495T377 514H339V342ZM41 344Q41 419 69 484T146 598T260 675T400 704Q474 704 539 676T653 599T730 485T759 344Q759 270 731 205T654 90T540 13T400 -15Q326 -15 261 13T146 90T69 204T41 344ZM92 344Q92 279 116 223T181 124T279 58T400 33Q464 33 520 57T618 124T684 222T708 344Q708 408 684 465T619 564T521 631T400 656Q335 656 279 632T182 565T116 465T92 344Z"  />
<glyph unicode="&#xAF;" horiz-adv-x="278" d="M65 646H348L340 606H57L65 646Z"  />
<glyph unicode="&#xB0;" horiz-adv-x="400" d="M103 540Q103 570 114 596T144 642T189 672T246 683Q276 683 302 672T348 642T378 597T389 540Q389 510 378 484T348 438T303 408T246 397Q216 397 190 408T144 438T114 483T103 540ZM148 540Q148 519 155 500T176 467T208 445T246 437Q266 437 284 445T315 467T336 500T344 540Q344 561 337 580T316 613T284 635T246 643Q226 643 208 635T177 613T156 580T148 540Z"  />
<glyph unicode="&#xB1;" horiz-adv-x="600" d="M276 274H47V322H276V506H324V322H553V274H324V90H276V274ZM47 48H553V0H47V48Z"  />
<glyph unicode="&#xB2;" horiz-adv-x="325" d="M139 659Q153 668 173 675T225 683Q274 683 303 659T332 596Q332 558 318 529T275 468T203 400T102 309V307Q119 305 140 305T192 304Q224 304 249 306T300 312L302 310Q297 301 295 290T291 268Q261 268 232 269T172 271Q137 271 104 270T36 268L34 270V278Q104 339 151 383T228 462T271 524T284 579Q284 598 278 611T261 632T239 643T213 647Q192 647 177 641T150 626T130 606T114 584H112L101 589V591L139 659Z"  />
<glyph unicode="&#xB3;" horiz-adv-x="325" d="M139 665Q153 673 173 678T211 683Q250 683 280 664T311 607Q311 572 285 544T213 502V500Q228 499 246 495T279 481T304 452T314 406Q314 373 299 346T258 300T199 271T132 261Q96 261 74 271T38 289Q40 295 42 305T45 327T48 349T49 365L53 367H73L76 365Q70 353 70 335Q70 327 73 318T84 301T107 288T143 282Q174 282 197 293T234 320T256 357T263 398Q263 416 260 431T247 458T219 477T173 484Q159 484 146 482T122 476L119 479L129 508Q141 505 158 505Q214 505 240 532T266 595Q266 621 248 635T201 650Q167 650 146 633T111 598H110L98 604V606L139 665Z"  />
<glyph unicode="&#xB4;" horiz-adv-x="278" d="M280 675Q303 696 315 699T332 703Q344 703 351 695T358 677Q358 664 348 656T330 642L168 538H132L280 675Z"  />
<glyph unicode="&#xB5;" horiz-adv-x="519" d="M69 414Q85 424 102 435T136 455T167 470T189 476Q197 476 203 471T209 454Q209 439 203 418T190 367L179 319Q162 245 152 201T136 132T128 96T126 77Q126 64 129 56T144 48Q153 48 171 59T211 90T258 138T306 199Q330 234 347 271T376 342T392 407T399 459Q406 460 415 462T433 466T449 471T461 476L469 468Q460 446 450 411T430 335T411 253T395 174T384 111T380 73Q380 48 394 48Q401 48 413 55T448 79L476 99H479L485 82V79L454 56Q440 45 423 33T388 11T356 -5T332 -12Q311 -12 311 9Q311 24 315 46T327 112L350 225H348Q322 180 287 138T218 62T157 8T119 -12Q112 -12 109 -11T102 -5Q99 -19 93 -52T79 -123T66 -199T59 -260Q45 -261 25 -264T-5 -273L-14 -267Q-4 -235 16 -149T59 63L116 322Q122 348 126 370T131 406Q131 417 123 417Q115 417 103 410T62 384L36 367H33L27 382V385L69 414Z"  />
<glyph unicode="&#xB6;" horiz-adv-x="600" d="M316 659Q269 659 237 641T185 592T156 523T147 442Q147 373 177 340T261 307L316 659ZM354 -115Q352 -126 351 -133T350 -148Q350 -167 365 -174T428 -185L425 -203H292L426 659H364L230 -203H97L100 -185Q132 -183 150 -179T177 -168T189 -148T196 -115L257 277Q80 277 81 439Q81 562 142 625T325 689H564L561 671Q529 669 511 665T484 654T472 634T465 601L354 -115Z"  />
<glyph unicode="&#xB7;" horiz-adv-x="250" d="M75 313Q75 334 89 348T125 363Q146 363 160 349T175 313Q175 292 161 278T125 263Q104 263 90 277T75 313Z"  />
<glyph unicode="&#xB8;" horiz-adv-x="278" d="M171 -1L126 -71L128 -73Q143 -67 168 -67Q200 -67 216 -83T232 -128Q232 -151 220 -167T188 -193T147 -208T107 -213Q80 -213 58 -208T21 -196V-193L33 -173L37 -171Q48 -176 64 -179T98 -183Q129 -183 150 -171T172 -136Q172 -116 157 -107T124 -97Q99 -97 83 -103L78 -98L138 -1H171Z"  />
<glyph unicode="&#xB9;" horiz-adv-x="325" d="M194 562Q199 586 202 606T208 640L84 586L82 589Q86 597 88 608T92 628Q106 629 137 638T203 660Q223 667 240 674T262 683L272 678Q267 664 259 627T240 542T221 443T204 349Q201 332 199 322T197 306Q197 298 206 295T238 290L275 288L278 285L274 271L270 268Q245 268 219 269T167 271Q140 271 114 270T62 268L59 271L62 285L65 288L93 290Q116 292 125 295T138 306Q143 324 147 338T156 374L194 562Z"  />
<glyph unicode="&#xBA;" horiz-adv-x="266" d="M106 483Q106 448 119 433T159 417Q184 417 204 433T238 474T259 528T267 584Q267 616 255 640T208 665Q184 665 165 651T133 612T113 554T106 483ZM58 489Q58 528 70 564T103 628T155 672T224 689Q250 689 267 682T295 662T310 633T315 600Q315 559 303 523T268 458T214 413T144 396Q98 396 78 421T58 489Z"  />
<glyph unicode="&#xBB;" horiz-adv-x="481" d="M250 404V407L264 416H267Q282 395 302 370T342 320T383 273T419 234L416 216Q394 199 368 178T317 133T267 88T223 46H220L209 57V60L348 231L250 404ZM83 404V407L97 416H100Q115 395 135 370T175 320T216 273T252 234L249 216Q227 199 201 178T150 133T100 88T56 46H53L42 57V60L181 231L83 404Z"  />
<glyph unicode="&#xBC;" horiz-adv-x="750" d="M484 115Q464 115 447 115T418 112L415 116V131Q433 157 462 198T524 280T587 357T637 407Q648 407 659 408T682 412L690 409Q685 398 680 372T666 308L634 145Q667 145 684 146T711 149L714 147Q710 142 707 133T703 115L701 112Q693 113 675 114T628 115L620 70Q617 47 617 36Q617 28 625 24T653 18H685L688 15L684 0L681 -3Q633 0 581 0Q530 0 478 -3L476 0L480 15L483 18H517Q538 20 546 23T558 29Q563 34 565 45T570 68L580 115H484ZM604 250Q611 285 619 318T632 371L630 372L609 345Q592 325 569 296T522 237T481 183T456 148L457 145H583L604 250ZM596 698L599 701H639L642 698L192 -30L189 -33H148L145 -30L596 698ZM171 562Q176 586 179 606T185 640L61 586L59 589Q63 597 65 608T69 628Q83 629 114 638T180 660Q200 667 217 674T239 683L249 678Q244 664 236 627T217 542T198 443T181 349Q178 332 176 322T174 306Q174 298 183 295T215 290L252 288L255 285L251 271L247 268Q222 268 196 269T144 271Q117 271 91 270T39 268L36 271L39 285L42 288L70 290Q93 292 102 295T115 306Q120 324 124 338T133 374L171 562Z"  />
<glyph unicode="&#xBD;" horiz-adv-x="750" d="M576 698L579 701H619L622 698L172 -30L169 -33H128L125 -30L576 698ZM171 562Q176 586 179 606T185 640L61 586L59 589Q63 597 65 608T69 628Q83 629 114 638T180 660Q200 667 217 674T239 683L249 678Q244 664 236 627T217 542T198 443T181 349Q178 332 176 322T174 306Q174 298 183 295T215 290L252 288L255 285L251 271L247 268Q222 268 196 269T144 271Q117 271 91 270T39 268L36 271L39 285L42 288L70 290Q93 292 102 295T115 306Q120 324 124 338T133 374L171 562ZM521 388Q535 397 555 404T607 412Q656 412 685 388T714 325Q714 287 700 258T657 197T585 129T484 38V36Q501 34 522 34T574 33Q606 33 631 35T682 41L684 39Q679 30 677 19T673 -3Q643 -3 614 -2T554 0Q519 0 486 -1T418 -3L416 -1V7Q486 68 533 112T610 191T653 253T666 308Q666 327 660 340T643 361T621 372T595 376Q574 376 559 370T532 355T512 335T496 313H494L483 318V320L521 388Z"  />
<glyph unicode="&#xBE;" horiz-adv-x="750" d="M484 115Q464 115 447 115T418 112L415 116V131L463 199Q492 240 521 274T574 340Q592 363 610 381T637 407Q648 407 659 408T682 412L690 409Q685 398 680 372T666 308L634 145Q667 145 684 146T711 149L714 147Q710 142 707 133T703 115L701 112Q693 113 675 114T628 115L620 70Q617 47 617 36Q617 28 625 24T653 18H685L688 15L684 0L681 -3Q633 0 581 0Q530 0 478 -3L476 0L480 15L483 18H517Q538 20 546 23T558 29Q563 34 565 45T570 68L580 115H484ZM604 250Q611 285 619 318T632 371L630 372L609 345Q592 325 569 296T522 237T481 183T456 148L457 145H583L604 250ZM596 698L599 701H639L642 698L192 -30L189 -33H148L145 -30L596 698ZM137 665Q151 673 171 678T209 683Q248 683 278 664T309 607Q309 572 283 544T211 502V500Q226 499 244 495T277 481T302 454T312 409Q312 376 297 349T256 303T197 274T130 264Q94 264 72 274T36 292Q38 298 40 308T43 330T46 352T47 368L51 370H71L74 368Q68 356 68 338Q68 330 71 321T82 304T105 291T141 285Q172 285 195 296T232 323T254 360T261 401Q261 417 258 432T245 459T217 477T171 484Q157 484 144 482T120 476L117 479L127 508Q139 505 156 505Q212 505 238 532T264 595Q264 621 246 635T199 650Q165 650 144 633T109 598H108L96 604V606L137 665Z"  />
<glyph unicode="&#xBF;" horiz-adv-x="389" d="M204 279Q215 274 228 259T242 216Q242 197 236 181T218 146T185 106T138 55Q91 5 69 -28T46 -97Q46 -114 51 -129T69 -158T99 -178T144 -186Q169 -186 187 -180T218 -161T242 -133T262 -98L265 -95L282 -102L285 -105Q274 -125 262 -153T240 -208Q223 -219 198 -229T136 -240Q101 -240 72 -230T23 -202T-9 -160T-20 -106Q-20 -79 -14 -58T8 -16T47 29T107 86Q145 122 165 144T196 180T207 202T209 217Q209 240 199 249T180 264L182 273L204 279ZM197 409Q197 437 213 456T249 476Q268 476 276 465T285 437Q285 409 269 390T233 370Q214 370 206 381T197 409Z"  />
<glyph unicode="&#xC0;" horiz-adv-x="667" d="M408 700H453L558 109Q563 85 566 67T577 38Q586 27 617 25L644 23L647 20L642 0L639 -3Q619 -2 592 -1T532 0Q503 0 472 -1T405 -3L402 0L405 20L408 23L450 25Q468 26 477 31T490 44Q493 52 491 70T484 117L458 275Q435 276 402 276T331 277Q293 277 262 277T204 275L110 101Q100 83 95 71T89 47Q89 35 99 31T139 25L174 23L177 20L173 0L170 -3Q135 -2 107 -1T55 0Q34 0 5 -1T-51 -3L-54 0L-52 20L-49 23L-24 25Q-5 27 10 38T42 76L408 700ZM401 617H399L222 310Q268 307 340 307Q375 307 404 307T453 310L401 617ZM332 828Q320 838 312 846T304 865Q304 875 312 884T334 894Q346 894 356 886T379 861L485 728H455L332 828Z"  />
<glyph unicode="&#xC1;" horiz-adv-x="667" d="M408 700H453L558 109Q563 85 566 67T577 38Q586 27 617 25L644 23L647 20L642 0L639 -3Q619 -2 592 -1T532 0Q503 0 472 -1T405 -3L402 0L405 20L408 23L450 25Q468 26 477 31T490 44Q493 52 491 70T484 117L458 275Q435 276 402 276T331 277Q293 277 262 277T204 275L110 101Q100 83 95 71T89 47Q89 35 99 31T139 25L174 23L177 20L173 0L170 -3Q135 -2 107 -1T55 0Q34 0 5 -1T-51 -3L-54 0L-52 20L-49 23L-24 25Q-5 27 10 38T42 76L408 700ZM401 617H399L222 310Q268 307 340 307Q375 307 404 307T453 310L401 617ZM510 866Q533 887 545 890T562 894Q574 894 581 886T588 868Q588 855 578 847T560 833L398 729H362L510 866Z"  />
<glyph unicode="&#xC2;" horiz-adv-x="667" d="M408 700H453L558 109Q563 85 566 67T577 38Q586 27 617 25L644 23L647 20L642 0L639 -3Q619 -2 592 -1T532 0Q503 0 472 -1T405 -3L402 0L405 20L408 23L450 25Q468 26 477 31T490 44Q493 52 491 70T484 117L458 275Q435 276 402 276T331 277Q293 277 262 277T204 275L110 101Q100 83 95 71T89 47Q89 35 99 31T139 25L174 23L177 20L173 0L170 -3Q135 -2 107 -1T55 0Q34 0 5 -1T-51 -3L-54 0L-52 20L-49 23L-24 25Q-5 27 10 38T42 76L408 700ZM401 617H399L222 310Q268 307 340 307Q375 307 404 307T453 310L401 617ZM451 894H492L580 729H550L465 837L322 729H289L451 894Z"  />
<glyph unicode="&#xC3;" horiz-adv-x="667" d="M408 700H453L558 109Q563 85 566 67T577 38Q586 27 617 25L644 23L647 20L642 0L639 -3Q619 -2 592 -1T532 0Q503 0 472 -1T405 -3L402 0L405 20L408 23L450 25Q468 26 477 31T490 44Q493 52 491 70T484 117L458 275Q435 276 402 276T331 277Q293 277 262 277T204 275L110 101Q100 83 95 71T89 47Q89 35 99 31T139 25L174 23L177 20L173 0L170 -3Q135 -2 107 -1T55 0Q34 0 5 -1T-51 -3L-54 0L-52 20L-49 23L-24 25Q-5 27 10 38T42 76L408 700ZM401 617H399L222 310Q268 307 340 307Q375 307 404 307T453 310L401 617ZM275 763Q275 771 279 788T294 822T319 852T356 865Q379 865 396 859T439 843Q467 832 485 826T521 819Q535 819 543 824T557 837T566 854T571 869H592Q590 860 585 843T570 810T545 781T507 768Q487 768 468 776T414 797Q391 806 377 811T349 817Q327 817 314 799T296 763H275Z"  />
<glyph unicode="&#xC4;" horiz-adv-x="667" d="M408 700H453L558 109Q563 85 566 67T577 38Q586 27 617 25L644 23L647 20L642 0L639 -3Q619 -2 592 -1T532 0Q503 0 472 -1T405 -3L402 0L405 20L408 23L450 25Q468 26 477 31T490 44Q493 52 491 70T484 117L458 275Q435 276 402 276T331 277Q293 277 262 277T204 275L110 101Q100 83 95 71T89 47Q89 35 99 31T139 25L174 23L177 20L173 0L170 -3Q135 -2 107 -1T55 0Q34 0 5 -1T-51 -3L-54 0L-52 20L-49 23L-24 25Q-5 27 10 38T42 76L408 700ZM401 617H399L222 310Q268 307 340 307Q375 307 404 307T453 310L401 617ZM309 836Q309 853 322 866T353 880Q370 880 383 867T397 836Q397 818 384 805T353 792Q336 792 323 805T309 836ZM492 836Q492 853 505 866T536 880Q553 880 566 867T580 836Q580 818 567 805T536 792Q519 792 506 805T492 836Z"  />
<glyph unicode="&#xC5;" horiz-adv-x="667" d="M408 700H453L558 109Q563 85 566 67T577 38Q586 27 617 25L644 23L647 20L642 0L639 -3Q619 -2 592 -1T532 0Q503 0 472 -1T405 -3L402 0L405 20L408 23L450 25Q468 26 477 31T490 44Q493 52 491 70T484 117L458 275Q435 276 402 276T331 277Q293 277 262 277T204 275L110 101Q100 83 95 71T89 47Q89 35 99 31T139 25L174 23L177 20L173 0L170 -3Q135 -2 107 -1T55 0Q34 0 5 -1T-51 -3L-54 0L-52 20L-49 23L-24 25Q-5 27 10 38T42 76L408 700ZM401 617H399L222 310Q268 307 340 307Q375 307 404 307T453 310L401 617ZM371 816Q371 787 390 767T439 747Q468 747 488 767T508 816Q508 845 488 864T439 884Q410 884 391 865T371 816ZM341 816Q341 860 369 887T439 914Q480 914 509 887T538 816Q538 772 509 745T439 717Q398 717 370 744T341 816Z"  />
<glyph unicode="&#xC6;" horiz-adv-x="889" d="M451 275H214L119 127Q99 96 89 74T78 44Q78 39 79 36T84 31T97 27T122 25L162 23L165 20L160 0L157 -3Q145 -2 113 -1T41 0Q11 0 -15 -1T-61 -3L-64 0L-58 20L-55 23Q-36 24 -24 25T-4 32T13 47T34 77L379 577Q396 600 406 618T417 644Q417 651 412 655T397 660T377 662T356 664L323 666L320 669L325 689L328 692Q351 691 407 690T538 689Q582 689 627 689T715 690T797 691T868 692L871 689Q857 591 856 547L853 544H835L832 547Q831 561 831 577T830 607T826 632T816 646Q807 649 793 651T761 654T725 655T689 656Q616 656 591 653Q586 632 581 609T571 556L540 376H635Q659 376 683 377T728 379T765 381T789 382L795 377L775 333Q766 334 750 335T715 338T674 339T631 340H534L485 37H637Q690 37 731 39T786 50Q797 76 805 106T818 154L821 157H839L842 154Q836 124 830 81T818 0L815 -3Q783 -3 744 -3T662 -2T576 -1T491 0Q470 0 448 0T408 -1T375 -2T356 -3L353 0L357 20L360 23Q386 25 397 34T411 53Q415 67 419 86T427 129L451 275ZM516 654H485Q479 648 465 630T431 586T391 532T351 476L235 308H458L516 654Z"  />
<glyph unicode="&#xC7;" horiz-adv-x="648" d="M330 -15Q207 -7 140 65T67 272Q64 372 97 452T186 588T316 674T464 704Q486 704 512 701T564 693T614 681T656 666L659 663Q655 648 651 630T644 594T639 558T636 529L633 526H615L612 529L606 610Q566 636 525 646T434 656Q348 656 292 624T202 540T156 426T142 300Q142 226 163 175T219 92T296 45T379 30Q408 30 440 36T502 54T559 80T606 109H609L614 103L603 66Q591 56 567 42T510 16T439 -6T363 -15L326 -73Q337 -70 346 -69T368 -67Q400 -67 416 -83T432 -128Q432 -151 420 -167T388 -193T347 -208T307 -213Q280 -213 258 -208T221 -196V-193L233 -173L237 -171Q248 -176 264 -179T298 -183Q329 -183 350 -171T372 -136Q372 -116 357 -107T324 -97Q312 -97 302 -99T283 -103L278 -98L330 -15Z"  />
<glyph unicode="&#xC8;" horiz-adv-x="556" d="M166 539Q171 567 174 590T178 626Q178 643 171 652T136 664L89 666L86 669L90 689L93 692Q122 691 152 690T215 689Q255 689 298 689T384 690T464 691T535 692L538 689Q524 591 523 547L520 544H502L499 547Q498 561 498 577T497 607T493 632T483 646Q474 649 460 651T428 654T392 655T356 656Q283 656 258 653Q253 632 248 609T238 556L207 376H302Q326 376 350 377T395 379T432 381T456 382L462 377L442 333Q433 334 417 335T382 338T341 339T298 340H201L151 37H304Q357 37 398 39T453 50Q464 76 472 106T485 154L488 157H506L509 154Q503 124 497 81T485 0L482 -3Q450 -3 411 -3T329 -2T243 -1T158 0Q137 0 115 0T75 -1T42 -2T23 -3L20 0L24 20L27 23Q53 25 64 34T78 53Q82 67 86 86T94 129L166 539ZM257 828Q245 838 237 846T229 865Q229 875 237 884T259 894Q271 894 281 886T304 861L410 728H380L257 828Z"  />
<glyph unicode="&#xC9;" horiz-adv-x="556" d="M166 539Q171 567 174 590T178 626Q178 643 171 652T136 664L89 666L86 669L90 689L93 692Q122 691 152 690T215 689Q255 689 298 689T384 690T464 691T535 692L538 689Q524 591 523 547L520 544H502L499 547Q498 561 498 577T497 607T493 632T483 646Q474 649 460 651T428 654T392 655T356 656Q283 656 258 653Q253 632 248 609T238 556L207 376H302Q326 376 350 377T395 379T432 381T456 382L462 377L442 333Q433 334 417 335T382 338T341 339T298 340H201L151 37H304Q357 37 398 39T453 50Q464 76 472 106T485 154L488 157H506L509 154Q503 124 497 81T485 0L482 -3Q450 -3 411 -3T329 -2T243 -1T158 0Q137 0 115 0T75 -1T42 -2T23 -3L20 0L24 20L27 23Q53 25 64 34T78 53Q82 67 86 86T94 129L166 539ZM440 866Q463 887 475 890T492 894Q504 894 511 886T518 868Q518 855 508 847T490 833L328 729H292L440 866Z"  />
<glyph unicode="&#xCA;" horiz-adv-x="556" d="M166 539Q171 567 174 590T178 626Q178 643 171 652T136 664L89 666L86 669L90 689L93 692Q122 691 152 690T215 689Q255 689 298 689T384 690T464 691T535 692L538 689Q524 591 523 547L520 544H502L499 547Q498 561 498 577T497 607T493 632T483 646Q474 649 460 651T428 654T392 655T356 656Q283 656 258 653Q253 632 248 609T238 556L207 376H302Q326 376 350 377T395 379T432 381T456 382L462 377L442 333Q433 334 417 335T382 338T341 339T298 340H201L151 37H304Q357 37 398 39T453 50Q464 76 472 106T485 154L488 157H506L509 154Q503 124 497 81T485 0L482 -3Q450 -3 411 -3T329 -2T243 -1T158 0Q137 0 115 0T75 -1T42 -2T23 -3L20 0L24 20L27 23Q53 25 64 34T78 53Q82 67 86 86T94 129L166 539ZM357 894H398L486 729H456L371 837L228 729H195L357 894Z"  />
<glyph unicode="&#xCB;" horiz-adv-x="556" d="M166 539Q171 567 174 590T178 626Q178 643 171 652T136 664L89 666L86 669L90 689L93 692Q122 691 152 690T215 689Q255 689 298 689T384 690T464 691T535 692L538 689Q524 591 523 547L520 544H502L499 547Q498 561 498 577T497 607T493 632T483 646Q474 649 460 651T428 654T392 655T356 656Q283 656 258 653Q253 632 248 609T238 556L207 376H302Q326 376 350 377T395 379T432 381T456 382L462 377L442 333Q433 334 417 335T382 338T341 339T298 340H201L151 37H304Q357 37 398 39T453 50Q464 76 472 106T485 154L488 157H506L509 154Q503 124 497 81T485 0L482 -3Q450 -3 411 -3T329 -2T243 -1T158 0Q137 0 115 0T75 -1T42 -2T23 -3L20 0L24 20L27 23Q53 25 64 34T78 53Q82 67 86 86T94 129L166 539ZM215 836Q215 853 228 866T259 880Q276 880 289 867T303 836Q303 818 290 805T259 792Q242 792 229 805T215 836ZM398 836Q398 853 411 866T442 880Q459 880 472 867T486 836Q486 818 473 805T442 792Q425 792 412 805T398 836Z"  />
<glyph unicode="&#xCC;" horiz-adv-x="315" d="M176 564Q180 584 182 600T184 633Q184 644 177 653T142 664L95 666L92 669L96 689L99 692L221 689L356 692L359 689L356 669L353 666L315 664Q297 663 287 661T270 651T261 632T254 598L173 133Q168 103 166 85T163 57Q163 43 171 35T203 25L255 23L258 20L254 0L251 -3Q219 -2 186 -1T118 0Q86 0 54 -1T-9 -3L-12 0L-8 20L-5 23L43 25Q73 27 82 51T99 125L176 564ZM136 828Q124 838 116 846T108 865Q108 875 116 884T138 894Q150 894 160 886T183 861L289 728H259L136 828Z"  />
<glyph unicode="&#xCD;" horiz-adv-x="315" d="M176 564Q180 584 182 600T184 633Q184 644 177 653T142 664L95 666L92 669L96 689L99 692L221 689L356 692L359 689L356 669L353 666L315 664Q297 663 287 661T270 651T261 632T254 598L173 133Q168 103 166 85T163 57Q163 43 171 35T203 25L255 23L258 20L254 0L251 -3Q219 -2 186 -1T118 0Q86 0 54 -1T-9 -3L-12 0L-8 20L-5 23L43 25Q73 27 82 51T99 125L176 564ZM304 866Q327 887 339 890T356 894Q368 894 375 886T382 868Q382 855 372 847T354 833L192 729H156L304 866Z"  />
<glyph unicode="&#xCE;" horiz-adv-x="315" d="M176 564Q180 584 182 600T184 633Q184 644 177 653T142 664L95 666L92 669L96 689L99 692L221 689L356 692L359 689L356 669L353 666L315 664Q297 663 287 661T270 651T261 632T254 598L173 133Q168 103 166 85T163 57Q163 43 171 35T203 25L255 23L258 20L254 0L251 -3Q219 -2 186 -1T118 0Q86 0 54 -1T-9 -3L-12 0L-8 20L-5 23L43 25Q73 27 82 51T99 125L176 564ZM245 894H286L374 729H344L259 837L116 729H83L245 894Z"  />
<glyph unicode="&#xCF;" horiz-adv-x="315" d="M176 564Q180 584 182 600T184 633Q184 644 177 653T142 664L95 666L92 669L96 689L99 692L221 689L356 692L359 689L356 669L353 666L315 664Q297 663 287 661T270 651T261 632T254 598L173 133Q168 103 166 85T163 57Q163 43 171 35T203 25L255 23L258 20L254 0L251 -3Q219 -2 186 -1T118 0Q86 0 54 -1T-9 -3L-12 0L-8 20L-5 23L43 25Q73 27 82 51T99 125L176 564ZM122 836Q122 853 135 866T166 880Q183 880 196 867T210 836Q210 818 197 805T166 792Q149 792 136 805T122 836ZM305 836Q305 853 318 866T349 880Q366 880 379 867T393 836Q393 818 380 805T349 792Q332 792 319 805T305 836Z"  />
<glyph unicode="&#xD0;" horiz-adv-x="722" d="M132 348H23L21 351L27 378L31 381H138L166 539Q171 567 174 590T178 626Q178 643 171 652T136 664L89 666L86 669L90 689L93 692Q122 691 152 690T215 689Q273 689 320 690T413 692Q474 692 527 678T618 633T679 554T701 436Q701 354 671 275T585 135T454 35T284 -3Q242 -3 209 -2T158 0Q137 0 115 0T75 -1T42 -2T23 -3L20 0L24 20L27 23Q53 25 64 34T78 53Q82 67 86 86T94 129L132 348ZM405 381L407 378L401 351L397 348H202Q188 264 176 185T155 49Q169 46 187 43T223 38T257 34T282 33Q365 31 428 62T534 148T598 273T620 422Q620 541 557 598T371 656Q358 656 342 656T311 655T281 654T258 652Q254 635 249 607T236 544T222 467T208 381H405Z"  />
<glyph unicode="&#xD1;" horiz-adv-x="741" d="M178 619L167 634Q158 647 145 653T106 662L75 666L72 669L76 689L79 692Q97 691 115 690T152 689Q170 689 188 690T225 692Q242 655 266 611T328 503L572 99L648 560Q654 596 655 614T657 641Q657 655 643 658T604 664L572 666L569 669L574 689L577 692Q604 691 631 690T686 689Q713 689 740 690T794 692L797 689L793 669L790 666L748 664Q733 663 725 661T711 647Q703 634 697 606T686 548L619 164Q608 105 602 60T594 -12H549Q542 4 532 23T509 64T485 106T461 147L207 572L134 121Q131 102 129 83T126 51Q126 40 134 33T165 25L209 23L212 20L207 0L204 -3Q177 -2 150 -1T97 0Q70 0 43 -1T-11 -3L-14 0L-9 20L-6 23L23 25Q45 27 56 30T73 48Q81 68 88 101T103 183L178 619ZM288 763Q288 771 292 788T307 822T332 852T369 865Q392 865 409 859T452 843Q480 832 498 826T534 819Q548 819 556 824T570 837T579 854T584 869H605Q603 860 598 843T583 810T558 781T520 768Q500 768 481 776T427 797Q404 806 390 811T362 817Q340 817 327 799T309 763H288Z"  />
<glyph unicode="&#xD2;" horiz-adv-x="741" d="M136 266Q136 216 146 172T181 94T246 41T347 21Q420 21 474 58T564 154T617 286T635 430Q635 548 580 608T423 668Q359 668 313 645T234 585T183 503T153 412T140 328T136 266ZM58 256Q58 346 84 427T160 569T285 667T457 704Q524 704 572 683T651 627T698 545T713 446Q713 345 682 260T597 114T472 19T320 -15Q251 -15 202 4T120 59T73 145T58 256ZM369 828Q357 838 349 846T341 865Q341 875 349 884T371 894Q383 894 393 886T416 861L522 728H492L369 828Z"  />
<glyph unicode="&#xD3;" horiz-adv-x="741" d="M136 266Q136 216 146 172T181 94T246 41T347 21Q420 21 474 58T564 154T617 286T635 430Q635 548 580 608T423 668Q359 668 313 645T234 585T183 503T153 412T140 328T136 266ZM58 256Q58 346 84 427T160 569T285 667T457 704Q524 704 572 683T651 627T698 545T713 446Q713 345 682 260T597 114T472 19T320 -15Q251 -15 202 4T120 59T73 145T58 256ZM517 866Q540 887 552 890T569 894Q581 894 588 886T595 868Q595 855 585 847T567 833L405 729H369L517 866Z"  />
<glyph unicode="&#xD4;" horiz-adv-x="741" d="M136 266Q136 216 146 172T181 94T246 41T347 21Q420 21 474 58T564 154T617 286T635 430Q635 548 580 608T423 668Q359 668 313 645T234 585T183 503T153 412T140 328T136 266ZM58 256Q58 346 84 427T160 569T285 667T457 704Q524 704 572 683T651 627T698 545T713 446Q713 345 682 260T597 114T472 19T320 -15Q251 -15 202 4T120 59T73 145T58 256ZM470 894H511L599 729H569L484 837L341 729H308L470 894Z"  />
<glyph unicode="&#xD5;" horiz-adv-x="741" d="M136 266Q136 216 146 172T181 94T246 41T347 21Q420 21 474 58T564 154T617 286T635 430Q635 548 580 608T423 668Q359 668 313 645T234 585T183 503T153 412T140 328T136 266ZM58 256Q58 346 84 427T160 569T285 667T457 704Q524 704 572 683T651 627T698 545T713 446Q713 345 682 260T597 114T472 19T320 -15Q251 -15 202 4T120 59T73 145T58 256ZM298 763Q298 771 302 788T317 822T342 852T379 865Q402 865 419 859T462 843Q490 832 508 826T544 819Q558 819 566 824T580 837T589 854T594 869H615Q613 860 608 843T593 810T568 781T530 768Q510 768 491 776T437 797Q414 806 400 811T372 817Q350 817 337 799T319 763H298Z"  />
<glyph unicode="&#xD6;" horiz-adv-x="741" d="M136 266Q136 216 146 172T181 94T246 41T347 21Q420 21 474 58T564 154T617 286T635 430Q635 548 580 608T423 668Q359 668 313 645T234 585T183 503T153 412T140 328T136 266ZM58 256Q58 346 84 427T160 569T285 667T457 704Q524 704 572 683T651 627T698 545T713 446Q713 345 682 260T597 114T472 19T320 -15Q251 -15 202 4T120 59T73 145T58 256ZM337 836Q337 853 350 866T381 880Q398 880 411 867T425 836Q425 818 412 805T381 792Q364 792 351 805T337 836ZM520 836Q520 853 533 866T564 880Q581 880 594 867T608 836Q608 818 595 805T564 792Q547 792 534 805T520 836Z"  />
<glyph unicode="&#xD7;" horiz-adv-x="600" d="M270 253L78 444L109 475L300 284L491 475L522 444L332 253L522 61L491 30L300 222L109 30L78 61L270 253Z"  />
<glyph unicode="&#xD8;" horiz-adv-x="741" d="M594 588Q541 668 423 668Q359 668 313 645T234 585T183 503T153 412T140 328T136 266Q136 190 158 134L594 588ZM105 79Q81 114 70 158T58 256Q58 346 84 427T160 569T285 667T457 704Q519 704 564 686T641 638L727 727H730L753 704V701L665 610Q690 575 701 534T713 446Q713 345 682 260T597 114T472 19T320 -15Q254 -15 207 2T129 52L44 -37H41L18 -15V-12L105 79ZM176 101Q200 64 241 43T347 21Q420 21 474 58T564 154T617 286T635 430Q635 506 612 555L176 101Z"  />
<glyph unicode="&#xD9;" horiz-adv-x="741" d="M157 548Q161 572 164 594T168 628Q168 643 160 652T119 664L82 666L79 669L83 689L86 692Q103 691 120 690T166 689Q199 689 222 690T256 692Q250 672 245 644T234 586L169 220Q166 203 164 187T162 150Q162 97 194 67T291 36Q334 36 370 48T437 79T494 122T543 169L606 542Q611 571 613 589T616 629Q616 649 603 655T563 664L529 666L526 669L530 689L533 692Q558 691 588 690T655 689Q695 689 730 690T785 692L788 689L784 669L781 666L747 664Q727 663 716 660T698 650T690 629T683 593L603 133Q600 113 597 93T593 61Q593 41 607 34T648 25L680 23L683 20L679 0L676 -3Q659 -2 640 -1T600 0Q580 0 560 -1T520 -3L514 3L537 120L535 122Q512 97 482 73T418 29T344 -3T264 -15Q235 -15 205 -7T150 20T109 69T93 144Q93 157 95 174T100 210T106 246T111 276L157 548ZM339 828Q327 838 319 846T311 865Q311 875 319 884T341 894Q353 894 363 886T386 861L492 728H462L339 828Z"  />
<glyph unicode="&#xDA;" horiz-adv-x="741" d="M157 548Q161 572 164 594T168 628Q168 643 160 652T119 664L82 666L79 669L83 689L86 692Q103 691 120 690T166 689Q199 689 222 690T256 692Q250 672 245 644T234 586L169 220Q166 203 164 187T162 150Q162 97 194 67T291 36Q334 36 370 48T437 79T494 122T543 169L606 542Q611 571 613 589T616 629Q616 649 603 655T563 664L529 666L526 669L530 689L533 692Q558 691 588 690T655 689Q695 689 730 690T785 692L788 689L784 669L781 666L747 664Q727 663 716 660T698 650T690 629T683 593L603 133Q600 113 597 93T593 61Q593 41 607 34T648 25L680 23L683 20L679 0L676 -3Q659 -2 640 -1T600 0Q580 0 560 -1T520 -3L514 3L537 120L535 122Q512 97 482 73T418 29T344 -3T264 -15Q235 -15 205 -7T150 20T109 69T93 144Q93 157 95 174T100 210T106 246T111 276L157 548ZM502 866Q525 887 537 890T554 894Q566 894 573 886T580 868Q580 855 570 847T552 833L390 729H354L502 866Z"  />
<glyph unicode="&#xDB;" horiz-adv-x="741" d="M157 548Q161 572 164 594T168 628Q168 643 160 652T119 664L82 666L79 669L83 689L86 692Q103 691 120 690T166 689Q199 689 222 690T256 692Q250 672 245 644T234 586L169 220Q166 203 164 187T162 150Q162 97 194 67T291 36Q334 36 370 48T437 79T494 122T543 169L606 542Q611 571 613 589T616 629Q616 649 603 655T563 664L529 666L526 669L530 689L533 692Q558 691 588 690T655 689Q695 689 730 690T785 692L788 689L784 669L781 666L747 664Q727 663 716 660T698 650T690 629T683 593L603 133Q600 113 597 93T593 61Q593 41 607 34T648 25L680 23L683 20L679 0L676 -3Q659 -2 640 -1T600 0Q580 0 560 -1T520 -3L514 3L537 120L535 122Q512 97 482 73T418 29T344 -3T264 -15Q235 -15 205 -7T150 20T109 69T93 144Q93 157 95 174T100 210T106 246T111 276L157 548ZM450 894H491L579 729H549L464 837L321 729H288L450 894Z"  />
<glyph unicode="&#xDC;" horiz-adv-x="741" d="M157 548Q161 572 164 594T168 628Q168 643 160 652T119 664L82 666L79 669L83 689L86 692Q103 691 120 690T166 689Q199 689 222 690T256 692Q250 672 245 644T234 586L169 220Q166 203 164 187T162 150Q162 97 194 67T291 36Q334 36 370 48T437 79T494 122T543 169L606 542Q611 571 613 589T616 629Q616 649 603 655T563 664L529 666L526 669L530 689L533 692Q558 691 588 690T655 689Q695 689 730 690T785 692L788 689L784 669L781 666L747 664Q727 663 716 660T698 650T690 629T683 593L603 133Q600 113 597 93T593 61Q593 41 607 34T648 25L680 23L683 20L679 0L676 -3Q659 -2 640 -1T600 0Q580 0 560 -1T520 -3L514 3L537 120L535 122Q512 97 482 73T418 29T344 -3T264 -15Q235 -15 205 -7T150 20T109 69T93 144Q93 157 95 174T100 210T106 246T111 276L157 548ZM317 836Q317 853 330 866T361 880Q378 880 391 867T405 836Q405 818 392 805T361 792Q344 792 331 805T317 836ZM500 836Q500 853 513 866T544 880Q561 880 574 867T588 836Q588 818 575 805T544 792Q527 792 514 805T500 836Z"  />
<glyph unicode="&#xDD;" horiz-adv-x="611" d="M666 629Q624 626 586 600T515 533T452 445T398 349Q375 303 366 273T355 228Q343 159 337 112T330 58Q330 41 342 34T381 25L415 23L418 20L413 0L410 -3Q404 -3 390 -3T359 -2T323 -1T288 0Q247 0 215 -1T162 -3L159 0L164 20L168 23L197 25Q226 27 239 36T257 71Q260 86 265 111T274 165T282 217T286 256Q286 272 280 306T261 384T233 472T197 555T155 617T110 641Q95 641 83 637T57 625L54 628L51 649L54 653Q60 656 70 661T91 674T113 690T131 704Q168 701 197 680T250 612T296 491T343 308H345Q362 350 391 408T461 525T555 633T672 704L666 629ZM477 866Q500 887 512 890T529 894Q541 894 548 886T555 868Q555 855 545 847T527 833L365 729H329L477 866Z"  />
<glyph unicode="&#xDE;" horiz-adv-x="556" d="M176 564Q180 584 182 600T184 633Q184 644 177 653T142 664L95 666L92 669L96 689L99 692L221 689L356 692L359 689L356 669L353 666L315 664Q297 663 287 661T270 651T261 632T254 598L252 584Q266 586 294 589T366 592Q396 592 427 586T483 563T523 518T539 444Q539 394 522 349T474 271T401 217T310 197Q287 197 265 202T226 215L223 218V241L226 244Q237 239 254 233T296 227Q329 227 359 240T411 279T447 341T461 424Q461 464 448 490T415 531T370 553T319 559Q302 559 282 557T246 553L173 133Q168 103 166 85T163 57Q163 43 171 35T203 25L255 23L258 20L254 0L251 -3Q219 -2 186 -1T118 0Q86 0 54 -1T-9 -3L-12 0L-8 20L-5 23L43 25Q73 27 82 51T99 125L176 564Z"  />
<glyph unicode="&#xDF;" horiz-adv-x="481" d="M127 388Q107 388 86 387T45 382L42 385L45 401L49 405Q69 407 95 419T139 442L152 520Q157 547 163 565T177 598T198 626T229 655Q253 676 272 690T308 712T342 724T379 727Q423 727 449 701T475 629Q475 614 472 600T462 570T441 534T407 485Q376 443 359 418T342 380Q342 375 343 370T347 356T356 334T374 302L416 228Q429 206 434 190T439 159Q439 132 424 102T385 47T331 5T269 -12Q240 -12 223 -4T194 9Q198 18 201 32T208 60T213 89T215 112L218 115H236L239 112L233 49Q242 42 257 35T296 28Q333 28 359 53T385 124Q385 138 381 151T364 188L308 286Q300 300 296 310T291 334Q291 344 293 353T302 374T319 400T344 436Q372 475 387 501T410 545T419 578T421 607Q421 642 401 664T341 687Q314 687 291 674T252 638Q241 622 235 602T221 547L141 124Q136 97 130 66T118 6T104 -48T90 -88Q79 -112 61 -144T20 -204T-33 -253T-93 -273Q-112 -273 -121 -271T-136 -266Q-133 -260 -130 -250T-125 -229T-121 -208T-118 -189L-108 -186Q-103 -192 -88 -204T-44 -216Q-22 -216 -5 -194T25 -138T47 -63T63 16L127 388Z"  />
<glyph unicode="&#xE0;" horiz-adv-x="481" d="M436 468Q427 449 417 414T395 337T374 249T356 165T344 100T339 68Q339 42 352 42Q361 42 373 48T405 68L434 91H437L444 75V72L401 39Q372 17 346 3T297 -12Q283 -12 278 -4T273 15Q273 25 276 48T285 97T295 146T302 181L300 183Q279 152 249 118T185 55T120 7T64 -12Q20 -12 20 74Q20 123 30 171T55 260T85 331T109 376Q114 383 132 399T177 433T235 463T299 476Q334 476 357 470T397 456L428 476L436 468ZM86 82Q86 63 90 53T108 42Q125 42 151 60T204 104T257 162T299 220Q306 232 315 261T333 321T347 380T354 415Q340 420 321 424T286 428Q245 428 220 425T181 407Q170 396 156 369T127 295Q113 252 100 199T86 82ZM209 637Q197 647 189 655T181 674Q181 684 189 693T211 703Q223 703 233 695T256 670L362 537H332L209 637Z"  />
<glyph unicode="&#xE1;" horiz-adv-x="481" d="M436 468Q427 449 417 414T395 337T374 249T356 165T344 100T339 68Q339 42 352 42Q361 42 373 48T405 68L434 91H437L444 75V72L401 39Q372 17 346 3T297 -12Q283 -12 278 -4T273 15Q273 25 276 48T285 97T295 146T302 181L300 183Q279 152 249 118T185 55T120 7T64 -12Q20 -12 20 74Q20 123 30 171T55 260T85 331T109 376Q114 383 132 399T177 433T235 463T299 476Q334 476 357 470T397 456L428 476L436 468ZM86 82Q86 63 90 53T108 42Q125 42 151 60T204 104T257 162T299 220Q306 232 315 261T333 321T347 380T354 415Q340 420 321 424T286 428Q245 428 220 425T181 407Q170 396 156 369T127 295Q113 252 100 199T86 82ZM382 675Q405 696 417 699T434 703Q446 703 453 695T460 677Q460 664 450 656T432 642L270 538H234L382 675Z"  />
<glyph unicode="&#xE2;" horiz-adv-x="481" d="M436 468Q427 449 417 414T395 337T374 249T356 165T344 100T339 68Q339 42 352 42Q361 42 373 48T405 68L434 91H437L444 75V72L401 39Q372 17 346 3T297 -12Q283 -12 278 -4T273 15Q273 25 276 48T285 97T295 146T302 181L300 183Q279 152 249 118T185 55T120 7T64 -12Q20 -12 20 74Q20 123 30 171T55 260T85 331T109 376Q114 383 132 399T177 433T235 463T299 476Q334 476 357 470T397 456L428 476L436 468ZM86 82Q86 63 90 53T108 42Q125 42 151 60T204 104T257 162T299 220Q306 232 315 261T333 321T347 380T354 415Q340 420 321 424T286 428Q245 428 220 425T181 407Q170 396 156 369T127 295Q113 252 100 199T86 82ZM310 703H351L439 538H409L324 646L181 538H148L310 703Z"  />
<glyph unicode="&#xE3;" horiz-adv-x="481" d="M436 468Q427 449 417 414T395 337T374 249T356 165T344 100T339 68Q339 42 352 42Q361 42 373 48T405 68L434 91H437L444 75V72L401 39Q372 17 346 3T297 -12Q283 -12 278 -4T273 15Q273 25 276 48T285 97T295 146T302 181L300 183Q279 152 249 118T185 55T120 7T64 -12Q20 -12 20 74Q20 123 30 171T55 260T85 331T109 376Q114 383 132 399T177 433T235 463T299 476Q334 476 357 470T397 456L428 476L436 468ZM86 82Q86 63 90 53T108 42Q125 42 151 60T204 104T257 162T299 220Q306 232 315 261T333 321T347 380T354 415Q340 420 321 424T286 428Q245 428 220 425T181 407Q170 396 156 369T127 295Q113 252 100 199T86 82ZM148 572Q148 580 152 597T167 631T192 661T229 674Q252 674 269 668T312 652Q340 641 358 635T394 628Q408 628 416 633T430 646T439 663T444 678H465Q463 669 458 652T443 619T418 590T380 577Q360 577 341 585T287 606Q264 615 250 620T222 626Q200 626 187 608T169 572H148Z"  />
<glyph unicode="&#xE4;" horiz-adv-x="481" d="M436 468Q427 449 417 414T395 337T374 249T356 165T344 100T339 68Q339 42 352 42Q361 42 373 48T405 68L434 91H437L444 75V72L401 39Q372 17 346 3T297 -12Q283 -12 278 -4T273 15Q273 25 276 48T285 97T295 146T302 181L300 183Q279 152 249 118T185 55T120 7T64 -12Q20 -12 20 74Q20 123 30 171T55 260T85 331T109 376Q114 383 132 399T177 433T235 463T299 476Q334 476 357 470T397 456L428 476L436 468ZM86 82Q86 63 90 53T108 42Q125 42 151 60T204 104T257 162T299 220Q306 232 315 261T333 321T347 380T354 415Q340 420 321 424T286 428Q245 428 220 425T181 407Q170 396 156 369T127 295Q113 252 100 199T86 82ZM177 645Q177 662 190 675T221 689Q238 689 251 676T265 645Q265 627 252 614T221 601Q204 601 191 614T177 645ZM360 645Q360 662 373 675T404 689Q421 689 434 676T448 645Q448 627 435 614T404 601Q387 601 374 614T360 645Z"  />
<glyph unicode="&#xE5;" horiz-adv-x="481" d="M436 468Q427 449 417 414T395 337T374 249T356 165T344 100T339 68Q339 42 352 42Q361 42 373 48T405 68L434 91H437L444 75V72L401 39Q372 17 346 3T297 -12Q283 -12 278 -4T273 15Q273 25 276 48T285 97T295 146T302 181L300 183Q279 152 249 118T185 55T120 7T64 -12Q20 -12 20 74Q20 123 30 171T55 260T85 331T109 376Q114 383 132 399T177 433T235 463T299 476Q334 476 357 470T397 456L428 476L436 468ZM86 82Q86 63 90 53T108 42Q125 42 151 60T204 104T257 162T299 220Q306 232 315 261T333 321T347 380T354 415Q340 420 321 424T286 428Q245 428 220 425T181 407Q170 396 156 369T127 295Q113 252 100 199T86 82ZM248 620Q248 591 267 571T316 551Q345 551 365 571T385 620Q385 649 365 668T316 688Q287 688 268 669T248 620ZM218 620Q218 664 246 691T316 718Q357 718 386 691T415 620Q415 576 386 549T316 521Q275 521 247 548T218 620Z"  />
<glyph unicode="&#xE6;" horiz-adv-x="630" d="M104 351L101 348H86L83 351Q84 359 84 369T85 390Q85 401 85 410T83 424L165 467Q175 472 189 474T215 476Q236 476 257 472T297 457T330 426T352 375Q370 393 392 411T438 443T489 467T542 476Q577 476 602 460T627 407Q627 367 608 336T557 284T488 251T412 237L347 233Q342 210 337 181T331 114Q331 69 354 50T409 30Q451 30 490 52T577 110H580L588 99V96Q581 90 560 72T509 36T444 3T372 -12Q349 -12 331 -4T301 19T282 51T274 90Q238 44 193 16T99 -12Q72 -12 54 -3T25 20T8 53T3 92Q3 129 16 154T48 197T90 225T131 240Q144 244 164 246T206 249T252 252T298 254Q306 289 306 342Q306 366 296 383T270 413T232 430T187 436Q167 436 151 432T120 422L104 351ZM133 28Q163 28 185 38T222 64T247 97T263 127Q271 144 279 174T294 233Q262 232 225 230T159 216Q121 202 94 174T66 98Q66 28 133 28ZM399 258Q428 260 457 269T509 295T546 335T561 388Q561 410 547 423T507 436Q473 436 448 422T406 385T377 338T361 291L352 254L399 258Z"  />
<glyph unicode="&#xE7;" horiz-adv-x="370" d="M286 46Q257 25 225 10T161 -9L129 -59L131 -61Q146 -55 171 -55Q203 -55 219 -71T235 -116Q235 -139 223 -155T191 -181T150 -196T110 -201Q83 -201 61 -196T24 -184V-181L36 -161L40 -159Q51 -164 67 -167T101 -171Q132 -171 153 -159T175 -124Q175 -104 160 -95T127 -85Q102 -85 86 -91L81 -86L129 -12Q76 -7 50 31T24 137Q24 209 42 263T77 347Q85 362 106 384T156 426T220 461T292 476Q322 476 341 469T371 455L374 450Q368 439 364 423T358 390T354 358T353 332L350 329H332L329 332V413Q321 416 303 422T255 428Q225 428 204 420T167 396T140 361T121 316Q102 261 96 219T90 139Q90 93 110 63T172 33Q216 33 255 54T331 108H334L342 93V90L286 46Z"  />
<glyph unicode="&#xE8;" horiz-adv-x="389" d="M306 62Q268 31 221 10T126 -12Q75 -12 48 19T20 116Q20 158 28 199T48 276T73 337T98 374Q142 418 188 447T294 476Q333 476 355 459T378 401Q378 364 358 335T307 283T236 246T159 222L95 207Q91 193 89 170T86 118Q86 77 103 53T164 28Q185 28 205 33T244 47T276 66T302 85L330 108H333L341 93V90L306 62ZM155 241Q183 247 212 260T263 293T300 336T315 386Q315 412 303 426T262 440Q233 440 210 428T169 394T137 345T115 286L100 229L155 241ZM163 637Q151 647 143 655T135 674Q135 684 143 693T165 703Q177 703 187 695T210 670L316 537H286L163 637Z"  />
<glyph unicode="&#xE9;" horiz-adv-x="389" d="M306 62Q268 31 221 10T126 -12Q75 -12 48 19T20 116Q20 158 28 199T48 276T73 337T98 374Q142 418 188 447T294 476Q333 476 355 459T378 401Q378 364 358 335T307 283T236 246T159 222L95 207Q91 193 89 170T86 118Q86 77 103 53T164 28Q185 28 205 33T244 47T276 66T302 85L330 108H333L341 93V90L306 62ZM155 241Q183 247 212 260T263 293T300 336T315 386Q315 412 303 426T262 440Q233 440 210 428T169 394T137 345T115 286L100 229L155 241ZM336 675Q359 696 371 699T388 703Q400 703 407 695T414 677Q414 664 404 656T386 642L224 538H188L336 675Z"  />
<glyph unicode="&#xEA;" horiz-adv-x="389" d="M306 62Q268 31 221 10T126 -12Q75 -12 48 19T20 116Q20 158 28 199T48 276T73 337T98 374Q142 418 188 447T294 476Q333 476 355 459T378 401Q378 364 358 335T307 283T236 246T159 222L95 207Q91 193 89 170T86 118Q86 77 103 53T164 28Q185 28 205 33T244 47T276 66T302 85L330 108H333L341 93V90L306 62ZM155 241Q183 247 212 260T263 293T300 336T315 386Q315 412 303 426T262 440Q233 440 210 428T169 394T137 345T115 286L100 229L155 241ZM274 703H315L403 538H373L288 646L145 538H112L274 703Z"  />
<glyph unicode="&#xEB;" horiz-adv-x="389" d="M306 62Q268 31 221 10T126 -12Q75 -12 48 19T20 116Q20 158 28 199T48 276T73 337T98 374Q142 418 188 447T294 476Q333 476 355 459T378 401Q378 364 358 335T307 283T236 246T159 222L95 207Q91 193 89 170T86 118Q86 77 103 53T164 28Q185 28 205 33T244 47T276 66T302 85L330 108H333L341 93V90L306 62ZM155 241Q183 247 212 260T263 293T300 336T315 386Q315 412 303 426T262 440Q233 440 210 428T169 394T137 345T115 286L100 229L155 241ZM153 645Q153 662 166 675T197 689Q214 689 227 676T241 645Q241 627 228 614T197 601Q180 601 167 614T153 645ZM336 645Q336 662 349 675T380 689Q397 689 410 676T424 645Q424 627 411 614T380 601Q363 601 350 614T336 645Z"  />
<glyph unicode="&#xEC;" horiz-adv-x="278" d="M127 336Q132 356 134 374T137 400Q137 413 128 413Q120 413 107 406T76 388L44 368H41L35 382V385L67 408Q113 441 141 458T185 476Q199 476 205 471T212 450Q212 438 208 422T199 382L138 137Q133 114 129 95T125 63Q125 51 127 47T137 42Q147 42 178 64L220 94H223L231 77V74L190 46Q157 23 129 6T83 -12Q65 -12 61 0T56 23Q56 37 58 53T66 90L127 336ZM97 637Q85 647 77 655T69 674Q69 684 77 693T99 703Q111 703 121 695T144 670L250 537H220L97 637Z"  />
<glyph unicode="&#xED;" horiz-adv-x="278" d="M127 336Q132 356 134 374T137 400Q137 413 128 413Q120 413 107 406T76 388L44 368H41L35 382V385L67 408Q113 441 141 458T185 476Q199 476 205 471T212 450Q212 438 208 422T199 382L138 137Q133 114 129 95T125 63Q125 51 127 47T137 42Q147 42 178 64L220 94H223L231 77V74L190 46Q157 23 129 6T83 -12Q65 -12 61 0T56 23Q56 37 58 53T66 90L127 336ZM261 675Q284 696 296 699T313 703Q325 703 332 695T339 677Q339 664 329 656T311 642L149 538H113L261 675Z"  />
<glyph unicode="&#xEE;" horiz-adv-x="278" d="M127 336Q132 356 134 374T137 400Q137 413 128 413Q120 413 107 406T76 388L44 368H41L35 382V385L67 408Q113 441 141 458T185 476Q199 476 205 471T212 450Q212 438 208 422T199 382L138 137Q133 114 129 95T125 63Q125 51 127 47T137 42Q147 42 178 64L220 94H223L231 77V74L190 46Q157 23 129 6T83 -12Q65 -12 61 0T56 23Q56 37 58 53T66 90L127 336ZM208 703H249L337 538H307L222 646L79 538H46L208 703Z"  />
<glyph unicode="&#xEF;" horiz-adv-x="278" d="M127 336Q132 356 134 374T137 400Q137 413 128 413Q120 413 107 406T76 388L44 368H41L35 382V385L67 408Q113 441 141 458T185 476Q199 476 205 471T212 450Q212 438 208 422T199 382L138 137Q133 114 129 95T125 63Q125 51 127 47T137 42Q147 42 178 64L220 94H223L231 77V74L190 46Q157 23 129 6T83 -12Q65 -12 61 0T56 23Q56 37 58 53T66 90L127 336ZM75 645Q75 662 88 675T119 689Q136 689 149 676T163 645Q163 627 150 614T119 601Q102 601 89 614T75 645ZM258 645Q258 662 271 675T302 689Q319 689 332 676T346 645Q346 627 333 614T302 601Q285 601 272 614T258 645Z"  />
<glyph unicode="&#xF0;" horiz-adv-x="444" d="M90 135Q90 70 114 43T181 15Q221 15 252 44T303 116T333 210T344 304Q344 332 340 357T325 402T296 432T250 443Q212 443 183 419T133 354T101 256T90 135ZM218 635Q197 656 172 674T126 704V707L158 727Q168 722 181 715T208 698T236 679T262 658L371 716H374L392 697V694L286 637Q306 619 328 592T368 527T398 441T410 331Q410 273 393 212T342 102T261 20T152 -12Q117 -12 93 -1T53 32T31 82T24 146Q24 210 41 269T92 375T171 448T275 476Q289 476 301 473T324 461L326 463Q312 508 288 548T241 613L116 547H113L95 566V569L218 635Z"  />
<glyph unicode="&#xF1;" horiz-adv-x="519" d="M36 -4Q43 17 52 52T70 130T89 216T106 297T117 361T122 395Q122 406 120 409T110 413Q105 413 95 408T73 396T49 380T26 364H23L16 381V384Q27 391 49 406T95 437T143 464T179 476Q194 476 194 455Q194 441 189 415T177 360L154 256H156Q190 307 226 348T296 417T362 461T420 476Q440 476 448 466T457 441Q457 425 454 406T445 369L399 181Q394 162 390 143T382 108T377 81T375 65Q375 54 377 50T388 45Q393 45 403 50T426 63T451 80T473 97H476L483 80V77Q465 64 445 49T404 20T365 -3T331 -12Q315 -12 308 -3T300 22Q300 32 306 60T322 126T342 204T363 284T378 352T385 395Q385 404 381 410T368 416Q354 416 335 408T295 384T254 349T216 306Q187 267 168 228T136 151T116 76T105 3L44 -12L36 -4ZM156 572Q156 580 160 597T175 631T200 661T237 674Q260 674 277 668T320 652Q348 641 366 635T402 628Q416 628 424 633T438 646T447 663T452 678H473Q471 669 466 652T451 619T426 590T388 577Q368 577 349 585T295 606Q272 615 258 620T230 626Q208 626 195 608T177 572H156Z"  />
<glyph unicode="&#xF2;" horiz-adv-x="444" d="M344 302Q344 331 340 357T325 402T299 432T257 443Q214 443 183 416T131 346T100 251T90 147Q90 73 115 44T181 15Q221 15 252 44T303 116T333 210T344 302ZM24 144Q24 209 41 269T92 375T171 448T275 476Q314 476 340 464T381 431T403 384T410 329Q410 272 393 212T342 102T261 20T152 -12Q84 -12 54 31T24 144ZM180 637Q168 647 160 655T152 674Q152 684 160 693T182 703Q194 703 204 695T227 670L333 537H303L180 637Z"  />
<glyph unicode="&#xF3;" horiz-adv-x="444" d="M344 302Q344 331 340 357T325 402T299 432T257 443Q214 443 183 416T131 346T100 251T90 147Q90 73 115 44T181 15Q221 15 252 44T303 116T333 210T344 302ZM24 144Q24 209 41 269T92 375T171 448T275 476Q314 476 340 464T381 431T403 384T410 329Q410 272 393 212T342 102T261 20T152 -12Q84 -12 54 31T24 144ZM363 675Q386 696 398 699T415 703Q427 703 434 695T441 677Q441 664 431 656T413 642L251 538H215L363 675Z"  />
<glyph unicode="&#xF4;" horiz-adv-x="444" d="M344 302Q344 331 340 357T325 402T299 432T257 443Q214 443 183 416T131 346T100 251T90 147Q90 73 115 44T181 15Q221 15 252 44T303 116T333 210T344 302ZM24 144Q24 209 41 269T92 375T171 448T275 476Q314 476 340 464T381 431T403 384T410 329Q410 272 393 212T342 102T261 20T152 -12Q84 -12 54 31T24 144ZM292 703H333L421 538H391L306 646L163 538H130L292 703Z"  />
<glyph unicode="&#xF5;" horiz-adv-x="444" d="M344 302Q344 331 340 357T325 402T299 432T257 443Q214 443 183 416T131 346T100 251T90 147Q90 73 115 44T181 15Q221 15 252 44T303 116T333 210T344 302ZM24 144Q24 209 41 269T92 375T171 448T275 476Q314 476 340 464T381 431T403 384T410 329Q410 272 393 212T342 102T261 20T152 -12Q84 -12 54 31T24 144ZM130 572Q130 580 134 597T149 631T174 661T211 674Q234 674 251 668T294 652Q322 641 340 635T376 628Q390 628 398 633T412 646T421 663T426 678H447Q445 669 440 652T425 619T400 590T362 577Q342 577 323 585T269 606Q246 615 232 620T204 626Q182 626 169 608T151 572H130Z"  />
<glyph unicode="&#xF6;" horiz-adv-x="444" d="M344 302Q344 331 340 357T325 402T299 432T257 443Q214 443 183 416T131 346T100 251T90 147Q90 73 115 44T181 15Q221 15 252 44T303 116T333 210T344 302ZM24 144Q24 209 41 269T92 375T171 448T275 476Q314 476 340 464T381 431T403 384T410 329Q410 272 393 212T342 102T261 20T152 -12Q84 -12 54 31T24 144ZM159 645Q159 662 172 675T203 689Q220 689 233 676T247 645Q247 627 234 614T203 601Q186 601 173 614T159 645ZM342 645Q342 662 355 675T386 689Q403 689 416 676T430 645Q430 627 417 614T386 601Q369 601 356 614T342 645Z"  />
<glyph unicode="&#xF7;" horiz-adv-x="600" d="M47 277H553V229H47V277ZM250 462Q250 483 264 497T300 512Q321 512 335 498T350 462Q350 441 336 427T300 412Q279 412 265 426T250 462ZM250 44Q250 65 264 79T300 94Q321 94 335 80T350 44Q350 23 336 9T300 -6Q279 -6 265 8T250 44Z"  />
<glyph unicode="&#xF8;" horiz-adv-x="444" d="M328 397Q317 418 300 430T257 443Q214 443 183 416T131 346T100 251T90 147Q90 129 90 121T92 106L328 397ZM44 48Q33 67 29 91T24 144Q24 209 41 269T92 375T171 448T275 476Q307 476 329 468T367 446L426 519H429L447 503V500L386 424Q399 404 404 380T410 329Q410 272 393 212T342 102T261 20T152 -12Q91 -12 61 23L1 -51H-2L-20 -35V-32L44 48ZM101 69Q123 15 181 15Q221 15 252 44T303 116T333 210T344 302Q344 336 338 365L101 69Z"  />
<glyph unicode="&#xF9;" horiz-adv-x="519" d="M69 414Q85 424 102 435T136 455T167 470T189 476Q197 476 203 471T209 454Q209 439 203 418T190 367L179 319Q162 245 152 201T136 132T128 96T126 77Q126 64 129 56T144 48Q153 48 171 59T211 90T258 138T306 199Q330 234 347 271T376 342T392 407T399 459Q406 460 415 462T433 466T449 471T461 476L469 468Q460 446 450 411T430 335T411 253T395 174T384 111T380 73Q380 48 394 48Q401 48 413 55T448 79L476 99H479L485 82V79L454 56Q440 45 423 33T388 11T356 -5T332 -12Q311 -12 311 9Q311 24 315 46T327 112L350 225H348Q321 179 287 137T217 61T148 8T93 -12Q70 -12 64 2T57 33Q57 41 59 53T67 96T84 179T116 322Q122 348 126 370T131 406Q131 417 123 417Q115 417 103 410T62 384L36 367H33L27 382V385L69 414ZM228 637Q216 647 208 655T200 674Q200 684 208 693T230 703Q242 703 252 695T275 670L381 537H351L228 637Z"  />
<glyph unicode="&#xFA;" horiz-adv-x="519" d="M69 414Q85 424 102 435T136 455T167 470T189 476Q197 476 203 471T209 454Q209 439 203 418T190 367L179 319Q162 245 152 201T136 132T128 96T126 77Q126 64 129 56T144 48Q153 48 171 59T211 90T258 138T306 199Q330 234 347 271T376 342T392 407T399 459Q406 460 415 462T433 466T449 471T461 476L469 468Q460 446 450 411T430 335T411 253T395 174T384 111T380 73Q380 48 394 48Q401 48 413 55T448 79L476 99H479L485 82V79L454 56Q440 45 423 33T388 11T356 -5T332 -12Q311 -12 311 9Q311 24 315 46T327 112L350 225H348Q321 179 287 137T217 61T148 8T93 -12Q70 -12 64 2T57 33Q57 41 59 53T67 96T84 179T116 322Q122 348 126 370T131 406Q131 417 123 417Q115 417 103 410T62 384L36 367H33L27 382V385L69 414ZM399 675Q422 696 434 699T451 703Q463 703 470 695T477 677Q477 664 467 656T449 642L287 538H251L399 675Z"  />
<glyph unicode="&#xFB;" horiz-adv-x="519" d="M69 414Q85 424 102 435T136 455T167 470T189 476Q197 476 203 471T209 454Q209 439 203 418T190 367L179 319Q162 245 152 201T136 132T128 96T126 77Q126 64 129 56T144 48Q153 48 171 59T211 90T258 138T306 199Q330 234 347 271T376 342T392 407T399 459Q406 460 415 462T433 466T449 471T461 476L469 468Q460 446 450 411T430 335T411 253T395 174T384 111T380 73Q380 48 394 48Q401 48 413 55T448 79L476 99H479L485 82V79L454 56Q440 45 423 33T388 11T356 -5T332 -12Q311 -12 311 9Q311 24 315 46T327 112L350 225H348Q321 179 287 137T217 61T148 8T93 -12Q70 -12 64 2T57 33Q57 41 59 53T67 96T84 179T116 322Q122 348 126 370T131 406Q131 417 123 417Q115 417 103 410T62 384L36 367H33L27 382V385L69 414ZM328 703H369L457 538H427L342 646L199 538H166L328 703Z"  />
<glyph unicode="&#xFC;" horiz-adv-x="519" d="M69 414Q85 424 102 435T136 455T167 470T189 476Q197 476 203 471T209 454Q209 439 203 418T190 367L179 319Q162 245 152 201T136 132T128 96T126 77Q126 64 129 56T144 48Q153 48 171 59T211 90T258 138T306 199Q330 234 347 271T376 342T392 407T399 459Q406 460 415 462T433 466T449 471T461 476L469 468Q460 446 450 411T430 335T411 253T395 174T384 111T380 73Q380 48 394 48Q401 48 413 55T448 79L476 99H479L485 82V79L454 56Q440 45 423 33T388 11T356 -5T332 -12Q311 -12 311 9Q311 24 315 46T327 112L350 225H348Q321 179 287 137T217 61T148 8T93 -12Q70 -12 64 2T57 33Q57 41 59 53T67 96T84 179T116 322Q122 348 126 370T131 406Q131 417 123 417Q115 417 103 410T62 384L36 367H33L27 382V385L69 414ZM195 645Q195 662 208 675T239 689Q256 689 269 676T283 645Q283 627 270 614T239 601Q222 601 209 614T195 645ZM378 645Q378 662 391 675T422 689Q439 689 452 676T466 645Q466 627 453 614T422 601Q405 601 392 614T378 645Z"  />
<glyph unicode="&#xFD;" horiz-adv-x="481" d="M57 427Q86 447 111 461T149 476Q166 476 171 463T176 426Q176 414 176 399T174 362T169 308T162 230Q158 188 156 149T154 87Q154 51 175 51Q185 51 204 67T246 109T291 167T329 232Q343 261 354 293T374 356T388 414T398 461Q414 462 433 466T464 476L471 468Q460 450 449 414T425 338L392 225Q369 145 346 63T284 -92Q267 -125 244 -157T194 -215T137 -257T76 -273Q49 -273 29 -261T0 -225Q-3 -214 -4 -202T-5 -180Q6 -174 20 -164T42 -145L54 -150Q52 -155 51 -160T49 -176Q49 -184 52 -194T62 -212T80 -227T108 -233Q142 -233 170 -206T224 -126T273 2T321 174H319Q301 146 277 114T227 53T177 7T133 -12Q110 -12 101 5T91 50Q91 73 93 96T97 140L108 290Q110 311 111 334T113 376Q113 416 92 416Q85 416 74 411T41 392L16 376H13L7 390V393L57 427ZM392 675Q415 696 427 699T444 703Q456 703 463 695T470 677Q470 664 460 656T442 642L280 538H244L392 675Z"  />
<glyph unicode="&#xFE;" horiz-adv-x="481" d="M115 50Q126 45 150 37T208 28Q250 28 284 59T341 138T378 244T391 358Q391 401 381 413T348 425Q323 425 291 405T229 349T172 260T133 142L115 50ZM140 490Q151 544 158 587T165 647Q165 658 158 663T126 668H87L84 671L88 686L91 689Q99 690 117 692T158 700T204 711T244 727L252 719Q246 701 238 664T219 579L158 281H160Q179 315 204 350T260 413T324 458T395 476Q426 476 441 457T457 382Q457 287 430 214T359 90T264 14T163 -12Q140 -12 127 -9T103 -3Q100 -18 93 -51T79 -123T66 -199T59 -260Q45 -261 25 -264T-5 -273L-14 -267Q-8 -246 3 -201T27 -92T56 48T87 210L140 490Z"  />
<glyph unicode="&#xFF;" horiz-adv-x="481" d="M57 427Q86 447 111 461T149 476Q166 476 171 463T176 426Q176 414 176 399T174 362T169 308T162 230Q158 188 156 149T154 87Q154 51 175 51Q185 51 204 67T246 109T291 167T329 232Q343 261 354 293T374 356T388 414T398 461Q414 462 433 466T464 476L471 468Q460 450 449 414T425 338L392 225Q369 145 346 63T284 -92Q267 -125 244 -157T194 -215T137 -257T76 -273Q49 -273 29 -261T0 -225Q-3 -214 -4 -202T-5 -180Q6 -174 20 -164T42 -145L54 -150Q52 -155 51 -160T49 -176Q49 -184 52 -194T62 -212T80 -227T108 -233Q142 -233 170 -206T224 -126T273 2T321 174H319Q301 146 277 114T227 53T177 7T133 -12Q110 -12 101 5T91 50Q91 73 93 96T97 140L108 290Q110 311 111 334T113 376Q113 416 92 416Q85 416 74 411T41 392L16 376H13L7 390V393L57 427ZM176 645Q176 662 189 675T220 689Q237 689 250 676T264 645Q264 627 251 614T220 601Q203 601 190 614T176 645ZM359 645Q359 662 372 675T403 689Q420 689 433 676T447 645Q447 627 434 614T403 601Q386 601 373 614T359 645Z"  />
<glyph unicode="&#x131;" horiz-adv-x="278" d="M127 336Q132 356 134 374T137 400Q137 413 128 413Q120 413 107 406T76 388L44 368H41L35 382V385L67 408Q113 441 141 458T185 476Q199 476 205 471T212 450Q212 438 208 422T199 382L138 137Q133 114 129 95T125 63Q125 51 127 47T137 42Q147 42 178 64L220 94H223L231 77V74L190 46Q157 23 129 6T83 -12Q65 -12 61 0T56 23Q56 37 58 53T66 90L127 336Z"  />
<glyph unicode="&#x152;" horiz-adv-x="1019" d="M615 37H767Q820 37 861 39T916 50Q927 76 935 106T948 154L951 157H969L972 154Q966 124 960 81T948 0L945 -3Q888 -2 833 -1T720 0Q667 0 623 -1T541 -3L536 2Q542 17 547 45T558 96L556 98Q545 84 527 65T479 28T410 -2T315 -15Q270 -15 224 -4T141 38T81 120T58 253Q58 346 85 428T163 571T286 668T450 704Q517 704 570 680T649 613Q655 643 655 683L661 692Q699 690 737 690T814 689Q860 689 906 690T998 692L1001 689Q987 591 986 547L983 544H965L962 547Q961 561 961 577T960 607T956 632T946 646Q937 649 923 651T891 654T855 655T819 656Q746 656 721 653Q716 632 711 609T701 556L670 376H765Q789 376 813 377T858 379T895 381T919 382L925 377L905 333Q896 334 880 335T845 338T804 339T761 340H664L615 37ZM429 668Q354 668 299 637T207 550T154 418T136 252Q136 201 147 159T183 86T246 38T338 21Q391 21 430 37T496 79T541 136T568 195Q573 211 579 238T590 298T601 364T611 426T617 475T619 503Q619 524 611 552T580 606T522 650T429 668Z"  />
<glyph unicode="&#x153;" horiz-adv-x="667" d="M344 302Q344 331 340 357T325 402T299 432T257 443Q214 443 183 416T131 346T100 251T90 147Q90 73 115 44T181 15Q221 15 252 44T303 116T333 210T344 302ZM619 93V90L584 62Q546 31 499 10T404 -12Q367 -12 342 7T306 62Q276 26 237 7T152 -12Q84 -12 54 31T24 144Q24 209 41 269T92 375T171 448T275 476Q323 476 355 452T399 392Q435 426 479 451T572 476Q611 476 633 459T656 401Q656 364 636 335T585 283T514 246T437 222L373 207Q369 193 367 170T364 118Q364 77 381 53T442 28Q463 28 483 33T522 47T554 66T580 85L608 108H611L619 93ZM433 241Q461 247 490 260T541 293T578 336T593 386Q593 412 581 426T540 440Q511 440 488 428T447 394T415 345T393 286L378 229L433 241Z"  />
<glyph unicode="&#x160;" horiz-adv-x="519" d="M80 85Q87 75 101 65T133 45T174 31T221 25Q263 25 295 38T350 74T384 124T396 183Q396 207 390 224T368 255T323 284T249 318Q174 350 139 389T104 489Q104 532 121 571T170 640T245 686T341 704Q383 704 415 695T476 669L491 661L494 657Q483 625 477 592T467 530L464 527H443L440 530L434 607Q427 614 416 624T389 643T352 658T306 664Q273 664 247 653T202 623T174 579T164 526Q164 495 172 473T199 432T251 397T334 362Q373 348 397 332T436 299T456 263T462 221Q462 165 438 121T375 47T287 1T188 -15Q131 -15 92 -3T30 21L27 25Q35 53 43 91T56 160L59 163H77L80 160V85ZM222 894H249L336 783L479 894H512L350 729H310L222 894Z"  />
<glyph unicode="&#x161;" horiz-adv-x="370" d="M49 58Q63 47 86 36T150 24Q200 24 232 54T265 137Q265 156 259 168T240 188T207 200T160 208Q142 210 122 214T84 228T54 256T42 305Q42 342 63 373T114 428T180 463T243 476Q278 476 298 469T329 456L331 452Q326 439 323 425T316 396T311 370T308 350L305 347H287L284 350L290 409Q279 416 258 423T198 431Q151 431 127 405T102 336Q102 319 105 307T118 286T144 272T188 263L215 260Q248 256 269 249T303 229T320 199T325 159Q325 129 307 99T259 44T191 4T112 -12Q76 -12 50 -6T11 3L9 7Q13 20 16 36T23 70T28 103T31 129L34 132H52L55 129L49 58ZM116 703H143L230 592L373 703H406L244 538H204L116 703Z"  />
<glyph unicode="&#x178;" horiz-adv-x="611" d="M666 629Q624 626 586 600T515 533T452 445T398 349Q375 303 366 273T355 228Q343 159 337 112T330 58Q330 41 342 34T381 25L415 23L418 20L413 0L410 -3Q404 -3 390 -3T359 -2T323 -1T288 0Q247 0 215 -1T162 -3L159 0L164 20L168 23L197 25Q226 27 239 36T257 71Q260 86 265 111T274 165T282 217T286 256Q286 272 280 306T261 384T233 472T197 555T155 617T110 641Q95 641 83 637T57 625L54 628L51 649L54 653Q60 656 70 661T91 674T113 690T131 704Q168 701 197 680T250 612T296 491T343 308H345Q362 350 391 408T461 525T555 633T672 704L666 629ZM272 836Q272 853 285 866T316 880Q333 880 346 867T360 836Q360 818 347 805T316 792Q299 792 286 805T272 836ZM455 836Q455 853 468 866T499 880Q516 880 529 867T543 836Q543 818 530 805T499 792Q482 792 469 805T455 836Z"  />
<glyph unicode="&#x17D;" horiz-adv-x="630" d="M255 37Q294 37 337 38T417 41T482 47T516 54Q521 57 527 69T539 97T549 129T557 158L560 161H578L581 158Q574 123 568 79T559 0L556 -3Q509 -2 439 -1T287 0Q201 0 128 -1T6 -3L3 0L9 21L75 103L510 653H320Q260 653 214 650T157 639Q153 636 149 624T140 597T132 567T126 541L123 538H105L102 541Q104 556 106 576T109 616T112 656T115 689L118 692Q151 692 190 692T270 691T355 690T438 689Q480 689 530 690T620 692L623 689L620 673Q607 659 594 644T567 611L112 37H255ZM252 894H279L366 783L509 894H542L380 729H340L252 894Z"  />
<glyph unicode="&#x17E;" horiz-adv-x="370" d="M306 400L304 402Q299 400 291 400T275 398Q266 397 257 397T241 397Q222 397 189 403Q177 405 166 407T142 409Q131 409 122 408T104 405L74 348L70 346H54L51 349Q62 372 72 402T88 459Q95 462 107 467T146 472Q165 472 185 468T225 457T264 447T302 442Q329 442 345 453T372 476L384 472V444L52 62L54 60Q66 64 78 66T108 68Q124 68 141 66T176 59Q193 56 209 54T238 51Q258 51 267 53T281 57L307 121L310 124H328L331 121Q328 113 323 97T313 62T303 25T296 -4Q283 -7 270 -9T236 -12Q213 -12 193 -7T149 4Q123 10 103 15T57 20Q29 20 11 10T-21 -12H-24L-35 6V9L306 400ZM127 703H154L241 592L384 703H417L255 538H215L127 703Z"  />
<glyph unicode="&#x192;" horiz-adv-x="500" d="M215 338H176Q157 338 142 338T119 335L116 338L124 374L129 377Q137 375 151 375T186 374H220L235 455Q240 482 246 504T262 545T285 582T319 619Q333 632 351 645T388 667T428 683T466 689Q484 689 498 687T521 681Q501 637 495 603L487 598Q477 616 459 627T417 638Q395 638 378 630T348 601T323 546T302 459L286 374H340Q355 374 372 374T403 377L406 374L398 338L395 335Q386 337 366 337T328 338H281L234 90Q230 67 224 39T210 -20T191 -80T167 -133Q144 -174 122 -200T78 -243T37 -266T-1 -273Q-17 -273 -24 -271T-39 -263Q-31 -245 -27 -223T-20 -188L-9 -185Q-2 -201 12 -208T41 -216Q57 -216 73 -209T104 -178T133 -111T159 5L215 338Z"  />
<glyph unicode="&#x2C6;" horiz-adv-x="278" d="M208 703H249L337 538H307L222 646L79 538H46L208 703Z"  />
<glyph unicode="&#x2C7;" horiz-adv-x="278" d="M86 703H113L200 592L343 703H376L214 538H174L86 703Z"  />
<glyph unicode="&#x2DA;" horiz-adv-x="278" d="M136 620Q136 591 155 571T204 551Q233 551 253 571T273 620Q273 649 253 668T204 688Q175 688 156 669T136 620ZM106 620Q106 664 134 691T204 718Q245 718 274 691T303 620Q303 576 274 549T204 521Q163 521 135 548T106 620Z"  />
<glyph unicode="&#x2DC;" horiz-adv-x="278" d="M46 572Q46 580 50 597T65 631T90 661T127 674Q150 674 167 668T210 652Q238 641 256 635T292 628Q306 628 314 633T328 646T337 663T342 678H363Q361 669 356 652T341 619T316 590T278 577Q258 577 239 585T185 606Q162 615 148 620T120 626Q98 626 85 608T67 572H46Z"  />
<glyph unicode="&#x2013;" horiz-adv-x="500" d="M6 270H506L494 224H-6L6 270Z"  />
<glyph unicode="&#x2014;" horiz-adv-x="1000" d="M6 270H1006L994 224H-6L6 270Z"  />
<glyph unicode="&#x2018;" horiz-adv-x="259" d="M86 466Q95 489 112 519T148 581T189 642T229 692L259 704L265 699Q251 679 237 652T210 595T187 535T171 478Q154 476 131 469T95 456L86 466Z"  />
<glyph unicode="&#x2019;" horiz-adv-x="259" d="M265 694Q256 671 239 641T203 579T162 518T122 468L92 456L86 461Q100 481 114 508T141 565T164 625T180 682Q197 684 220 691T256 704L265 694Z"  />
<glyph unicode="&#x201A;" horiz-adv-x="259" d="M179 99Q170 76 153 46T117 -16T76 -77T36 -127L6 -139L0 -134Q14 -114 28 -87T55 -30T78 30T94 87Q111 89 134 96T170 109L179 99Z"  />
<glyph unicode="&#x201C;" horiz-adv-x="389" d="M240 466Q249 489 266 519T302 581T343 642T383 692L413 704L419 699Q405 679 391 652T364 595T341 535T325 478Q308 476 285 469T249 456L240 466ZM64 466Q73 489 90 519T126 581T167 642T207 692L237 704L243 699Q229 679 215 652T188 595T165 535T149 478Q132 476 109 469T73 456L64 466Z"  />
<glyph unicode="&#x201D;" horiz-adv-x="389" d="M243 694Q234 671 217 641T181 579T140 518T100 468L70 456L64 461Q78 481 92 508T119 565T142 625T158 682Q175 684 198 691T234 704L243 694ZM419 694Q410 671 393 641T357 579T316 518T276 468L246 456L240 461Q254 481 268 508T295 565T318 625T334 682Q351 684 374 691T410 704L419 694Z"  />
<glyph unicode="&#x201E;" horiz-adv-x="389" d="M149 99Q140 76 123 46T87 -16T46 -77T6 -127L-24 -139L-30 -134Q-16 -114 -2 -87T25 -30T48 30T64 87Q81 89 104 96T140 109L149 99ZM325 99Q316 76 299 46T263 -16T222 -77T182 -127L152 -139L146 -134Q160 -114 174 -87T201 -30T224 30T240 87Q257 89 280 96T316 109L325 99Z"  />
<glyph unicode="&#x2020;" horiz-adv-x="500" d="M249 420H194Q158 420 127 418T79 412L76 415Q82 429 85 444T88 473L91 476Q109 471 139 470Q154 469 171 469T206 468H257L269 539Q278 595 280 629T283 692L288 695Q294 693 302 692T321 691Q339 691 351 694L356 695L361 692Q353 672 343 633T325 548L311 468H362Q437 468 480 476L483 473Q479 463 476 445T473 415L470 412Q451 415 418 417T350 420H303L269 192Q260 131 253 82T248 0L244 -3Q224 2 205 2Q196 2 185 1T169 -3L164 0Q179 37 190 81T212 190L249 420Z"  />
<glyph unicode="&#x2021;" horiz-adv-x="500" d="M228 -70Q222 -117 218 -165T216 -239L211 -242Q191 -239 176 -239Q165 -239 157 -239T139 -242L135 -239Q140 -228 146 -210T159 -168T171 -120T180 -70L186 -21H154Q113 -21 76 -23T24 -30L21 -25Q25 -14 26 1T28 27L32 32Q51 27 85 26T158 24H191L198 62Q207 110 208 155T211 232Q216 244 221 262T232 301T242 343T249 384L255 429H226Q185 429 147 427T88 419L82 423Q85 431 88 439T91 456Q91 462 91 468T90 478L95 483Q108 478 145 476T223 474H260L268 518Q277 575 279 618T280 690L287 695Q292 694 299 693T319 692Q330 692 338 693T352 695L355 690Q346 673 336 629T316 524L308 474H348Q366 474 385 474T421 476T452 479T475 483L479 478Q475 470 473 454T470 423L465 419Q457 421 444 423T415 426T382 428T349 429H303L297 386Q290 342 287 300T285 231Q273 199 266 158T251 76L242 24H276Q321 24 356 26T406 32L410 27Q405 16 404 3T402 -25L397 -30Q376 -27 343 -24T264 -21H234L228 -70Z"  />
<glyph unicode="&#x2022;" horiz-adv-x="500" d="M78 344Q78 380 91 411T128 465T183 502T250 516Q286 516 317 503T371 466T408 411T422 344Q422 308 409 277T372 223T317 186T250 172Q214 172 183 185T129 222T92 277T78 344Z"  />
<glyph unicode="&#x2026;" horiz-adv-x="1000" d="M123 27Q123 55 139 74T175 94Q194 94 202 83T211 55Q211 27 195 8T159 -12Q140 -12 132 -1T123 27ZM456 27Q456 55 472 74T508 94Q527 94 535 83T544 55Q544 27 528 8T492 -12Q473 -12 465 -1T456 27ZM789 27Q789 55 805 74T841 94Q860 94 868 83T877 55Q877 27 861 8T825 -12Q806 -12 798 -1T789 27Z"  />
<glyph unicode="&#x2030;" horiz-adv-x="1167" d="M811 118Q811 160 823 201T860 277T921 332T1006 353Q1032 353 1054 346T1094 324T1120 283T1130 222Q1130 190 1120 149T1088 72T1028 10T937 -15Q911 -15 889 -7T849 17T821 59T811 118ZM871 109Q871 66 890 39T946 12Q982 12 1006 33T1044 84T1064 151T1070 217Q1070 275 1053 300T993 326Q965 326 943 311T904 267T880 198T871 109ZM68 448Q68 490 80 531T117 607T178 662T263 683Q289 683 311 676T351 654T377 613T387 552Q387 520 377 479T345 402T285 340T194 315Q168 315 146 323T106 347T78 389T68 448ZM128 439Q128 396 147 369T203 342Q239 342 263 363T301 414T321 481T327 547Q327 605 310 630T250 656Q222 656 200 641T161 597T137 528T128 439ZM441 118Q441 160 453 201T490 277T551 332T636 353Q662 353 684 346T724 324T750 283T760 222Q760 190 750 149T718 72T658 10T567 -15Q541 -15 519 -7T479 17T451 59T441 118ZM501 109Q501 66 520 39T576 12Q612 12 636 33T674 84T694 151T700 217Q700 275 683 300T623 326Q595 326 573 311T534 267T510 198T501 109ZM609 715L612 718H651L654 715L206 -47L203 -50H164L161 -47L609 715Z"  />
<glyph unicode="&#x2039;" horiz-adv-x="315" d="M229 58V55L215 46H212Q197 67 177 92T137 142T96 189T60 228L63 246Q85 262 111 284T162 329T212 374T256 416H259L270 405V402L131 231L229 58Z"  />
<glyph unicode="&#x203A;" horiz-adv-x="315" d="M86 404V407L100 416H103Q118 395 138 370T178 320T219 273T255 234L252 216Q230 199 204 178T153 133T103 88T59 46H56L45 57V60L184 231L86 404Z"  />
<glyph unicode="&#x20AC;" horiz-adv-x="500" d="M513 655Q506 626 501 597T494 539L491 536L469 535L467 538L465 603Q443 625 422 633T369 642Q319 642 285 622T228 569T191 495T166 411Q226 411 285 411T404 413L406 410L396 383L392 380Q350 382 310 382T228 382H161Q160 374 158 362T155 337T153 311T152 292Q203 292 253 292T354 294L357 291L346 264L343 261Q295 263 247 263T150 263Q149 255 149 248T149 232Q149 194 155 158T177 93T222 47T296 29Q336 29 376 50T444 98L453 91L448 56Q434 41 414 29T370 6T324 -9T279 -15Q219 -15 180 6T118 64T86 146T77 244V263Q61 263 45 263T13 261L11 264L22 291L25 294Q39 293 52 293T79 292Q82 337 91 382Q76 382 61 382T30 380L28 383L38 410L42 413Q56 412 70 412T98 411Q111 463 135 512T196 601T279 663T385 687Q399 687 416 685T450 680T483 670T511 657Q511 657 513 655Z"  />
<glyph unicode="&#x2122;" horiz-adv-x="1000" d="M171 306Q204 306 213 313T222 341V668H169Q137 668 120 649T103 601H82V689H416V601H395Q395 630 378 649T329 668H276V341Q276 320 285 313T327 306V285H171V306ZM829 306Q863 306 871 312T880 338V600H878L720 285H711L555 597H553V347Q553 321 563 314T606 306V285H477V306Q510 306 519 313T529 347V622Q529 626 525 634T513 650T492 663T462 668V689H571L732 367L898 689H992V668Q963 668 949 656T934 614V338Q934 329 935 323T942 313T957 308T984 306V285H829V306Z"  />
<glyph unicode="&#xE000;" horiz-adv-x="278" d="M97 828Q85 838 77 846T69 865Q69 875 77 884T99 894Q111 894 121 886T144 861L250 728H220L97 828Z"  />
<glyph unicode="&#xE002;" horiz-adv-x="278" d="M280 866Q303 887 315 890T332 894Q344 894 351 886T358 868Q358 855 348 847T330 833L168 729H132L280 866Z"  />
<glyph unicode="&#xE004;" horiz-adv-x="278" d="M208 894H249L337 729H307L222 837L79 729H46L208 894Z"  />
<glyph unicode="&#xE006;" horiz-adv-x="278" d="M86 894H113L200 783L343 894H376L214 729H174L86 894Z"  />
<glyph unicode="&#xE009;" horiz-adv-x="278" d="M46 763Q46 771 50 788T65 822T90 852T127 865Q150 865 167 859T210 843Q238 832 256 826T292 819Q306 819 314 824T328 837T337 854T342 869H363Q361 860 356 843T341 810T316 781T278 768Q258 768 239 776T185 797Q162 806 148 811T120 817Q98 817 85 799T67 763H46Z"  />
<glyph unicode="&#xE00B;" horiz-adv-x="278" d="M75 836Q75 853 88 866T119 880Q136 880 149 867T163 836Q163 818 150 805T119 792Q102 792 89 805T75 836ZM258 836Q258 853 271 866T302 880Q319 880 332 867T346 836Q346 818 333 805T302 792Q285 792 272 805T258 836Z"  />
<glyph unicode="&#xE011;" horiz-adv-x="278" d="M136 816Q136 787 155 767T204 747Q233 747 253 767T273 816Q273 845 253 864T204 884Q175 884 156 865T136 816ZM106 816Q106 860 134 887T204 914Q245 914 274 887T303 816Q303 772 274 745T204 717Q163 717 135 744T106 816Z"  />

</font>
</defs>
</svg>
