<?xml  version="1.0" encoding="UTF-8"?>
<!DOCTYPE svg PUBLIC "-//W3C//DTD SVG 1.0//EN" "http://www.w3.org/TR/2001/REC-SVG-20010904/DTD/svg10.dtd" >
<svg xmlns="http://www.w3.org/2000/svg" >

<defs >
<font horiz-adv-x="516" id="swiggity-swooty">
<font-face font-family="" panose-1="2 4 4 2 5 5 5 3 3 4" ascent="918" descent="-273" units-per-em="1000" alphabetic="0">
</font-face>
<missing-glyph horiz-adv-x="250" />

<glyph unicode="&#xA;" />
<glyph unicode="&#xD;" horiz-adv-x="0" />
<glyph unicode=" " horiz-adv-x="250" />
<glyph unicode="!" horiz-adv-x="296" d="M106 670L170 704H191Q194 684 194 665Q194 617 189 561T179 446T168 326T163 209L141 188L136 191L106 670ZM96 44Q96 64 111 80T148 97Q170 97 185 81T200 44Q200 22 184 8T148 -7Q128 -7 112 7T96 44Z"  />
<glyph unicode="&quot;" horiz-adv-x="481" d="M283 619Q281 635 281 645T280 665Q280 675 288 689T316 703Q336 703 344 689T352 665Q352 656 352 646T349 619L334 460Q333 451 329 442T316 433Q307 433 303 442T298 460L283 619ZM132 620Q130 636 130 646T129 666Q129 676 137 690T165 704Q185 704 193 690T201 666Q201 657 201 647T198 620L183 461Q182 452 178 443T165 434Q156 434 152 443T147 461L132 620Z"  />
<glyph unicode="#" horiz-adv-x="500" d="M168 263H310L332 417H190L168 263ZM114 221H2V263H120L142 417H30V459H148L180 680H228L196 459H338L370 680H418L386 459H498V417H380L358 263H470V221H352L320 0H272L304 221H162L130 0H82L114 221Z"  />
<glyph unicode="$" horiz-adv-x="500" d="M215 657Q157 649 128 613T98 532Q98 482 129 455T215 408V657ZM255 24Q283 28 309 40T354 71T384 117T396 178Q396 206 389 226T365 261T321 287T255 312V24ZM215 -14Q209 -15 203 -15T189 -15Q137 -15 98 -5T32 17L29 21Q34 64 34 104T35 182L38 185H62L65 182Q65 176 66 165T68 142T71 118T75 98Q91 66 122 44T215 21V326L198 332Q171 342 142 353T88 382T49 428T33 502Q33 532 42 562T72 617T128 661T215 687V760L218 763H252L255 760V689H266Q323 689 362 679T429 653L432 649Q430 641 428 625T423 590T419 549T417 510L414 507H388L385 510L383 569Q350 653 255 659V395L288 384Q324 372 357 360T415 328T456 279T471 204Q471 170 458 136T419 73T351 22T255 -10V-114L252 -117H218L215 -114V-14Z"  />
<glyph unicode="%" horiz-adv-x="889" d="M98 500Q98 535 106 568T132 626T179 667T250 683Q326 683 356 640T387 517Q387 464 374 429T340 372T292 341T237 331Q198 331 172 344T129 380T105 434T98 500ZM158 524Q158 489 162 459T177 408T206 374T250 361Q293 361 310 396T327 496Q327 577 305 615T234 653Q193 653 176 619T158 524ZM502 154Q502 189 510 222T536 280T583 321T654 337Q730 337 760 294T791 171Q791 118 778 83T744 26T696 -5T641 -15Q602 -15 576 -2T533 34T509 88T502 154ZM562 178Q562 143 566 113T581 62T610 28T654 15Q697 15 714 50T731 150Q731 231 709 269T638 307Q597 307 580 273T562 178ZM607 712L611 715H648L651 712L282 -44L278 -47H241L238 -44L607 712Z"  />
<glyph unicode="&amp;" horiz-adv-x="796" d="M597 342Q599 332 600 323T602 299Q602 251 581 206T512 113Q526 103 542 92T576 71T612 55T651 48Q677 48 700 59T737 79L741 76L745 55L742 50Q719 36 704 24T667 -8Q656 -12 633 -12Q605 -12 580 -3T532 20T493 47T465 70Q451 58 432 44T389 18T335 -3T269 -12Q214 -12 177 7T116 54T83 116T73 177Q73 215 85 246T118 304T165 350T218 388Q210 407 201 437T191 504Q191 536 197 558T212 598T235 627T264 651Q283 665 297 673T321 684T339 688T351 689Q369 689 383 682T406 662T421 634T426 602Q426 567 410 536T370 479T322 433T279 401Q300 357 328 317T386 241T443 177T491 131Q502 143 512 156T531 186T545 225T551 278Q551 301 545 315T534 340Q519 343 508 344T487 346T467 347T443 348L440 352Q452 363 457 369T471 390Q484 389 494 388T516 387T542 386T577 386Q583 386 598 386T634 386T679 388T729 391L734 384L722 342L715 338L597 342ZM138 202Q138 164 152 134T189 83T242 51T304 39Q344 39 377 53T443 91Q365 163 314 234T230 363Q187 333 163 295T138 202ZM239 541Q239 516 247 483T267 428Q323 466 346 506T369 578Q369 604 355 624T315 644Q288 644 264 619T239 541Z"  />
<glyph unicode="&apos;" horiz-adv-x="260" d="M97 620Q95 636 95 646T94 666Q94 676 102 690T130 704Q150 704 158 690T166 666Q166 657 166 647T163 620L148 461Q147 452 143 443T130 434Q121 434 117 443T112 461L97 620Z"  />
<glyph unicode="(" horiz-adv-x="333" d="M336 726V723Q316 703 287 670T230 584T183 455T163 274Q163 178 180 106T222 -20T277 -111T332 -176V-179L313 -196H310Q286 -172 249 -132T177 -32T116 105T91 281Q91 424 150 539T316 744H319L336 726Z"  />
<glyph unicode=")" horiz-adv-x="333" d="M-3 -178V-175Q17 -155 46 -122T103 -36T150 93T170 274Q170 370 153 442T111 568T56 659T1 724V727L20 744H23Q47 720 84 680T156 580T217 442T242 267Q242 124 183 9T17 -196H14L-3 -178Z"  />
<glyph unicode="*" horiz-adv-x="481" d="M118 664Q150 627 175 602T227 553Q230 571 234 593T242 637T249 675T253 701L261 704L290 696Q297 694 303 693T317 689L320 681Q304 653 294 634T276 601T263 573T250 544Q285 549 324 555T393 568L402 564Q401 556 401 549T403 534L406 503L400 498Q360 507 327 512T249 520Q266 481 283 450T317 393L313 385Q307 381 301 378T287 371L261 355L253 357Q251 372 249 387T244 420T236 459T224 509Q201 489 171 463T109 407L100 410Q97 417 95 423T90 436Q84 448 76 462L80 472Q97 479 117 487T156 503T191 518T217 531Q185 548 148 568T78 602L75 611Q80 617 84 623T94 638Q97 644 101 650T109 664H118Z"  />
<glyph unicode="+" horiz-adv-x="600" d="M276 229H47V277H276V506H324V277H553V229H324V0H276V229Z"  />
<glyph unicode="&#x2c;" horiz-adv-x="250" d="M-7 -141Q17 -104 34 -68T62 1T79 58T86 99Q101 101 112 103T133 108T153 114T175 121L182 113Q169 84 151 50T114 -18T75 -80T40 -129L1 -149L-7 -141Z"  />
<glyph unicode="-" horiz-adv-x="426" d="M358 264Q343 248 337 223Q305 224 272 225T207 226Q175 226 142 225T76 223L68 229L89 271Q123 270 156 269T222 268Q255 268 287 269T353 271L358 264Z"  />
<glyph unicode="." horiz-adv-x="250" d="M73 44Q73 64 88 80T125 97Q147 97 162 81T177 44Q177 22 161 8T125 -7Q105 -7 89 7T73 44Z"  />
<glyph unicode="/" horiz-adv-x="315" d="M236 701L239 704H280L283 701L80 -12L77 -15H35L32 -12L236 701Z"  />
<glyph unicode="0" horiz-adv-x="500" d="M250 15Q283 15 305 30T343 71T366 131T379 201T384 275T385 344Q385 368 385 400T380 466T368 534T344 594T306 637T249 653Q204 653 177 627T135 557T116 454T111 328Q111 275 115 220T135 119T177 44T250 15ZM241 -15Q192 -15 158 4T102 53T68 122T51 199T44 274T43 335Q43 445 64 513T118 619T188 670T257 683Q306 683 340 665T396 618T430 553T449 480T456 410T457 353Q457 326 455 289T446 210T424 129T385 57T326 5T241 -15Z"  />
<glyph unicode="1" horiz-adv-x="500" d="M236 596Q236 607 235 610T231 614Q228 614 213 608T181 592L64 532L59 535Q57 546 56 557T54 574Q54 576 55 578T61 582T76 589T105 599Q130 608 158 620T214 645T264 670T303 692L314 683Q310 661 309 634T308 557V117Q308 90 309 75T312 51T316 41T322 36Q330 31 344 31T388 28L432 26L435 23V0L432 -3Q396 -2 357 -1T272 0Q226 0 187 -1T112 -3L109 0V23L112 26L156 28Q185 30 199 30T222 36Q225 38 227 40T232 51T235 74T236 117V596Z"  />
<glyph unicode="2" horiz-adv-x="500" d="M30 27L71 69Q159 160 214 220T301 323T343 401T354 474Q354 543 318 580T220 618Q198 618 179 613T144 601T120 588T109 579Q106 574 102 561T92 533T83 503T75 478L72 475H52L49 478Q55 510 60 547T67 619L70 623Q77 628 92 638T129 658T178 675T235 683Q281 683 317 669T378 631T416 572T429 498Q429 473 422 446T397 386T345 311T259 218L105 65H295Q364 65 401 67T464 72L467 69Q464 54 464 34Q464 13 467 0L464 -3Q411 -2 359 -1T255 0Q198 0 143 -1T33 -3L30 0V27Z"  />
<glyph unicode="3" horiz-adv-x="500" d="M47 166L50 163Q65 121 83 94T121 50T165 28T216 21Q243 21 271 30T322 59T360 113T375 193Q375 233 364 260T333 303T290 327T241 334Q220 334 196 328T156 314L150 318Q155 335 157 343T162 369Q170 367 178 366T202 364Q236 364 262 375T307 404T334 448T344 502Q344 521 338 541T317 579T278 607T216 618Q196 618 179 614T149 605T128 594T118 586Q116 584 113 575T104 553T94 526T85 500L82 497H59L56 500Q68 532 75 566T88 626Q97 635 112 645T146 663T189 677T239 683Q271 683 302 674T357 645T397 596T412 529Q412 500 400 476T371 431T335 394T299 368Q312 366 337 361T388 341T433 298T453 223Q453 173 431 130T371 54T285 4T184 -15Q153 -15 121 -9T58 12Q50 66 40 103T24 155L27 160L47 166Z"  />
<glyph unicode="4" horiz-adv-x="500" d="M289 181H169Q118 181 85 181T23 179L14 200Q75 313 137 418T257 611L291 665L352 692L361 683L359 232Q388 232 410 232T453 235L456 232Q455 224 455 218T454 206Q454 199 454 193T456 179L453 176Q447 177 433 177T404 179T376 180T357 181V117Q357 91 358 76T362 53T367 41T373 36Q381 31 390 30T417 28L458 26L461 23V0L458 -3Q427 -2 399 -1T325 0Q279 0 241 -1T171 -3L168 0V23L171 26L209 28Q238 30 252 30T275 36Q278 38 280 40T285 51T288 74T289 117V181ZM293 611L291 613Q232 519 174 422T67 232H291L293 611Z"  />
<glyph unicode="5" horiz-adv-x="500" d="M39 150L42 148Q53 123 68 101T104 63T149 37T205 27Q241 27 272 40T325 76T360 132T373 204Q373 234 365 265T338 323T292 366T222 383Q194 383 173 377T135 362T107 340T86 317L72 320Q73 339 74 363T77 414T79 467T80 516Q80 558 80 597T74 671L82 678Q106 676 130 675T191 674Q213 674 242 674T301 674T360 676T410 678L414 674Q411 660 411 640Q411 620 414 608L408 602Q377 606 347 608T269 610Q218 610 182 609T118 605Q113 554 112 500T108 389Q117 397 129 406T157 424T195 437T244 443Q290 443 326 428T388 386T427 324T441 251Q441 190 417 141T354 58T265 4T163 -15Q130 -15 108 -8T72 9Q60 44 47 76T20 138L23 142L39 150Z"  />
<glyph unicode="6" horiz-adv-x="500" d="M416 674L413 668Q402 666 378 658T322 635T258 594T197 531T148 443T123 326Q177 369 202 386Q210 392 233 401T288 410Q318 410 348 399T403 366T442 309T458 227Q458 174 441 130T394 53T325 3T240 -15Q201 -15 165 0T102 48T59 131T42 253Q42 352 76 428T162 559T275 645T390 688L416 674ZM390 194Q390 227 381 256T355 308T312 343T255 356Q228 356 205 348T165 328T136 303T120 277Q119 273 118 265T116 248T115 229T114 213Q114 192 117 158T135 92T178 36T255 12Q290 12 315 27T357 67T382 126T390 194Z"  />
<glyph unicode="7" horiz-adv-x="500" d="M493 652Q466 606 437 548T379 428T322 302T270 182T228 78T200 2L195 -3Q190 -2 180 -1T157 0Q144 0 133 -1T115 -3L110 2Q188 151 266 302T431 602L426 608Q400 611 361 611H149Q126 611 118 596T105 542L97 483L94 480H74L71 483Q74 535 74 584Q74 610 73 633T69 677L74 683Q103 680 131 679T189 676Q218 675 246 675T303 674Q340 674 391 674T490 678L493 675V652Z"  />
<glyph unicode="8" horiz-adv-x="500" d="M40 162Q40 204 58 235T100 289T149 326T188 347Q128 375 96 409T64 499Q64 539 79 572T121 630T183 669T258 683Q300 683 333 672T389 641T425 595T437 540Q437 505 423 479T387 432T342 398T297 376Q331 362 361 347T413 312T447 263T460 195Q460 159 445 122T402 54T331 4T233 -15Q187 -15 151 0T91 40T53 97T40 162ZM108 171Q108 138 118 110T147 62T193 30T255 18Q280 18 305 26T352 52T386 96T400 158Q400 195 388 220T352 263T294 298T217 334Q186 318 165 297T132 254T114 209T108 171ZM124 530Q124 502 137 481T170 442T216 412T268 388Q287 396 305 408T339 437T363 476T372 526Q372 591 337 622T251 653Q225 653 202 645T162 621T135 583T124 530Z"  />
<glyph unicode="9" horiz-adv-x="500" d="M84 -6L87 0Q98 2 122 10T178 33T242 74T303 137T352 224T377 342Q323 299 298 282Q290 276 267 267T212 258Q182 258 152 269T97 302T58 359T42 441Q42 494 59 538T106 615T175 665T260 683Q299 683 335 668T398 620T441 537T458 415Q458 316 424 240T338 109T225 23T110 -20L84 -6ZM110 474Q110 441 119 412T145 360T188 325T245 312Q272 312 295 320T335 340T364 365T380 391Q381 395 382 403T384 420T385 439T386 455Q386 476 383 510T365 576T322 632T245 656Q210 656 185 641T143 601T118 542T110 474Z"  />
<glyph unicode=":" horiz-adv-x="250" d="M73 389Q73 409 88 425T125 442Q147 442 162 426T177 389Q177 367 161 353T125 338Q105 338 89 352T73 389ZM73 44Q73 64 88 80T125 97Q147 97 162 81T177 44Q177 22 161 8T125 -7Q105 -7 89 7T73 44Z"  />
<glyph unicode=";" horiz-adv-x="250" d="M-7 -141Q17 -104 34 -68T62 1T79 58T86 99Q101 101 112 103T133 108T153 114T175 121L182 113Q169 84 151 50T114 -18T75 -80T40 -129L1 -149L-7 -141ZM73 389Q73 409 88 425T125 442Q147 442 162 426T177 389Q177 367 161 353T125 338Q105 338 89 352T73 389Z"  />
<glyph unicode="&lt;" horiz-adv-x="600" d="M47 226V280L553 514V460L107 253L553 46V-8L47 226Z"  />
<glyph unicode="=" horiz-adv-x="600" d="M47 375H553V327H47V375ZM47 179H553V131H47V179Z"  />
<glyph unicode="&gt;" horiz-adv-x="600" d="M553 280V226L47 -8V46L493 253L47 460V514L553 280Z"  />
<glyph unicode="?" horiz-adv-x="463" d="M206 196H202Q169 223 169 257Q169 278 183 302T217 349L257 395Q286 429 305 459T325 525Q325 548 318 569T294 607T255 634T198 644Q181 644 162 639T130 626Q119 606 108 586T89 547L84 544L66 548L63 552Q77 587 85 615T100 665Q112 674 127 681T160 693T195 701T227 704Q259 704 290 693T345 661T385 610T400 541Q400 515 392 493T368 450T331 407T285 360Q255 331 239 313T214 284T204 266T202 249Q202 235 208 227T218 215V209L206 196ZM150 44Q150 64 165 80T202 97Q224 97 239 81T254 44Q254 22 238 8T202 -7Q182 -7 166 7T150 44Z"  />
<glyph unicode="@" horiz-adv-x="800" d="M519 418Q519 459 504 472T467 486Q446 486 421 472T374 429T337 359T322 262Q322 221 336 204T372 186Q399 186 425 205T472 257T506 331T519 418ZM645 44Q593 18 542 2T430 -14Q328 -14 254 20T133 105T64 216T41 329Q41 413 70 482T152 601T274 677T428 704Q504 704 565 680T669 613T735 516T759 398Q759 347 745 302T706 223T644 170T565 150Q539 150 523 158T497 179T483 203T479 223H477Q452 191 423 171T358 150Q312 150 281 182T250 279Q250 326 266 371T311 451T377 507T457 528Q489 528 506 514T531 474H533L542 515H610L546 261Q543 249 541 238T539 218Q539 201 548 191T576 180Q611 180 639 196T688 242T718 310T729 397Q729 453 707 503T646 591T553 651T435 674Q361 674 302 651T201 583T137 472T115 318Q115 262 136 208T197 111T296 42T429 16Q496 16 542 30T632 65L645 44Z"  />
<glyph unicode="A" horiz-adv-x="704" d="M289 565Q303 598 316 630T342 697H369L583 164Q600 121 612 95T635 53T656 33T681 27H712L715 24V0L712 -3Q685 -2 657 -1T599 0Q563 0 527 -1T457 -3L454 0V24L457 27H482Q520 27 529 34T539 50Q539 56 537 64T531 84T519 114T501 159L474 229Q438 230 402 230T330 231Q296 231 262 231T192 229L162 152Q151 125 145 109T136 82T131 66T130 55Q130 44 140 36T190 27H217L220 24V0L217 -3Q188 -2 158 -1T95 0Q69 0 43 -1T-8 -3L-11 0V23L-8 27Q19 27 35 30T65 52T97 110T145 220L289 565ZM336 587L206 266Q238 265 268 265T330 264Q363 264 396 264T462 266L336 587Z"  />
<glyph unicode="B" horiz-adv-x="574" d="M104 578Q104 615 103 628T97 646Q94 651 84 655T44 661L8 663L5 666V689L8 692Q40 691 73 690T142 689Q178 689 219 690T299 692Q336 692 371 686T435 664T481 622T499 555Q499 520 485 492T446 443T392 409T329 392V390Q365 388 401 380T467 352T515 302T534 222Q534 183 519 149T479 88T419 41T345 10Q327 5 305 1T247 -3Q222 -3 205 -3T176 -2T156 -1T141 0Q121 0 102 -1T63 -3L60 0V20L63 23L91 38Q97 40 97 47Q101 89 102 135T104 228V578ZM179 152Q179 138 179 121T180 88T181 60T182 41Q195 36 213 33T254 30Q304 30 340 43T401 81T437 138T449 211Q449 260 433 290T388 338T321 362T241 369Q222 369 208 368T179 366V152ZM179 402H245Q288 402 313 406T360 425Q382 439 401 465T421 534Q421 572 407 596T370 635T320 654T267 659Q243 659 224 658T183 653Q182 642 181 632T180 609T179 583T179 548V402Z"  />
<glyph unicode="C" horiz-adv-x="685" d="M645 36Q631 28 613 19T571 3T516 -10T442 -15Q355 -15 283 11T160 84T80 195T51 335Q51 418 79 490T175 618Q225 659 290 681T419 704Q466 704 501 699T564 688T615 675T659 666L662 663Q651 631 645 597T636 521L633 518H612L609 521Q609 535 609 545T609 564T607 583T605 609Q566 641 521 654T417 668Q364 668 314 651T224 596T160 499T136 358Q136 302 156 244T216 137T316 58T458 27Q500 27 531 33T587 50T628 71T660 93L669 85L645 36Z"  />
<glyph unicode="D" horiz-adv-x="759" d="M192 149Q192 123 192 93T195 40Q214 36 244 35T310 33Q380 33 437 55T534 120T597 223T620 358Q620 425 604 474T562 556T501 609T431 641T360 655T296 659Q265 659 240 657T198 652Q194 625 193 592T192 511V149ZM117 578Q117 615 116 628T110 646Q107 651 97 655T57 661L21 663L18 666V689L21 692Q53 691 86 690T155 689Q211 689 261 690T344 692Q383 692 425 687T508 668T585 631T648 572T692 488T708 374Q708 312 685 245T614 123T491 33T310 -3Q271 -3 232 -2T154 0Q134 0 115 -1T76 -3L73 0V20L76 23L104 38Q110 40 110 47Q114 89 115 135T117 228V578Z"  />
<glyph unicode="E" horiz-adv-x="574" d="M117 578Q117 615 116 628T110 646Q107 651 97 655T57 661L21 663L18 666V689L21 692Q58 691 95 690T169 689Q258 689 345 690T522 692L525 689Q520 661 518 635T514 589T512 555T511 538L508 535H484L481 538Q481 550 481 558T480 576T478 599T474 635Q439 645 401 650T310 656Q281 656 250 656T195 653Q193 627 193 608T192 560V374Q209 372 233 372T284 371Q302 371 322 371T360 373T391 375T408 379Q412 382 414 385T419 397T422 419T426 457L429 460H450L453 457Q452 437 451 410T450 349Q450 310 451 281T453 242L450 239H429L426 242Q424 268 422 283T418 307T412 319T401 326Q394 329 380 330T351 333T320 334T293 335Q270 335 243 335T192 332V161Q192 132 192 99T194 33H331Q370 33 410 37T489 51Q495 72 498 86T504 113T509 136T513 163L516 166H538L541 163Q537 127 535 104T532 64T531 32T531 0L528 -3Q471 -2 398 -1T222 0Q165 0 126 -1T76 -3L73 0V20L76 23L104 38Q110 40 110 47Q114 89 115 135T117 228V578Z"  />
<glyph unicode="F" horiz-adv-x="519" d="M117 578Q117 615 116 628T110 646Q107 651 97 655T57 661L21 663L18 666V689L21 692Q58 691 95 690T169 689Q254 689 337 690T505 692L508 689Q503 665 501 640T497 593T495 556T494 538L491 535H467L464 538Q464 550 464 558T463 576T461 599T457 635Q422 645 387 650T316 656Q282 656 253 654T195 648Q193 625 193 607T192 560V374Q209 372 232 372T277 371Q295 371 315 371T353 373T384 375T401 379Q405 382 407 385T412 397T415 419T419 457L422 460H443L446 457Q445 437 444 410T443 349Q443 310 444 281T446 242L443 239H422L419 242Q417 268 415 283T411 307T405 319T394 326Q387 329 373 330T344 333T313 334T286 335Q268 335 242 335T192 332V111Q192 74 193 61T199 43Q202 38 212 34T252 28L288 26L291 23V0L288 -3Q256 -2 223 -1T155 0Q120 0 87 -1T21 -3L18 0V23L21 26L57 28Q86 30 96 34T110 43Q114 48 115 61T117 111V578Z"  />
<glyph unicode="G" horiz-adv-x="778" d="M501 273L504 276Q530 275 567 274T638 273Q661 273 687 274T728 276L731 273V250L728 247L694 228Q694 220 694 208T693 181T692 155T691 137Q691 128 691 114T692 86T694 59T697 38L694 35Q681 30 656 22T596 5T520 -9T433 -15Q354 -15 284 8T160 78T76 191T45 347Q45 431 78 497T166 609T291 679T437 704Q525 704 589 689T691 660L694 657Q688 633 685 615T679 581T676 549T672 513L669 510H648L645 513Q645 517 644 530T642 560T640 590T636 610Q554 668 429 668Q361 668 307 647T214 585T154 488T133 361Q133 286 156 224T220 117T317 47T442 22Q501 22 543 34T614 56Q615 62 616 70T617 89T618 118T619 160V211Q619 229 609 236T558 245L504 247L501 250V273Z"  />
<glyph unicode="H" horiz-adv-x="796" d="M117 578Q117 615 116 628T110 646Q107 651 97 655T57 661L21 663L18 666V689L21 692Q53 691 86 690T155 689Q189 689 222 690T288 692L291 689V666L288 663L252 661Q223 659 213 655T199 646Q195 641 194 628T192 578V384Q243 383 295 382T399 381Q450 381 501 382T604 384V578Q604 615 603 628T597 646Q594 651 584 655T544 661L508 663L505 666V689L508 692Q540 691 573 690T641 689Q676 689 709 690T775 692L778 689V666L775 663L739 661Q710 659 700 655T686 646Q682 641 681 628T679 578V111Q679 74 680 61T686 43Q689 38 699 34T739 28L775 26L778 23V0L775 -3Q743 -2 710 -1T641 0Q607 0 574 -1T508 -3L505 0V23L508 26L544 28Q573 30 583 34T597 43Q601 48 602 61T604 111V342Q553 343 502 344T399 345Q347 345 295 344T192 342V111Q192 74 193 61T199 43Q202 38 212 34T252 28L288 26L291 23V0L288 -3Q256 -2 223 -1T155 0Q120 0 87 -1T21 -3L18 0V23L21 26L57 28Q86 30 96 34T110 43Q114 48 115 61T117 111V578Z"  />
<glyph unicode="I" horiz-adv-x="315" d="M120 578Q120 615 119 628T113 646Q110 651 100 655T60 661L24 663L21 666V689L24 692Q56 691 89 690T158 689Q192 689 225 690T291 692L294 689V666L291 663L255 661Q226 659 216 655T202 646Q198 641 197 628T195 578V111Q195 74 196 61T202 43Q205 38 215 34T255 28L291 26L294 23V0L291 -3Q259 -2 226 -1T158 0Q123 0 90 -1T24 -3L21 0V23L24 26L60 28Q89 30 99 34T113 43Q117 48 118 61T120 111V578Z"  />
<glyph unicode="J" horiz-adv-x="315" d="M120 578Q120 615 119 628T113 646Q110 651 100 655T60 661L24 663L21 666V689L24 692Q56 691 89 690T158 689Q192 689 225 690T291 692L294 689V666L291 663L255 661Q226 659 216 655T202 646Q198 641 197 628T195 578V132Q195 79 190 30T165 -67Q156 -91 141 -113T107 -153T63 -181T11 -192Q6 -192 1 -192T-10 -190Q-9 -182 -8 -174T-7 -154Q-7 -143 -8 -131T-10 -112L-2 -108Q9 -121 21 -128T50 -135Q66 -135 79 -130T101 -107T115 -58T120 26V578Z"  />
<glyph unicode="K" horiz-adv-x="685" d="M117 578Q117 615 116 628T110 646Q107 651 97 655T57 661L21 663L18 666V689L21 692Q53 691 86 690T155 689Q189 689 222 690T288 692L291 689V666L288 663L252 661Q223 659 213 655T199 646Q195 641 194 628T192 578V363Q226 392 265 428T346 504T429 587T509 672V689L512 692Q523 691 536 690T564 689Q587 689 610 690T654 692L657 689V666L654 663Q631 663 618 662T594 657T576 649T556 635Q541 624 519 606T471 565T414 515T351 458L259 374L611 59Q623 49 630 43T646 33T664 28T690 27L693 24V0L690 -3Q674 -2 657 -1T621 0Q607 0 593 -1T565 -3Q559 3 555 7T546 15T534 26T516 43L192 333V111Q192 74 193 61T199 43Q202 38 212 34T252 28L288 26L291 23V0L288 -3Q256 -2 223 -1T155 0Q120 0 87 -1T21 -3L18 0V23L21 26L57 28Q86 30 96 34T110 43Q114 48 115 61T117 111V578Z"  />
<glyph unicode="L" horiz-adv-x="593" d="M117 578Q117 615 116 628T110 646Q107 651 97 655T57 661L21 663L18 666V689L21 692Q53 691 86 690T155 689Q189 689 222 690T288 692L291 689V666L288 663L252 661Q223 659 213 655T199 646Q195 641 194 628T192 578V103Q192 83 193 70T196 36H326Q387 36 429 42T500 57Q505 74 508 85T515 108T521 134T530 171L533 174H556L559 171Q551 129 545 84T538 0L535 -3Q457 -2 381 -1T226 0Q195 0 173 0T133 -1T102 -2T76 -3L73 0V20L76 23L110 41Q114 88 115 134T117 228V578Z"  />
<glyph unicode="M" horiz-adv-x="907" d="M18 23L21 26L56 28Q79 30 87 33T101 42Q103 44 105 50T109 71Q110 85 113 147T116 302V575Q116 602 114 618T107 644T92 656T69 661L21 663L18 666V689L21 692Q37 691 62 690T121 689Q139 689 157 690T193 692L245 568L455 101L676 575Q690 604 702 633T726 692Q747 691 766 690T804 689Q833 689 854 690T886 692L889 689V666L886 663L850 661Q821 659 811 655T797 646Q793 641 792 628T790 578V111Q790 74 791 61T797 43Q800 38 810 34T850 28L886 26L889 23V0L886 -3Q854 -2 821 -1T752 0Q718 0 685 -1T619 -3L616 0V23L619 26L655 28Q684 30 694 34T708 43Q712 48 713 61T715 111V572H713L479 69Q459 28 443 -12H426Q415 14 403 42T382 90L154 590H152V302Q152 210 154 148T159 71Q161 57 163 51T167 42Q172 37 180 34T212 28L247 26L250 23V0L247 -3Q229 -2 201 -1T134 0Q96 0 68 -1T21 -3L18 0V23Z"  />
<glyph unicode="N" horiz-adv-x="796" d="M116 575Q116 602 114 618T107 644T92 656T69 661L21 663L18 666V689L21 692Q38 691 55 690T90 689Q110 689 130 690T171 692Q194 660 228 616T302 521T386 415T474 304T562 197T644 100V387Q644 479 641 541T637 618Q635 632 633 638T629 647Q624 652 616 655T584 661L549 663L546 666V689L549 692Q567 691 595 690T662 689Q700 689 728 690T775 692L778 689V666L775 663L740 661Q717 659 709 656T695 647Q693 645 691 639T687 618Q685 604 683 542T680 387V87Q680 52 681 27T684 -19Q658 -9 631 -6L154 588H152V302Q152 210 154 148T159 71Q161 57 163 51T167 42Q172 37 180 34T212 28L247 26L250 23V0L247 -3Q229 -2 201 -1T134 0Q96 0 68 -1T21 -3L18 0V23L21 26L56 28Q79 30 87 33T101 42Q103 44 105 50T109 71Q110 85 113 147T116 302V575Z"  />
<glyph unicode="O" horiz-adv-x="815" d="M127 383Q127 314 144 248T195 131T283 49T409 18Q454 18 503 33T592 85T659 182T685 332Q685 417 663 481T602 588T511 652T397 674Q345 674 296 657T210 603T150 512T127 383ZM45 335Q45 432 75 502T156 617T271 683T404 704Q489 704 557 681T672 613T744 504T770 358Q770 289 746 223T673 103T555 18T391 -15Q324 -15 273 1T183 45T118 108T75 182T52 260T45 335Z"  />
<glyph unicode="P" horiz-adv-x="593" d="M123 578Q123 615 122 628T116 646Q113 651 103 655T63 661L27 663L24 666V689L27 692Q59 691 92 690T161 689Q193 689 235 690T323 692Q377 692 422 685T501 658T552 608T571 528Q571 499 558 464T515 399T439 349T326 328Q290 328 262 338L253 366L256 369Q270 364 284 361T317 358Q366 358 399 372T452 409T480 460T489 514Q489 551 477 578T442 624T388 650T318 659Q278 659 250 657T202 652Q200 632 199 603T198 533V111Q198 74 199 61T205 43Q208 38 218 34T258 28L294 26L297 23V0L294 -3Q262 -2 229 -1T161 0Q126 0 93 -1T27 -3L24 0V23L27 26L63 28Q92 30 102 34T116 43Q120 48 121 61T123 111V578Z"  />
<glyph unicode="Q" horiz-adv-x="815" d="M127 383Q127 314 144 248T195 131T283 49T409 18Q454 18 503 33T592 85T659 182T685 332Q685 417 663 481T602 588T511 652T397 674Q345 674 296 657T210 603T150 512T127 383ZM404 704Q489 704 557 681T672 613T744 504T770 358Q770 292 747 227T680 111T569 26T417 -11V-13Q434 -13 456 -21T525 -48Q574 -68 606 -79T659 -95T693 -101T718 -102Q738 -102 753 -98T782 -87L785 -90V-106L782 -110Q779 -112 770 -117T750 -129T729 -143T714 -155Q712 -157 702 -158T680 -159Q649 -159 605 -144T509 -110Q473 -97 452 -89T417 -77T394 -71T375 -70Q354 -70 335 -78T282 -110L279 -107V-88L282 -83Q290 -77 303 -67T332 -46T364 -27T395 -17V-15H391Q324 -15 273 1T183 45T118 108T75 182T52 260T45 335Q45 432 75 502T156 617T271 683T404 704Z"  />
<glyph unicode="R" horiz-adv-x="630" d="M117 578Q117 615 116 628T110 646Q107 651 97 655T57 661L21 663L18 666V689L21 692Q53 691 86 690T155 689Q193 689 237 690T316 692Q361 692 403 686T479 663T532 616T552 538Q552 497 534 464T485 407T416 368T336 349L561 69Q572 55 579 47T595 34T613 28T638 26L641 23V0L638 -3Q623 -2 607 -1T575 0Q561 0 548 -1T518 -3Q453 79 397 150Q373 180 348 211T301 271T259 322T228 360L231 373Q243 371 253 371T274 370Q327 370 364 384T425 420T459 470T470 525Q470 567 454 593T412 634T353 654T287 659Q260 659 236 657T197 651Q194 619 193 577T192 489V111Q192 74 193 61T199 43Q202 38 212 34T252 28L288 26L291 23V0L288 -3Q256 -2 223 -1T155 0Q120 0 87 -1T21 -3L18 0V23L21 26L57 28Q86 30 96 34T110 43Q114 48 115 61T117 111V578Z"  />
<glyph unicode="S" horiz-adv-x="556" d="M416 518L413 521L411 582Q376 671 269 671Q234 671 207 661T162 633T135 592T126 544Q126 510 139 488T178 449T238 419T316 393Q352 382 385 369T443 336T484 286T499 209Q499 170 482 130T431 58T343 5T217 -15Q165 -15 126 -4T60 18L57 22Q62 66 62 107T63 187L66 190H90L93 187Q93 180 94 169T96 146T99 121T103 101Q111 84 122 70T151 45T191 28T246 21Q280 21 312 31T369 61T409 112T424 182Q424 216 414 238T380 277T319 308T226 340Q198 349 169 360T116 390T77 438T61 513Q61 548 72 582T111 643T183 687T294 704Q351 704 390 694T457 668L460 664Q458 655 456 639T451 602T447 561T445 521L442 518H416Z"  />
<glyph unicode="T" horiz-adv-x="557" d="M241 511Q241 555 240 593T238 653H205Q175 653 147 652T100 649Q81 647 71 646T56 642T50 632T47 613L39 536L36 533H13L10 536Q11 584 9 622T3 689L6 692Q39 692 72 692T140 690Q175 690 209 690T278 689Q313 689 347 689T417 690Q451 691 484 691T551 692L554 689Q551 660 549 622T547 536L544 533H521L518 536L510 613Q509 625 508 631T502 641T487 646T457 649Q439 651 411 652T352 653H319Q318 632 317 594T316 511V111Q316 74 317 61T323 43Q326 38 336 34T376 28L412 26L415 23V0L412 -3Q380 -2 347 -1T279 0Q244 0 211 -1T145 -3L142 0V23L145 26L181 28Q210 30 220 34T234 43Q238 48 239 61T241 111V511Z"  />
<glyph unicode="U" horiz-adv-x="741" d="M105 578Q105 615 104 628T98 646Q95 651 85 655T45 661L9 663L6 666V689L9 692Q41 691 75 690T144 689Q177 689 210 690T276 692L279 689V666L276 663L240 661Q211 659 201 655T187 646Q183 641 182 628T180 578V222Q180 181 189 146T222 85T282 45T377 30Q462 30 508 57T578 130Q592 159 596 196T601 295V387Q601 479 598 541T594 618Q592 632 590 638T586 647Q581 652 573 655T541 661L506 663L503 666V689L506 692Q524 691 552 690T619 689Q657 689 685 690T732 692L735 689V666L732 663L697 661Q674 659 666 656T652 647Q650 645 648 639T644 618Q642 604 640 542T637 387V302Q637 263 636 235T633 186T627 149T615 116Q602 88 582 64T532 23T461 -5T365 -15Q284 -15 233 2T154 49T115 116T105 196V578Z"  />
<glyph unicode="V" horiz-adv-x="648" d="M97 522Q77 571 65 598T44 639T27 656T5 661L-18 663L-21 666V689L-18 692Q9 691 37 690T95 689Q128 689 160 690T223 692L226 689V666L223 663L186 661Q169 660 156 656T142 638Q142 625 147 609T157 581L341 95L466 419Q499 504 520 561T542 638Q542 651 531 655T501 661L455 663L452 666V689L455 692Q482 691 510 690T568 689Q594 689 618 690T666 692L669 689V666L666 663L637 661Q629 660 623 658T612 651T602 636T589 610Q572 574 551 525T510 427L363 56Q356 39 350 22T340 -9H304Q299 7 293 24T280 57L97 522Z"  />
<glyph unicode="W" horiz-adv-x="963" d="M88 551Q79 589 73 610T59 643T42 657T18 661L-7 663L-10 666V689L-7 692Q14 691 43 690T100 689Q134 689 172 690T235 692L238 689V666L235 663L182 661Q150 659 150 640Q150 635 152 626T156 605L262 110H264L485 696H506L705 110H707L836 581Q838 589 842 606T847 638Q847 646 838 652T801 661L760 663L757 666V689L760 692Q789 691 819 690T878 689Q901 689 924 690T970 692L973 689V666L970 663L944 661Q920 659 912 650T899 630Q897 627 891 609T876 566T861 519T849 483L705 -9H674L473 561L251 -9H218L88 551Z"  />
<glyph unicode="X" horiz-adv-x="611" d="M275 350L206 462Q163 531 137 569T93 626T65 648T41 652Q35 652 28 651T15 649L12 652V675L15 678L137 700L154 680Q180 648 200 617T246 543L322 413L408 538Q428 567 443 589T471 630T492 663T510 692Q521 691 534 690T563 689Q576 689 586 690T605 692L608 689V666L605 663L582 661Q575 660 569 658T556 651T541 637T520 613L342 380L505 118Q534 70 550 50T586 28L613 26L616 23V0L613 -3Q599 -2 582 -1T545 0Q528 0 514 -1T488 -3Q480 8 467 28T440 72L296 315L266 270Q234 222 211 187T168 121T131 62T92 -3Q84 -2 74 -1T48 0Q33 0 20 -1T-2 -3L-5 0V23L-2 26L23 28Q34 29 42 36T66 65Q87 94 115 130T170 204L275 350Z"  />
<glyph unicode="Y" horiz-adv-x="593" d="M273 289Q248 332 224 373T179 450T140 513T112 555Q89 587 73 606T44 635T17 650T-13 657L-16 660V677L-13 680L81 704Q89 700 94 697T107 688Q121 677 140 652T181 592T224 520T266 446T301 379T327 330L415 473Q430 498 448 529T485 592T518 649T542 692Q550 691 558 690T574 689Q582 689 590 690T606 692L609 689V677L606 674Q571 639 533 584T446 456Q408 399 389 366T358 311Q350 296 349 285T348 250V111Q348 74 349 61T355 43Q358 38 368 34T408 28L444 26L447 23V0L444 -3Q412 -2 379 -1T311 0Q276 0 243 -1T177 -3L174 0V23L177 26L213 28Q242 30 252 34T266 43Q270 48 271 61T273 111V289Z"  />
<glyph unicode="Z" horiz-adv-x="630" d="M7 20Q129 175 243 333T470 653H363Q353 653 329 653T274 653T212 651T157 647Q141 645 131 642T115 631T106 609T100 571L96 532L93 529H72L69 532Q69 538 69 549T70 574T71 598T71 613Q71 641 70 658T67 689L70 692Q118 691 181 690T324 689Q408 689 477 690T581 692L584 689V667Q564 644 539 611T485 538T423 454T358 365Q324 319 291 274T226 185T168 104T119 36H283Q312 36 344 36T406 38T461 41T502 47Q517 50 525 56T539 75T548 111T558 172L561 175H584L587 172Q585 151 584 133T581 94T579 52T578 0L575 -3Q491 -2 409 -1T243 0Q143 0 89 -1T10 -3L7 0V20Z"  />
<glyph unicode="[" horiz-adv-x="333" d="M122 549Q122 564 122 586T120 633T118 681T116 722L119 725Q142 724 165 723T212 722Q235 722 256 723T301 725L304 722V694L301 691L235 687Q218 686 210 682T197 658Q195 650 194 634T192 596T191 552T190 507V41Q190 20 190 -3T191 -48T193 -85T197 -110Q202 -129 210 -133T235 -139L301 -143L304 -146V-174L301 -177Q278 -176 257 -175T212 -174Q189 -174 166 -175T119 -177L116 -174Q117 -158 118 -134T120 -86T121 -39T122 -1V549Z"  />
<glyph unicode="\" horiz-adv-x="315" d="M283 -12L280 -15H238L235 -12L32 701L35 704H76L79 701L283 -12Z"  />
<glyph unicode="]" horiz-adv-x="333" d="M211 -1Q211 -16 211 -38T213 -85T215 -134T217 -174L214 -177Q191 -176 168 -175T121 -174Q98 -174 77 -175T32 -177L29 -174V-146L32 -143L98 -139Q115 -138 123 -134T136 -110Q138 -102 139 -86T141 -48T142 -4T143 41V507Q143 528 143 551T142 596T140 633T136 658Q131 677 123 681T98 687L32 691L29 694V722L32 725Q55 724 76 723T121 722Q144 722 167 723T214 725L217 722Q216 705 215 682T213 634T212 587T211 549V-1Z"  />
<glyph unicode="^" horiz-adv-x="600" d="M276 674H324L507 309H453L300 609L147 309H93L276 674Z"  />
<glyph unicode="_" horiz-adv-x="500" d="M0 -125V-75H500V-125H0Z"  />
<glyph unicode="`" horiz-adv-x="259" d="M6 657Q-8 665 -13 672T-18 691Q-18 704 -9 714T17 725Q28 725 37 719T56 702L202 556H168L6 657Z"  />
<glyph unicode="a" horiz-adv-x="481" d="M324 259Q298 251 261 244T191 224Q175 218 160 210T134 191T116 165T109 128Q109 112 113 96T127 68T153 47T195 39Q219 39 239 47T276 68T305 92T324 114V259ZM389 77Q389 60 391 50T398 35T413 26T440 22L462 20L465 17V0L462 -3Q446 -2 428 -1T392 0Q374 0 355 -1T327 -3L321 3Q324 40 324 79Q310 65 291 49T240 9Q223 -3 208 -7T171 -12Q100 -12 69 22T37 116Q37 169 66 197T142 241Q186 256 235 264T324 283V303Q324 368 297 395T211 423Q187 423 170 418T144 406Q136 401 133 396T125 381L106 334L103 331L83 337L80 340L78 404L81 408Q93 416 108 426T144 446T189 461T245 468Q260 468 278 465T314 454T347 433T373 400Q385 375 387 344T389 264V77Z"  />
<glyph unicode="b" horiz-adv-x="537" d="M148 163Q148 142 149 118T150 87Q174 63 206 48T273 33Q313 33 342 50T391 95T420 158T430 230Q430 260 423 292T398 352T354 396T285 414Q262 414 243 407T209 391T185 374T172 362Q163 353 159 346T152 330T149 310T148 282V163ZM83 598Q83 620 83 634T77 654Q73 659 68 661T52 664L10 666L7 669V686L10 689Q20 690 36 694T71 703T108 714T142 727L153 720Q151 702 150 650T148 494V373H150Q162 388 181 406T216 441Q230 452 253 460T306 468Q353 468 389 451T449 406T485 340T498 263Q498 216 488 182T461 124T426 81T388 49Q364 31 347 19T314 1T283 -9T243 -12Q213 -12 185 -2T136 26L89 -12L74 -3Q77 10 79 40T81 107T82 185T83 261V598Z"  />
<glyph unicode="c" horiz-adv-x="426" d="M379 25Q360 12 328 0T240 -12Q204 -12 168 0T104 40T57 112T39 219Q39 263 46 297T72 358Q84 376 105 395T155 430T216 457T281 468Q319 468 343 461T390 442L393 437Q385 404 383 373T378 317L375 314H357L354 317Q354 320 354 329T352 348T348 369T343 384Q341 388 333 395T312 409T282 421T245 426Q224 426 200 419T155 391T121 335T107 246Q107 210 116 172T147 103T200 53T277 33Q319 33 345 43T391 63L397 55L379 25Z"  />
<glyph unicode="d" horiz-adv-x="556" d="M107 245Q107 208 115 171T143 105T192 58T265 39Q292 39 313 49T350 72T374 99T386 119Q389 126 391 135T394 160T396 199T397 257Q397 293 397 319T395 363Q389 371 377 382T346 404T303 422T248 430Q221 430 196 419T151 385T119 328T107 245ZM397 598Q397 620 397 634T391 654Q387 659 382 661T366 664L324 666L321 669V686L324 689Q334 690 350 694T385 703T422 714T456 727L467 720Q465 702 464 650T462 494V77Q462 60 464 50T471 35T486 26T513 22L535 20L538 17V0L535 -3Q519 -2 501 -1T465 0Q447 0 428 -1T400 -3L394 3Q397 40 397 79Q388 73 375 63T350 42T327 23T313 11Q296 -1 278 -6T231 -12Q193 -12 159 3T98 46T55 117T39 212Q39 257 47 285T66 334Q75 355 97 378T147 422T208 455T271 468Q315 468 342 458T397 434V598Z"  />
<glyph unicode="e" horiz-adv-x="481" d="M247 435Q205 435 180 419T140 378T119 325T111 272Q150 271 185 271T257 270Q263 270 278 270T309 272T340 274T359 275Q360 284 360 293T361 311Q361 346 350 369T321 407T283 428T247 435ZM404 34Q382 20 342 4T244 -12Q217 -12 182 -2T115 35T61 107T39 223Q39 239 41 260T47 303T60 344T79 376Q86 385 104 400T147 431T203 457T267 468Q291 468 320 461T375 434T418 378T436 285Q436 275 436 268T434 253Q424 251 401 250T350 247T294 244T244 243H111Q111 198 122 160T154 93T206 49T279 33Q300 33 320 38T359 50T392 65T416 79L424 71L404 34Z"  />
<glyph unicode="f" horiz-adv-x="296" d="M94 393H75Q63 393 51 392T27 389L24 392V405L27 408L94 435Q94 456 94 480T96 522Q97 549 101 566T114 598T136 625T167 656Q189 677 205 691T234 713T258 724T281 727Q294 727 304 726T323 722Q321 713 321 706T320 689Q320 676 321 666T323 644H313Q299 653 287 659T249 665Q200 665 180 634T159 553V435H191Q222 435 247 436T288 440L293 436Q291 427 290 416T287 396L284 393H159V98Q159 70 160 56T166 36Q168 33 172 31T184 28T206 25T239 22L262 20L265 17V0L262 -3Q244 -2 208 -1T131 0Q102 0 75 -1T21 -3L18 0V17L21 20L44 22Q63 24 72 27T87 35Q92 41 93 55T94 98V393Z"  />
<glyph unicode="g" horiz-adv-x="519" d="M413 387Q419 376 423 358T427 314Q427 285 415 256T378 205T315 168T226 154H204Q180 141 164 128T148 92Q148 68 167 60T228 51Q240 51 260 51T301 52T341 53T373 54Q394 54 415 51T453 36T481 2T492 -60Q492 -108 472 -147T415 -214T330 -257T224 -273Q188 -273 155 -264T96 -237T55 -192T39 -127Q39 -104 44 -90T57 -65Q61 -59 71 -51T93 -33T120 -16T147 -1V1Q138 2 127 5T105 16T87 35T80 64Q80 79 88 91T110 115T139 137T171 158V160Q154 164 135 172T100 197T73 237T62 298Q62 337 79 368T125 422T194 456T278 468Q324 468 351 454T395 425H411Q446 425 480 427T533 433L537 426L521 385L413 387ZM104 -125Q104 -154 117 -176T151 -213T198 -235T250 -243Q286 -243 318 -232T374 -202T413 -157T427 -98Q427 -47 404 -26T322 -4Q315 -4 302 -4T273 -5T244 -5T224 -6Q210 -6 197 -6T174 -4Q138 -29 121 -56T104 -125ZM134 309Q134 283 141 261T162 221T198 194T249 184Q270 184 289 191T324 214T349 254T359 311Q359 345 349 368T322 407T285 428T246 435Q187 435 161 400T134 309Z"  />
<glyph unicode="h" horiz-adv-x="574" d="M97 598Q97 620 97 634T91 654Q87 659 82 661T66 664L24 666L21 669V686L24 689Q34 690 50 694T85 703T122 714T156 727L167 720Q165 702 164 650T162 494V380Q170 386 182 396T206 416T229 437T245 453Q259 459 276 463T323 468Q370 468 400 453T447 413T470 359T477 302V77Q477 60 479 50T486 35T501 26T528 22L550 20L553 17V0L550 -3Q534 -2 516 -1T480 0Q462 0 443 -1T413 -3L407 3Q411 54 411 110T412 237Q412 274 409 306T394 362T357 400T286 414Q262 414 241 406T205 386T180 364T169 350Q166 343 164 320T162 243V181Q162 110 163 81T169 41Q172 32 182 28T220 22L244 20L247 17V0L244 -3Q218 -2 191 -1T134 0Q105 0 78 -1T24 -3L21 0V17L24 20L47 22Q66 24 75 27T90 35Q95 41 96 55T97 98V598Z"  />
<glyph unicode="i" horiz-adv-x="259" d="M97 339Q97 361 97 375T91 395Q87 400 82 402T66 405L20 407L17 410V427L20 430Q32 431 49 435T85 444T122 455T156 468L165 462Q163 448 163 416T162 339V98Q162 70 163 56T169 35Q174 30 183 27T212 22L239 20L242 17V0L239 -3Q210 -2 183 -1T130 0Q104 0 77 -1T20 -3L17 0V17L20 20L47 22Q66 24 75 27T90 35Q95 41 96 55T97 98V339ZM80 629Q80 649 94 663T129 678Q149 678 163 664T178 629Q178 609 164 595T129 580Q109 580 95 594T80 629Z"  />
<glyph unicode="j" horiz-adv-x="241" d="M88 339Q88 361 88 375T82 395Q78 400 73 402T57 405L11 407L8 410V427L11 430Q23 431 40 435T76 444T113 455T147 468L156 462Q154 448 154 416T153 339V-1Q153 -32 149 -76T129 -162T78 -235T-17 -273L-28 -244L-25 -241Q-17 -243 -11 -243Q12 -243 30 -231T61 -190T81 -116T88 -4V339ZM77 629Q77 649 91 663T126 678Q146 678 160 664T175 629Q175 609 161 595T126 580Q106 580 92 594T77 629Z"  />
<glyph unicode="k" horiz-adv-x="519" d="M88 598Q88 620 88 634T82 654Q78 659 73 661T57 664L11 666L8 669V686L11 689Q23 690 40 694T76 703T113 714T147 727L158 720Q156 702 155 650T153 494V254Q172 268 198 291T254 341T313 400T366 461H474L477 458V440L474 437Q462 437 448 434T407 416T338 368T226 276Q243 258 265 236T312 189T362 140T412 94Q434 74 448 63T472 45T491 37T512 35V19L424 -9Q415 -2 402 10T372 37T338 69T303 103Q247 160 211 196T153 248V98Q153 70 154 56T160 35Q165 30 174 27T203 22L230 20L233 17V0L230 -3Q201 -2 173 -1T119 0Q95 0 68 -1T11 -3L8 0V17L11 20L38 22Q57 24 66 27T81 35Q86 41 87 55T88 98V598Z"  />
<glyph unicode="l" horiz-adv-x="259" d="M97 598Q97 620 97 634T91 654Q87 659 82 661T66 664L20 666L17 669V686L20 689Q32 690 49 694T85 703T122 714T156 727L167 720Q165 702 164 650T162 494V98Q162 70 163 56T169 35Q174 30 183 27T212 22L239 20L242 17V0L239 -3Q210 -2 182 -1T128 0Q104 0 77 -1T20 -3L17 0V17L20 20L47 22Q66 24 75 27T90 35Q95 41 96 55T97 98V598Z"  />
<glyph unicode="m" horiz-adv-x="851" d="M97 339Q97 361 97 375T91 395Q87 400 82 402T66 405L24 407L21 410V427L24 430Q34 431 50 435T85 444T122 455T156 468L162 462V380Q170 386 182 396T206 416T229 436T245 452Q256 457 273 462T313 468Q347 468 370 459T408 437T432 408T447 380Q455 386 467 396T491 416T514 437T530 453Q544 459 561 463T608 468Q648 468 676 454T721 416T746 362T754 302V77Q754 60 756 50T763 35T778 26T805 22L827 20L830 17V0L827 -3Q811 -2 793 -1T757 0Q739 0 720 -1T690 -3L684 3Q688 54 688 110T689 237Q689 274 686 306T672 362T637 400T574 414Q543 414 511 398T458 356V98Q458 70 459 56T465 35Q470 30 479 27T508 22L531 20L534 17V0L531 -3Q505 -2 478 -1T425 0Q399 0 372 -1T320 -3L317 0V17L320 20L343 22Q362 24 371 27T386 35Q391 41 392 55T393 98V293Q393 350 370 382T286 414Q262 414 241 406T205 386T180 364T169 350Q166 343 164 320T162 243V181Q162 110 163 81T169 41Q172 32 182 28T220 22L244 20L247 17V0L244 -3Q218 -2 191 -1T134 0Q105 0 78 -1T24 -3L21 0V17L24 20L47 22Q66 24 75 27T90 35Q95 41 96 55T97 98V339Z"  />
<glyph unicode="n" horiz-adv-x="574" d="M97 339Q97 361 97 375T91 395Q87 400 82 402T66 405L24 407L21 410V427L24 430Q34 431 50 435T85 444T122 455T156 468L162 462V380Q170 386 182 396T206 416T229 437T245 453Q259 459 276 463T323 468Q370 468 400 453T447 413T470 359T477 302V77Q477 60 479 50T486 35T501 26T528 22L550 20L553 17V0L550 -3Q534 -2 516 -1T480 0Q462 0 443 -1T413 -3L407 3Q411 54 411 110T412 237Q412 274 409 306T394 362T357 400T286 414Q262 414 241 406T205 386T180 364T169 350Q166 343 164 320T162 243V181Q162 110 163 81T169 41Q172 32 182 28T220 22L244 20L247 17V0L244 -3Q218 -2 191 -1T134 0Q105 0 78 -1T24 -3L21 0V17L24 20L47 22Q66 24 75 27T90 35Q95 41 96 55T97 98V339Z"  />
<glyph unicode="o" horiz-adv-x="537" d="M39 225Q39 278 56 322T105 399T179 450T274 468Q323 468 364 453T435 408T481 334T498 233Q498 179 479 134T428 57T355 6T267 -12Q201 -12 158 12T88 72T50 149T39 225ZM267 18Q298 18 326 28T376 61T410 124T423 224Q423 265 415 303T387 372T337 420T262 438Q196 438 155 392T114 252Q114 199 124 156T154 83T202 35T267 18Z"  />
<glyph unicode="p" horiz-adv-x="556" d="M155 77Q174 56 202 43T269 30Q312 30 344 46T398 91T429 155T440 233Q440 287 426 322T391 377T343 406T294 415Q274 415 258 410T228 398T204 382T186 367Q175 358 169 350T160 333T156 312T155 280V77ZM155 -86Q155 -157 156 -186T162 -226Q165 -235 174 -239T208 -245L232 -247L235 -250V-267L232 -270Q209 -269 183 -268T127 -267Q98 -267 71 -268T17 -270L14 -267V-250L17 -247L40 -245Q59 -243 68 -240T83 -232Q88 -226 89 -212T90 -169V339Q90 361 90 375T84 395Q80 400 75 402T59 405L17 407L14 410V427L17 430Q27 431 43 435T78 444T115 455T149 468L155 462V372Q187 402 210 421T251 450T285 464T322 468Q358 468 392 455T451 416T492 350T508 260Q508 184 480 136T398 49Q356 19 321 4T239 -12Q211 -12 187 -4T155 9V-86Z"  />
<glyph unicode="q" horiz-adv-x="537" d="M389 337Q389 351 389 365T386 385Q380 391 367 399T336 414T301 427T264 432Q192 432 150 380T107 232Q107 200 116 166T145 103T194 57T261 39Q284 39 301 43T334 56T362 75T389 100V337ZM389 64Q384 61 371 54T342 36T308 15T275 -8Q270 -10 260 -11T235 -12Q184 -12 147 8T86 62T51 138T39 226Q39 273 52 304T73 347Q83 363 104 384T153 423T215 455T286 468Q311 468 342 461T418 437L460 468L470 459Q463 429 459 375T454 246V-169Q454 -197 455 -211T461 -232Q466 -237 475 -240T504 -245L527 -247L530 -250V-267L527 -270Q501 -269 474 -268T417 -267Q388 -267 362 -268T312 -270L309 -267V-250L312 -247L336 -245Q360 -243 369 -239T382 -226Q386 -216 387 -187T389 -86V64Z"  />
<glyph unicode="r" horiz-adv-x="352" d="M93 339Q93 361 93 375T87 395Q83 400 78 402T62 405L20 407L17 410V427L20 430Q30 431 46 435T81 444T118 455T152 468L158 462V365Q202 414 231 441T293 468Q307 468 319 465T342 458L345 453Q339 431 338 416T336 381H330Q321 390 305 396T274 403Q257 403 243 398T216 384T194 367T177 349Q170 341 164 332T158 313V98Q158 70 159 56T165 36Q167 33 171 31T183 28T205 25T238 22L261 20L264 17V0L261 -3Q243 -2 207 -1T130 0Q101 0 74 -1T20 -3L17 0V17L20 20L43 22Q62 24 71 27T86 35Q91 41 92 55T93 98V339Z"  />
<glyph unicode="s" horiz-adv-x="407" d="M75 75Q81 66 91 56T117 38T151 24T193 18Q210 18 229 23T266 39T294 70T306 119Q306 142 299 156T279 178T247 190T204 199Q177 203 147 210T93 231T52 267T36 323Q36 359 52 386T93 432T150 459T210 468Q242 468 280 462T344 441L347 438Q344 429 343 421T341 403T339 377T337 338L334 335H316L313 338L307 388Q307 391 300 399T280 416T248 431T202 438Q184 438 166 433T133 416T110 388T101 349Q101 314 123 297T190 270L257 257Q281 252 301 247T337 230T362 200T371 149Q371 119 359 91T322 39T256 2T161 -12Q125 -12 97 -6T43 10L40 13Q42 30 44 60T47 125L50 128H70L73 125L75 75Z"  />
<glyph unicode="t" horiz-adv-x="315" d="M94 435Q94 472 94 494T94 532T92 558T90 583Q101 586 108 588T123 593T137 599T157 608L168 602Q160 518 159 435H193Q208 435 224 436T254 438T279 440T295 441L302 436Q298 422 297 414T294 394L291 391Q283 392 275 392T257 393H159V97Q159 68 173 52T222 36Q242 36 256 41T282 54L291 42L262 5Q249 -1 234 -6T191 -12Q139 -12 115 14T91 80Q91 167 92 242T94 393H67Q55 393 43 392T19 389L16 392V405L19 408L94 435Z"  />
<glyph unicode="u" horiz-adv-x="556" d="M88 339Q88 361 88 375T82 395Q78 400 73 402T57 405L11 407L8 410V427L11 430Q23 431 40 435T76 444T113 455T147 468L156 462Q154 448 154 416T153 339V209Q153 179 154 159T156 124T161 101T168 83Q174 71 196 55T253 39Q289 39 320 57T374 101Q377 105 380 110T387 124T392 147T394 185V339Q394 361 394 375T388 395Q384 400 379 402T363 405L317 407L314 410V427L317 430Q329 431 346 435T382 444T419 455T453 468L462 462Q460 448 460 416T459 339V77Q459 60 461 50T468 35T483 26T510 22L532 20L535 17V0L532 -3Q516 -2 498 -1T462 0Q444 0 425 -1T395 -3L392 0Q393 22 393 43T394 86L330 27Q321 19 312 12T291 -1T263 -9T222 -12Q181 -12 155 1T114 36T94 82T88 132V339Z"  />
<glyph unicode="v" horiz-adv-x="481" d="M103 277Q84 321 71 350T49 396T31 420T13 429L-16 431L-19 434V451L-16 454Q7 453 28 452T73 451Q104 451 135 452T197 454L200 451V434L197 431L162 429Q148 428 139 425T129 411Q129 407 133 393T145 359T162 317T180 273L260 83L357 306Q370 334 380 364T391 408Q391 417 384 422T356 429L325 431L322 434V451L325 454Q345 453 365 452T406 451Q429 451 451 452T497 454L500 451V434L497 431L479 429Q468 428 461 425T445 410T427 378T401 321L324 148Q310 118 301 95T285 54T273 21T263 -9H218Q214 11 199 52T162 142L103 277Z"  />
<glyph unicode="w" horiz-adv-x="759" d="M225 85L261 167L376 442L381 456H408Q421 409 435 365T466 275T501 183T541 85Q560 134 580 185T617 279T644 356T655 402Q655 418 641 423T611 429L582 431L579 434V451L582 454Q605 453 626 452T671 451Q694 451 717 452T764 454L767 451V434L764 431L749 429Q734 427 725 422T708 406T694 380T678 341Q656 287 642 251T615 181T585 103T544 -9H504Q490 32 470 85T431 188T395 281T372 341L289 154Q285 144 276 122T257 74T238 26T225 -9H183Q175 21 164 60T140 143T114 229T89 307Q77 344 69 367T53 404T37 423T16 429L-5 431L-8 434V451L-5 454Q18 453 40 452T86 451Q115 451 145 452T204 454L207 451V434L204 431L183 429Q155 426 146 421T136 404Q136 398 138 389T142 370T148 349T153 331L225 85Z"  />
<glyph unicode="x" horiz-adv-x="444" d="M136 310Q113 343 97 364T69 397T45 414T21 421L5 423L2 426V440L5 443Q27 445 55 448T101 459L106 456Q119 443 136 421T172 373T207 321T240 273Q258 295 277 320T313 368T345 413T369 451L373 454Q380 453 390 452T411 451Q422 451 428 452T439 454L442 451V434L439 431L423 429Q410 427 391 407T335 340L258 245L373 76Q385 58 394 48T409 32T420 25T430 22L441 20L444 18V0L441 -3Q432 -2 419 -1T390 0Q377 0 366 -1T347 -3L343 0L215 194Q202 177 184 153T148 102T111 48T78 0L74 -3Q64 -2 56 -1T38 0Q15 0 3 -3L0 0V18L3 20L8 22Q14 24 19 26T33 34T51 49T76 77L197 222L136 310Z"  />
<glyph unicode="y" horiz-adv-x="481" d="M23 -198L32 -192Q40 -200 51 -206T81 -213Q100 -213 113 -206T137 -188T156 -161T173 -129Q190 -96 202 -65T222 -17Q216 5 203 40T174 114T141 194T108 269T82 328T68 360Q57 384 48 397T32 417T17 426T1 429L-16 431L-19 434V451L-16 454Q6 453 28 452T72 451Q104 451 134 452T197 454L200 451V434L197 431L171 429Q154 427 141 424T128 407Q128 401 133 385T146 348T164 304T183 260L261 79L289 143Q294 155 303 176T324 224T347 279T368 333T384 376T390 402Q390 416 381 421T348 429L326 431L323 434V451L326 454Q346 453 366 452T406 451Q429 451 451 452T497 454L500 451V434L497 431L482 429Q469 427 459 421T435 391T401 322T346 198L210 -120Q178 -195 142 -234T46 -273Q22 -273 9 -264L7 -261L23 -198Z"  />
<glyph unicode="z" horiz-adv-x="463" d="M15 21Q25 33 53 68T123 156T216 276T322 421H291Q246 421 214 421T159 419T124 414T105 405Q85 385 79 325L76 322H55L52 325Q54 346 56 364T58 406Q58 419 58 429T57 449L64 454Q127 453 184 452T306 451Q335 451 363 452T414 454L417 451V429Q404 414 382 386T331 322T272 246T212 166T156 91T110 30Q144 31 177 31T241 32T296 34T337 38Q350 40 360 44T379 58T392 86T403 134L406 137H425L428 134Q426 122 424 111T421 85T418 50T416 0L413 -3Q338 -2 265 -1T116 0Q92 0 68 0T26 -3L22 0L15 21Z"  />
<glyph unicode="{" horiz-adv-x="333" d="M123 577Q123 614 129 641T152 687T198 715T273 725L276 722V713L273 710Q247 705 231 694T206 667T194 629T191 584V409Q191 384 189 363T178 324T152 294T107 275V273Q135 266 152 254T177 225T188 186T191 139V-36Q191 -60 194 -81T206 -118T231 -146T273 -162L276 -165V-174L273 -177Q227 -177 198 -168T153 -140T130 -94T123 -29V155Q123 179 121 197T110 231T86 256T47 274Q71 281 86 291T109 317T120 350T123 393V577Z"  />
<glyph unicode="|" horiz-adv-x="222" d="M87 750H135V-250H87V750Z"  />
<glyph unicode="}" horiz-adv-x="333" d="M210 -29Q210 -66 204 -93T181 -139T135 -167T60 -177L57 -174V-165L60 -162Q86 -157 102 -146T127 -119T139 -81T142 -36V139Q142 164 144 185T155 224T180 254T226 273V275Q197 282 181 294T156 323T145 362T142 409V584Q142 608 139 629T127 666T102 694T60 710L57 713V722L60 725Q106 725 135 716T180 688T203 642T210 577V393Q210 369 212 351T223 317T247 292T286 274Q262 267 247 257T224 231T213 198T210 155V-29Z"  />
<glyph unicode="~" horiz-adv-x="600" d="M69 225Q77 241 88 256T115 284T149 303T194 311Q222 311 251 301T309 277Q338 264 363 254T407 243Q422 243 434 249T457 265T477 287T495 311L531 281Q520 265 508 250T481 222T448 203T406 195Q375 195 351 205T300 229Q274 242 249 252T189 263Q172 263 160 257T137 241T119 219T105 195L69 225Z"  />
<glyph unicode="&#xA0;" horiz-adv-x="250" />
<glyph unicode="&#xA1;" horiz-adv-x="296" d="M190 -219L126 -253H105Q102 -234 102 -214Q102 -166 107 -110T117 5T128 125T133 242L155 263L160 260L190 -219ZM200 407Q200 387 185 371T148 354Q126 354 111 370T96 407Q96 429 112 443T148 458Q168 458 184 444T200 407Z"  />
<glyph unicode="&#xA2;" horiz-adv-x="500" d="M296 423Q284 426 269 426Q248 426 224 419T179 391T145 335T131 246Q131 201 145 156T190 80L296 423ZM214 59Q251 33 301 33Q343 33 369 43T415 63L421 55L403 25Q384 12 352 0T264 -12Q231 -12 196 -1L167 -93L164 -96H140L137 -93L169 11Q124 35 94 85T63 219Q63 263 70 297T96 358Q108 376 129 395T179 430T240 457T305 468H310L331 535L334 538H358L361 535L340 466Q363 463 380 457T414 442L417 437Q409 404 407 373T402 317L399 314H381L378 317Q378 320 378 329T376 348T372 369T367 384Q364 389 353 397T324 414L214 59Z"  />
<glyph unicode="&#xA3;" horiz-adv-x="500" d="M118 316Q72 316 27 313L22 320L29 349L34 353Q38 353 42 353T55 352H118Q118 371 118 384T117 405T116 419T116 431Q116 440 117 464T125 514Q134 550 162 581T226 637T303 675T376 689Q404 689 426 681T463 665L466 660Q463 627 461 608T458 575T457 552T456 530L453 527H432L429 530L425 608Q413 619 394 631T335 644Q313 644 292 637T252 614T220 577T201 524Q199 512 197 487T193 436T189 386T186 352H317Q348 352 363 355L368 350L357 319L351 313Q339 314 316 315T242 316H184Q179 280 174 251T160 192T135 132T96 64Q119 67 143 68T188 70Q218 70 252 68T317 63T370 58T399 55Q407 55 411 61T420 85L433 150L436 153H456L459 150Q457 137 456 120T455 83T454 43T453 5L450 2Q437 -3 423 -6T393 -10Q358 -10 318 -4T237 10T155 24T76 32Q69 23 64 17T55 6T46 -4T35 -15H20L22 30Q33 38 43 45T64 61Q67 64 75 76T93 115T110 181T118 281V316Z"  />
<glyph unicode="&#xA4;" horiz-adv-x="500" d="M58 178Q27 212 15 252T2 333Q2 374 14 414T58 488L2 543L40 581L96 526Q129 554 169 567T250 581Q290 581 330 568T404 526L460 581L498 543L442 488Q473 454 485 414T498 333Q498 292 486 252T442 178L498 123L460 85L404 140Q371 112 331 99T250 85Q210 85 170 98T96 140L40 85L2 123L58 178ZM50 333Q50 292 66 256T109 192T172 149T250 133Q291 133 327 149T391 192T434 255T450 333Q450 374 434 410T391 474T328 517T250 533Q209 533 173 517T109 474T66 411T50 333Z"  />
<glyph unicode="&#xA5;" horiz-adv-x="500" d="M216 179H64L61 182V209L64 212H216V277L207 298H64L61 301V328L64 331H193Q162 402 137 457T96 536Q76 567 62 585T35 614T10 628T-17 634L-20 637V654L-17 657L68 680Q75 676 80 673T91 664Q104 654 120 630T153 575T186 508T218 440T245 377T265 331L345 457Q359 481 375 511T408 572T438 628T460 669Q467 669 474 668T489 667Q496 667 503 668T517 669L520 665V655L517 651Q485 616 451 564T373 440Q349 402 334 375T309 331H436L439 328V301L436 298H292Q286 284 285 274T284 241V212H436L439 209V182L436 179H284V108Q284 73 285 61T291 43Q293 38 302 34T339 28L371 26L374 23V0L371 -3Q342 -2 312 -1T251 0Q219 0 189 -1T129 -3L126 0V23L129 26L162 28Q188 30 197 34T209 43Q213 48 214 60T216 108V179Z"  />
<glyph unicode="&#xA6;" horiz-adv-x="222" d="M87 175H135V-175H87V175ZM87 675H135V325H87V675Z"  />
<glyph unicode="&#xA7;" horiz-adv-x="500" d="M377 514L374 517Q372 541 369 566T362 614Q349 628 324 642T250 656Q216 656 190 646T147 619T120 581T111 537Q111 496 133 472T204 429L341 378Q397 357 428 329T459 253Q459 222 449 197T425 153T397 122T377 106Q387 100 398 92T419 72T435 42T442 1Q442 -37 424 -76T373 -147T294 -199T192 -220Q160 -220 124 -209T58 -171L55 -165Q62 -124 65 -86T68 -27L71 -24H89L92 -27Q93 -35 94 -48T97 -75T100 -102T104 -126Q117 -140 148 -156T236 -172Q273 -172 301 -162T349 -135T378 -95T388 -47Q388 -18 379 1T355 34T317 57T270 76L168 112Q146 120 124 129T83 152T53 188T41 242Q41 272 51 295T75 337T104 367T128 386Q120 390 109 398T86 418T68 448T60 491Q60 519 74 556T115 626T183 681T278 704Q323 704 355 693T410 671L413 666Q406 623 404 583T401 517L398 514H377ZM149 373Q124 358 110 334T95 280Q95 256 102 239T123 210T155 190T193 174Q234 159 277 145T356 115Q374 135 391 161T408 217Q408 228 406 241T391 268T355 297T286 327L149 373Z"  />
<glyph unicode="&#xA8;" horiz-adv-x="259" d="M181 621Q181 639 194 653T227 667Q245 667 259 653T273 621Q273 603 259 589T227 575Q208 575 195 589T181 621ZM-14 621Q-14 638 -1 652T31 667Q49 667 63 654T78 621Q78 602 64 589T31 575Q12 575 -1 589T-14 621Z"  />
<glyph unicode="&#xA9;" horiz-adv-x="800" d="M550 178Q548 172 539 168T517 159Q500 154 476 150T414 145Q357 145 316 161T249 206T209 271T196 352Q196 395 211 431T256 495T327 537T420 553Q462 553 488 548T531 535Q551 527 551 512V440H533Q533 456 528 472T509 500T473 521T416 529Q377 529 348 516T300 480T271 425T261 356Q261 272 300 221T426 169Q481 169 510 194T553 253H567L550 178ZM41 345Q41 419 69 484T146 598T260 675T400 704Q474 704 539 676T653 599T730 485T759 345Q759 271 731 206T654 91T540 14T400 -14Q326 -14 261 14T146 91T69 205T41 345ZM95 345Q95 280 119 224T185 125T282 59T400 34Q462 34 517 58T614 125T680 223T705 345Q705 409 681 466T615 565T518 631T400 656Q338 656 283 632T186 565T120 466T95 345Z"  />
<glyph unicode="&#xAA;" horiz-adv-x="313" d="M211 562Q194 557 169 553T124 541Q104 533 89 522T73 485Q73 465 84 450T127 434Q143 434 156 439T179 451T198 466T211 479V562ZM256 457Q256 437 261 433T289 425L303 423L305 421V408L303 406Q291 407 279 407T255 408Q243 408 231 408T213 406L209 410Q210 421 210 432T211 455Q201 447 189 437T156 413Q137 401 111 401Q64 401 43 422T22 478Q22 510 41 527T92 554Q121 563 153 567T211 579V587Q211 625 193 642T137 659Q121 659 110 656T94 649Q89 645 87 642T81 634L69 605L67 604L54 607L52 609L51 650L53 653Q68 662 94 675T162 689Q172 689 184 687T207 681T229 668T245 648Q253 633 254 614T256 566V457Z"  />
<glyph unicode="&#xAB;" horiz-adv-x="481" d="M45 235Q92 274 134 317T218 404H221L239 393V389Q227 374 216 359T191 325T162 283T123 227Q147 188 175 150T239 65V62L221 50H218Q201 68 180 90T136 135T90 180T45 219V235ZM236 235Q283 274 325 317T409 404H412L430 393V389Q418 374 407 359T382 325T353 283T314 227Q338 188 366 150T430 65V62L412 50H409Q392 68 371 90T327 135T281 180T236 219V235Z"  />
<glyph unicode="&#xAC;" horiz-adv-x="600" d="M505 327H47V375H553V111H505V327Z"  />
<glyph unicode="&#xAD;" horiz-adv-x="426" d="M358 264Q343 248 337 223Q305 224 272 225T207 226Q175 226 142 225T76 223L68 229L89 271Q123 270 156 269T222 268Q255 268 287 269T353 271L358 264Z"  />
<glyph unicode="&#xAE;" horiz-adv-x="800" d="M340 343H394Q434 343 453 367T473 435Q473 480 448 497T381 514H340V343ZM236 173Q261 173 273 182T286 223V467Q286 512 236 514V532H397Q425 532 450 527T493 511T522 483T533 441Q533 399 510 371T448 331L518 229Q534 206 549 190T591 173V155H536Q518 155 504 165T473 202L391 325H340V223Q340 192 353 183T398 173V155H236V173ZM41 345Q41 419 69 484T146 598T260 675T400 704Q474 704 539 676T653 599T730 485T759 345Q759 271 731 206T654 91T540 14T400 -14Q326 -14 261 14T146 91T69 205T41 345ZM95 345Q95 280 119 224T185 125T282 59T400 34Q462 34 517 58T614 125T680 223T705 345Q705 409 681 466T615 565T518 631T400 656Q338 656 283 632T186 565T120 466T95 345Z"  />
<glyph unicode="&#xAF;" horiz-adv-x="259" d="M-3 646H262V598H-3V646Z"  />
<glyph unicode="&#xB0;" horiz-adv-x="400" d="M57 540Q57 570 68 596T98 641T144 672T200 683Q230 683 256 672T301 642T332 596T343 540Q343 510 332 484T302 439T256 408T200 397Q170 397 144 408T99 438T68 484T57 540ZM99 540Q99 519 107 501T128 469T160 447T200 439Q221 439 239 447T271 468T293 500T301 540Q301 561 293 579T272 611T240 633T200 641Q179 641 161 633T129 612T107 580T99 540Z"  />
<glyph unicode="&#xB1;" horiz-adv-x="600" d="M276 506H324V322H553V274H324V90H276V274H47V322H276V506ZM47 48H553V0H47V48Z"  />
<glyph unicode="&#xB2;" horiz-adv-x="325" d="M20 286L46 311Q103 366 139 402T194 465T221 513T228 558Q228 598 206 619T143 641Q114 641 94 631T71 619Q69 616 66 608T60 591T54 573T49 558L47 557H34L32 558Q36 578 39 600T44 643L46 645Q50 649 60 655T84 668T115 678T153 683Q213 683 246 652T279 572Q279 556 275 539T258 502T224 457T168 401L71 310H192Q237 310 261 311T303 314L305 312Q302 301 302 290Q302 277 305 270L303 268Q268 269 234 270T166 271Q129 271 93 270T21 268L20 270V286Z"  />
<glyph unicode="&#xB3;" horiz-adv-x="325" d="M38 370L40 368Q60 319 86 302T147 285Q165 285 183 290T215 308T239 339T248 388Q248 412 241 428T222 453T195 467T164 471Q150 471 135 468T108 460L105 463Q108 473 109 478T112 495Q117 494 122 493T138 492Q183 492 206 515T229 575Q229 586 226 598T213 619T187 635T147 641Q121 641 104 633T84 622Q82 620 75 604T62 574L60 572H45L43 574Q51 593 56 613T64 649Q76 660 102 671T162 683Q184 683 204 677T241 660T267 631T277 591Q277 573 270 558T251 531T226 509T201 494V492Q209 491 226 488T260 476T289 451T302 406Q302 375 288 349T249 303T193 272T127 261Q107 261 86 265T45 277Q40 309 33 332T23 363L25 366L38 370Z"  />
<glyph unicode="&#xB4;" horiz-adv-x="259" d="M203 702Q213 712 222 718T242 725Q259 725 268 715T277 691Q277 680 272 673T253 657L91 556H57L203 702Z"  />
<glyph unicode="&#xB5;" horiz-adv-x="556" d="M459 77Q459 60 461 50T468 35T483 26T510 22L532 20L535 17V0L532 -3Q516 -2 498 -1T462 0Q444 0 425 -1T395 -3L392 0Q393 22 393 43T394 86L330 27Q321 19 312 12T291 -1T263 -9T222 -12Q193 -12 176 -4T153 10V-108Q153 -134 154 -176T163 -264L157 -270Q152 -269 143 -268T120 -267Q107 -267 98 -268T84 -270L78 -264Q86 -219 87 -177T88 -108V139V339Q88 361 88 375T82 395Q78 400 73 402T57 405L11 407L8 410V427L11 430Q23 431 40 435T76 444T113 455T147 468L156 462Q154 448 154 416T153 339V209Q153 179 154 159T156 124T161 101T168 83Q174 71 196 55T253 39Q289 39 320 57T374 101Q377 105 380 110T387 124T392 147T394 185V339Q394 361 394 375T388 395Q384 400 379 402T363 405L317 407L314 410V427L317 430Q329 431 346 435T382 444T419 455T453 468L462 462Q460 448 460 416T459 339V77Z"  />
<glyph unicode="&#xB6;" horiz-adv-x="600" d="M271 662Q204 662 168 623T131 492Q131 400 169 356T271 311V662ZM271 281Q66 281 66 494Q66 599 117 645T275 692H514V672L484 670Q464 668 453 665T437 655T430 635T429 604V-120Q429 -139 430 -151T436 -170T453 -181T484 -186L514 -188V-208H381V662H319V-208H186V-188L216 -186Q236 -185 247 -182T263 -171T270 -151T271 -120V281Z"  />
<glyph unicode="&#xB7;" horiz-adv-x="250" d="M69 307Q69 330 85 346T125 363Q148 363 164 347T181 307Q181 284 165 268T125 251Q102 251 86 267T69 307Z"  />
<glyph unicode="&#xB8;" horiz-adv-x="259" d="M124 0H158L127 -69Q133 -67 141 -66T164 -64Q196 -64 218 -82T240 -132Q240 -147 234 -162T214 -189T178 -208T123 -216Q89 -216 70 -212T41 -202L39 -197L49 -175L54 -172Q67 -177 81 -180T108 -183Q138 -183 155 -171T172 -139Q172 -119 159 -110T125 -100Q114 -100 107 -102T95 -107L79 -102L124 0Z"  />
<glyph unicode="&#xB9;" horiz-adv-x="325" d="M143 631Q143 642 140 642Q138 642 129 638T108 629L32 593L28 595Q27 602 26 608T25 618Q25 621 29 623T58 633Q74 638 92 645T128 660T161 675T187 689L198 683Q196 670 195 654T194 608V342Q194 310 196 303T203 294Q205 292 216 292T246 290L275 288L277 286V270L275 268Q249 269 223 270T167 271Q137 271 112 270T63 268L61 270V286L63 288L91 290Q111 292 121 292T134 294Q139 296 141 303T143 342V631Z"  />
<glyph unicode="&#xBA;" horiz-adv-x="325" d="M13 543Q13 575 24 601T55 647T104 678T166 689Q230 689 271 653T312 548Q312 515 300 488T267 442T219 412T162 401Q119 401 91 415T45 451T20 497T13 543ZM64 553Q64 526 71 502T90 461T121 433T162 422Q181 422 199 428T230 447T252 484T261 542Q261 566 255 588T237 628T206 657T162 668Q131 668 112 658T83 632T68 596T64 553Z"  />
<glyph unicode="&#xBB;" horiz-adv-x="481" d="M436 219Q389 180 347 137T263 50H260L242 61V65Q254 80 265 95T290 129T319 171T358 227Q334 266 306 304T242 389V392L260 404H263Q279 386 300 364T345 319T391 274T436 235V219ZM245 219Q198 180 156 137T72 50H69L51 61V65Q63 80 74 95T99 129T128 171T167 227Q143 266 115 304T51 389V392L69 404H72Q88 386 109 364T154 319T200 274T245 235V219Z"  />
<glyph unicode="&#xBC;" horiz-adv-x="750" d="M600 110H522Q489 110 468 110T427 109L421 124Q461 192 501 255T579 370L601 403L641 418L647 412L645 143Q665 143 680 143T709 145Q708 140 708 136T707 127Q707 122 707 118T709 107Q705 107 696 107T677 108T657 109T644 110V72Q644 41 647 34T654 24Q663 19 683 19L710 18L712 16V-1L710 -3Q690 -1 672 -1T623 0Q563 0 523 -3L521 -1V16L523 18L548 19Q567 20 576 20T591 24Q595 26 597 33T600 72V110ZM602 368L600 369Q562 314 525 256T456 143H600L602 368ZM601 697L604 700H644L647 697L197 -29L194 -32H153L150 -29L601 697ZM156 631Q156 642 153 642Q151 642 142 638T121 629L45 593L41 595Q40 602 39 608T38 618Q38 621 42 623T71 633Q87 638 105 645T141 660T174 675T200 689L211 683Q209 670 208 654T207 608V342Q207 310 209 303T216 294Q218 292 229 292T259 290L288 288L290 286V270L288 268Q262 269 236 270T180 271Q150 271 125 270T76 268L74 270V286L76 288L104 290Q124 292 134 292T147 294Q152 296 154 303T156 342V631Z"  />
<glyph unicode="&#xBD;" horiz-adv-x="750" d="M575 697L578 700H618L621 697L171 -29L168 -32H127L124 -29L575 697ZM140 631Q140 642 137 642Q135 642 126 638T105 629L29 593L25 595Q24 602 23 608T22 618Q22 621 26 623T55 633Q71 638 89 645T125 660T158 675T184 689L195 683Q193 670 192 654T191 608V342Q191 310 193 303T200 294Q202 292 213 292T243 290L272 288L274 286V270L272 268Q246 269 220 270T164 271Q134 271 109 270T60 268L58 270V286L60 288L88 290Q108 292 118 292T131 294Q136 296 138 303T140 342V631ZM442 15L468 40Q525 95 561 131T616 194T643 242T650 287Q650 327 628 348T565 370Q536 370 516 360T493 348Q491 345 488 337T482 320T476 302T471 287L469 286H456L454 287Q458 307 461 329T466 372L468 374Q472 378 482 384T506 397T537 407T575 412Q635 412 668 381T701 301Q701 285 697 268T680 231T646 186T590 130L493 39H614Q659 39 683 40T725 43L727 41Q724 30 724 19Q724 6 727 -1L725 -3Q690 -2 656 -1T588 0Q551 0 515 -1T443 -3L442 -1V15Z"  />
<glyph unicode="&#xBE;" horiz-adv-x="750" d="M601 110H523Q490 110 469 110T428 109L422 124Q462 192 502 255T580 370L602 403L642 418L648 412L646 143Q666 143 681 143T710 145Q709 140 709 136T708 127Q708 122 708 118T710 107Q706 107 697 107T678 108T658 109T645 110V72Q645 41 648 34T655 24Q664 19 684 19L711 18L713 16V-1L711 -3Q691 -1 673 -1T624 0Q564 0 524 -3L522 -1V16L524 18L549 19Q568 20 577 20T592 24Q596 26 598 33T601 72V110ZM603 368L601 369Q563 314 526 256T457 143H601L603 368ZM602 697L605 700H645L648 697L198 -29L195 -32H154L151 -29L602 697ZM52 370L54 368Q74 319 100 302T161 285Q179 285 197 290T229 308T253 339T262 388Q262 412 255 428T236 453T209 467T178 471Q164 471 149 468T122 460L119 463Q122 473 123 478T126 495Q131 494 136 493T152 492Q197 492 220 515T243 575Q243 586 240 598T227 619T201 635T161 641Q135 641 118 633T98 622Q96 620 89 604T76 574L74 572H59L57 574Q65 593 70 613T78 649Q90 660 116 671T176 683Q198 683 218 677T255 660T281 631T291 591Q291 573 284 558T265 531T240 509T215 494V492Q223 491 240 488T274 476T303 451T316 406Q316 375 302 349T263 303T207 272T141 261Q121 261 100 265T59 277Q54 309 47 332T37 363L39 366L52 370Z"  />
<glyph unicode="&#xBF;" horiz-adv-x="463" d="M257 255H261Q294 228 294 194Q294 173 280 149T246 102L206 56Q177 22 158 -8T138 -74Q138 -97 145 -118T169 -156T208 -183T265 -193Q282 -193 301 -188T333 -175Q344 -155 355 -135T374 -96L379 -93L397 -97L400 -101Q386 -136 378 -164T363 -214Q351 -223 336 -230T303 -242T268 -250T236 -253Q204 -253 173 -242T118 -210T78 -159T63 -90Q63 -64 71 -42T95 1T132 44T178 91Q208 120 224 137T249 166T259 185T261 202Q261 216 255 224T245 236V242L257 255ZM313 407Q313 387 298 371T261 354Q239 354 224 370T209 407Q209 429 225 443T261 458Q281 458 297 444T313 407Z"  />
<glyph unicode="&#xC0;" horiz-adv-x="704" d="M289 565Q303 598 316 630T342 697H369L583 164Q600 121 612 95T635 53T656 33T681 27H712L715 24V0L712 -3Q685 -2 657 -1T599 0Q563 0 527 -1T457 -3L454 0V24L457 27H482Q520 27 529 34T539 50Q539 56 537 64T531 84T519 114T501 159L474 229Q438 230 402 230T330 231Q296 231 262 231T192 229L162 152Q151 125 145 109T136 82T131 66T130 55Q130 44 140 36T190 27H217L220 24V0L217 -3Q188 -2 158 -1T95 0Q69 0 43 -1T-8 -3L-11 0V23L-8 27Q19 27 35 30T65 52T97 110T145 220L289 565ZM336 587L206 266Q238 265 268 265T330 264Q363 264 396 264T462 266L336 587ZM229 833Q215 841 210 848T205 867Q205 880 214 890T240 901Q251 901 260 895T279 878L425 732H391L229 833Z"  />
<glyph unicode="&#xC1;" horiz-adv-x="704" d="M289 565Q303 598 316 630T342 697H369L583 164Q600 121 612 95T635 53T656 33T681 27H712L715 24V0L712 -3Q685 -2 657 -1T599 0Q563 0 527 -1T457 -3L454 0V24L457 27H482Q520 27 529 34T539 50Q539 56 537 64T531 84T519 114T501 159L474 229Q438 230 402 230T330 231Q296 231 262 231T192 229L162 152Q151 125 145 109T136 82T131 66T130 55Q130 44 140 36T190 27H217L220 24V0L217 -3Q188 -2 158 -1T95 0Q69 0 43 -1T-8 -3L-11 0V23L-8 27Q19 27 35 30T65 52T97 110T145 220L289 565ZM336 587L206 266Q238 265 268 265T330 264Q363 264 396 264T462 266L336 587ZM426 878Q436 888 445 894T465 901Q482 901 491 891T500 867Q500 856 495 849T476 833L314 732H280L426 878Z"  />
<glyph unicode="&#xC2;" horiz-adv-x="704" d="M289 565Q303 598 316 630T342 697H369L583 164Q600 121 612 95T635 53T656 33T681 27H712L715 24V0L712 -3Q685 -2 657 -1T599 0Q563 0 527 -1T457 -3L454 0V24L457 27H482Q520 27 529 34T539 50Q539 56 537 64T531 84T519 114T501 159L474 229Q438 230 402 230T330 231Q296 231 262 231T192 229L162 152Q151 125 145 109T136 82T131 66T130 55Q130 44 140 36T190 27H217L220 24V0L217 -3Q188 -2 158 -1T95 0Q69 0 43 -1T-8 -3L-11 0V23L-8 27Q19 27 35 30T65 52T97 110T145 220L289 565ZM336 587L206 266Q238 265 268 265T330 264Q363 264 396 264T462 266L336 587ZM324 899H379L502 732H469L352 837L236 732H203L324 899Z"  />
<glyph unicode="&#xC3;" horiz-adv-x="704" d="M289 565Q303 598 316 630T342 697H369L583 164Q600 121 612 95T635 53T656 33T681 27H712L715 24V0L712 -3Q685 -2 657 -1T599 0Q563 0 527 -1T457 -3L454 0V24L457 27H482Q520 27 529 34T539 50Q539 56 537 64T531 84T519 114T501 159L474 229Q438 230 402 230T330 231Q296 231 262 231T192 229L162 152Q151 125 145 109T136 82T131 66T130 55Q130 44 140 36T190 27H217L220 24V0L217 -3Q188 -2 158 -1T95 0Q69 0 43 -1T-8 -3L-11 0V23L-8 27Q19 27 35 30T65 52T97 110T145 220L289 565ZM336 587L206 266Q238 265 268 265T330 264Q363 264 396 264T462 266L336 587ZM513 861Q511 849 506 832T490 798T462 771T419 759Q402 759 386 764T338 783Q312 794 297 799T268 804Q245 804 235 790T218 756H192Q194 768 199 785T214 819T242 846T286 858Q303 858 319 853T367 834Q393 823 408 818T437 813Q460 813 470 827T487 861H513Z"  />
<glyph unicode="&#xC4;" horiz-adv-x="704" d="M289 565Q303 598 316 630T342 697H369L583 164Q600 121 612 95T635 53T656 33T681 27H712L715 24V0L712 -3Q685 -2 657 -1T599 0Q563 0 527 -1T457 -3L454 0V24L457 27H482Q520 27 529 34T539 50Q539 56 537 64T531 84T519 114T501 159L474 229Q438 230 402 230T330 231Q296 231 262 231T192 229L162 152Q151 125 145 109T136 82T131 66T130 55Q130 44 140 36T190 27H217L220 24V0L217 -3Q188 -2 158 -1T95 0Q69 0 43 -1T-8 -3L-11 0V23L-8 27Q19 27 35 30T65 52T97 110T145 220L289 565ZM336 587L206 266Q238 265 268 265T330 264Q363 264 396 264T462 266L336 587ZM405 797Q405 815 418 829T451 843Q469 843 483 829T497 797Q497 779 483 765T451 751Q432 751 419 765T405 797ZM210 797Q210 814 223 828T255 843Q273 843 287 830T302 797Q302 778 288 765T255 751Q236 751 223 765T210 797Z"  />
<glyph unicode="&#xC5;" horiz-adv-x="704" d="M289 565Q303 598 316 630T342 697H369L583 164Q600 121 612 95T635 53T656 33T681 27H712L715 24V0L712 -3Q685 -2 657 -1T599 0Q563 0 527 -1T457 -3L454 0V24L457 27H482Q520 27 529 34T539 50Q539 56 537 64T531 84T519 114T501 159L474 229Q438 230 402 230T330 231Q296 231 262 231T192 229L162 152Q151 125 145 109T136 82T131 66T130 55Q130 44 140 36T190 27H217L220 24V0L217 -3Q188 -2 158 -1T95 0Q69 0 43 -1T-8 -3L-11 0V23L-8 27Q19 27 35 30T65 52T97 110T145 220L289 565ZM336 587L206 266Q238 265 268 265T330 264Q363 264 396 264T462 266L336 587ZM257 821Q257 840 264 857T285 888T316 910T354 918Q373 918 391 910T422 889T443 858T451 821Q451 801 443 784T422 753T391 732T354 724Q334 724 317 732T286 753T265 784T257 821ZM287 821Q287 794 306 774T354 754Q382 754 401 773T421 821Q421 849 402 868T354 888Q325 888 306 868T287 821Z"  />
<glyph unicode="&#xC6;" horiz-adv-x="926" d="M542 161Q542 132 542 99T544 33H681Q720 33 760 37T839 51Q845 72 848 86T854 113T859 136T863 163L866 166H888L891 163Q887 127 885 104T882 64T881 32T881 0L878 -3Q821 -2 748 -1T572 0Q515 0 476 -1T426 -3L423 0V20L426 23L454 38Q460 40 460 47Q464 89 465 135T467 228V245Q441 247 407 248T340 249Q311 249 275 248T206 245L169 178Q164 169 153 151T131 112T111 74T102 49Q102 40 107 35T133 28L182 26L185 23V0L182 -3Q155 -2 126 -1T67 0Q43 0 20 -1T-26 -3L-29 0V23L-26 26L-6 28Q3 29 12 33T32 49T60 85T100 147L283 443Q300 471 320 503T357 564T386 616T398 645Q398 661 373 661L299 663L296 666V689L299 692Q344 691 390 690T485 689Q533 689 587 689T693 690T792 691T872 692L875 689Q870 661 868 635T864 589T862 555T861 538L858 535H834L831 538Q831 550 831 558T830 576T828 599T824 635Q789 645 751 650T660 656Q631 656 600 656T545 653Q543 627 543 608T542 560V374Q559 372 583 372T634 371Q652 371 672 371T710 373T741 375T758 379Q762 382 764 385T769 397T772 419T776 457L779 460H800L803 457Q802 437 801 410T800 349Q800 310 801 281T803 242L800 239H779L776 242Q774 268 772 283T768 307T762 319T751 326Q744 329 730 330T701 333T670 334T643 335Q620 335 593 335T542 332V161ZM467 440Q467 494 466 546T464 653H446L227 282H467V440Z"  />
<glyph unicode="&#xC7;" horiz-adv-x="685" d="M645 36Q631 28 613 19T571 3T516 -10T442 -15H436L412 -69Q418 -67 426 -66T449 -64Q481 -64 503 -82T525 -132Q525 -147 519 -162T499 -189T463 -208T408 -216Q374 -216 355 -212T326 -202L324 -197L334 -175L339 -172Q352 -177 366 -180T393 -183Q423 -183 440 -171T457 -139Q457 -119 444 -110T410 -100Q399 -100 392 -102T380 -107L364 -102L403 -13Q324 -7 259 21T148 95T77 202T51 335Q51 418 79 490T175 618Q225 659 290 681T419 704Q466 704 501 699T564 688T615 675T659 666L662 663Q651 631 645 597T636 521L633 518H612L609 521Q609 535 609 545T609 564T607 583T605 609Q566 641 521 654T417 668Q364 668 314 651T224 596T160 499T136 358Q136 302 156 244T216 137T316 58T458 27Q500 27 531 33T587 50T628 71T660 93L669 85L645 36Z"  />
<glyph unicode="&#xC8;" horiz-adv-x="574" d="M117 578Q117 615 116 628T110 646Q107 651 97 655T57 661L21 663L18 666V689L21 692Q58 691 95 690T169 689Q258 689 345 690T522 692L525 689Q520 661 518 635T514 589T512 555T511 538L508 535H484L481 538Q481 550 481 558T480 576T478 599T474 635Q439 645 401 650T310 656Q281 656 250 656T195 653Q193 627 193 608T192 560V374Q209 372 233 372T284 371Q302 371 322 371T360 373T391 375T408 379Q412 382 414 385T419 397T422 419T426 457L429 460H450L453 457Q452 437 451 410T450 349Q450 310 451 281T453 242L450 239H429L426 242Q424 268 422 283T418 307T412 319T401 326Q394 329 380 330T351 333T320 334T293 335Q270 335 243 335T192 332V161Q192 132 192 99T194 33H331Q370 33 410 37T489 51Q495 72 498 86T504 113T509 136T513 163L516 166H538L541 163Q537 127 535 104T532 64T531 32T531 0L528 -3Q471 -2 398 -1T222 0Q165 0 126 -1T76 -3L73 0V20L76 23L104 38Q110 40 110 47Q114 89 115 135T117 228V578ZM174 833Q160 841 155 848T150 867Q150 880 159 890T185 901Q196 901 205 895T224 878L370 732H336L174 833Z"  />
<glyph unicode="&#xC9;" horiz-adv-x="574" d="M117 578Q117 615 116 628T110 646Q107 651 97 655T57 661L21 663L18 666V689L21 692Q58 691 95 690T169 689Q258 689 345 690T522 692L525 689Q520 661 518 635T514 589T512 555T511 538L508 535H484L481 538Q481 550 481 558T480 576T478 599T474 635Q439 645 401 650T310 656Q281 656 250 656T195 653Q193 627 193 608T192 560V374Q209 372 233 372T284 371Q302 371 322 371T360 373T391 375T408 379Q412 382 414 385T419 397T422 419T426 457L429 460H450L453 457Q452 437 451 410T450 349Q450 310 451 281T453 242L450 239H429L426 242Q424 268 422 283T418 307T412 319T401 326Q394 329 380 330T351 333T320 334T293 335Q270 335 243 335T192 332V161Q192 132 192 99T194 33H331Q370 33 410 37T489 51Q495 72 498 86T504 113T509 136T513 163L516 166H538L541 163Q537 127 535 104T532 64T531 32T531 0L528 -3Q471 -2 398 -1T222 0Q165 0 126 -1T76 -3L73 0V20L76 23L104 38Q110 40 110 47Q114 89 115 135T117 228V578ZM361 878Q371 888 380 894T400 901Q417 901 426 891T435 867Q435 856 430 849T411 833L249 732H215L361 878Z"  />
<glyph unicode="&#xCA;" horiz-adv-x="574" d="M117 578Q117 615 116 628T110 646Q107 651 97 655T57 661L21 663L18 666V689L21 692Q58 691 95 690T169 689Q258 689 345 690T522 692L525 689Q520 661 518 635T514 589T512 555T511 538L508 535H484L481 538Q481 550 481 558T480 576T478 599T474 635Q439 645 401 650T310 656Q281 656 250 656T195 653Q193 627 193 608T192 560V374Q209 372 233 372T284 371Q302 371 322 371T360 373T391 375T408 379Q412 382 414 385T419 397T422 419T426 457L429 460H450L453 457Q452 437 451 410T450 349Q450 310 451 281T453 242L450 239H429L426 242Q424 268 422 283T418 307T412 319T401 326Q394 329 380 330T351 333T320 334T293 335Q270 335 243 335T192 332V161Q192 132 192 99T194 33H331Q370 33 410 37T489 51Q495 72 498 86T504 113T509 136T513 163L516 166H538L541 163Q537 127 535 104T532 64T531 32T531 0L528 -3Q471 -2 398 -1T222 0Q165 0 126 -1T76 -3L73 0V20L76 23L104 38Q110 40 110 47Q114 89 115 135T117 228V578ZM249 899H304L427 732H394L277 837L161 732H128L249 899Z"  />
<glyph unicode="&#xCB;" horiz-adv-x="574" d="M117 578Q117 615 116 628T110 646Q107 651 97 655T57 661L21 663L18 666V689L21 692Q58 691 95 690T169 689Q258 689 345 690T522 692L525 689Q520 661 518 635T514 589T512 555T511 538L508 535H484L481 538Q481 550 481 558T480 576T478 599T474 635Q439 645 401 650T310 656Q281 656 250 656T195 653Q193 627 193 608T192 560V374Q209 372 233 372T284 371Q302 371 322 371T360 373T391 375T408 379Q412 382 414 385T419 397T422 419T426 457L429 460H450L453 457Q452 437 451 410T450 349Q450 310 451 281T453 242L450 239H429L426 242Q424 268 422 283T418 307T412 319T401 326Q394 329 380 330T351 333T320 334T293 335Q270 335 243 335T192 332V161Q192 132 192 99T194 33H331Q370 33 410 37T489 51Q495 72 498 86T504 113T509 136T513 163L516 166H538L541 163Q537 127 535 104T532 64T531 32T531 0L528 -3Q471 -2 398 -1T222 0Q165 0 126 -1T76 -3L73 0V20L76 23L104 38Q110 40 110 47Q114 89 115 135T117 228V578ZM329 797Q329 815 342 829T375 843Q393 843 407 829T421 797Q421 779 407 765T375 751Q356 751 343 765T329 797ZM134 797Q134 814 147 828T179 843Q197 843 211 830T226 797Q226 778 212 765T179 751Q160 751 147 765T134 797Z"  />
<glyph unicode="&#xCC;" horiz-adv-x="315" d="M120 578Q120 615 119 628T113 646Q110 651 100 655T60 661L24 663L21 666V689L24 692Q56 691 89 690T158 689Q192 689 225 690T291 692L294 689V666L291 663L255 661Q226 659 216 655T202 646Q198 641 197 628T195 578V111Q195 74 196 61T202 43Q205 38 215 34T255 28L291 26L294 23V0L291 -3Q259 -2 226 -1T158 0Q123 0 90 -1T24 -3L21 0V23L24 26L60 28Q89 30 99 34T113 43Q117 48 118 61T120 111V578ZM34 833Q20 841 15 848T10 867Q10 880 19 890T45 901Q56 901 65 895T84 878L230 732H196L34 833Z"  />
<glyph unicode="&#xCD;" horiz-adv-x="315" d="M120 578Q120 615 119 628T113 646Q110 651 100 655T60 661L24 663L21 666V689L24 692Q56 691 89 690T158 689Q192 689 225 690T291 692L294 689V666L291 663L255 661Q226 659 216 655T202 646Q198 641 197 628T195 578V111Q195 74 196 61T202 43Q205 38 215 34T255 28L291 26L294 23V0L291 -3Q259 -2 226 -1T158 0Q123 0 90 -1T24 -3L21 0V23L24 26L60 28Q89 30 99 34T113 43Q117 48 118 61T120 111V578ZM231 878Q241 888 250 894T270 901Q287 901 296 891T305 867Q305 856 300 849T281 833L119 732H85L231 878Z"  />
<glyph unicode="&#xCE;" horiz-adv-x="315" d="M120 578Q120 615 119 628T113 646Q110 651 100 655T60 661L24 663L21 666V689L24 692Q56 691 89 690T158 689Q192 689 225 690T291 692L294 689V666L291 663L255 661Q226 659 216 655T202 646Q198 641 197 628T195 578V111Q195 74 196 61T202 43Q205 38 215 34T255 28L291 26L294 23V0L291 -3Q259 -2 226 -1T158 0Q123 0 90 -1T24 -3L21 0V23L24 26L60 28Q89 30 99 34T113 43Q117 48 118 61T120 111V578ZM129 899H184L307 732H274L157 837L41 732H8L129 899Z"  />
<glyph unicode="&#xCF;" horiz-adv-x="315" d="M120 578Q120 615 119 628T113 646Q110 651 100 655T60 661L24 663L21 666V689L24 692Q56 691 89 690T158 689Q192 689 225 690T291 692L294 689V666L291 663L255 661Q226 659 216 655T202 646Q198 641 197 628T195 578V111Q195 74 196 61T202 43Q205 38 215 34T255 28L291 26L294 23V0L291 -3Q259 -2 226 -1T158 0Q123 0 90 -1T24 -3L21 0V23L24 26L60 28Q89 30 99 34T113 43Q117 48 118 61T120 111V578ZM209 797Q209 815 222 829T255 843Q273 843 287 829T301 797Q301 779 287 765T255 751Q236 751 223 765T209 797ZM14 797Q14 814 27 828T59 843Q77 843 91 830T106 797Q106 778 92 765T59 751Q40 751 27 765T14 797Z"  />
<glyph unicode="&#xD0;" horiz-adv-x="759" d="M117 348H21L18 351V378L21 381H117V578Q117 615 116 628T110 646Q107 651 97 655T57 661L21 663L18 666V689L21 692Q53 691 86 690T155 689Q211 689 261 690T344 692Q383 692 425 687T508 668T585 631T648 572T692 488T708 374Q708 312 685 245T614 123T491 33T310 -3Q271 -3 232 -2T154 0Q134 0 115 -1T76 -3L73 0V20L76 23L104 38Q110 40 110 47Q114 89 115 135T117 228V348ZM192 381H405L408 378V351L405 348H192V149Q192 123 192 93T195 40Q214 36 244 35T310 33Q380 33 437 55T534 120T597 223T620 358Q620 425 604 474T562 556T501 609T431 641T360 655T296 659Q265 659 240 657T198 652Q194 625 193 592T192 511V381Z"  />
<glyph unicode="&#xD1;" horiz-adv-x="796" d="M116 575Q116 602 114 618T107 644T92 656T69 661L21 663L18 666V689L21 692Q38 691 55 690T90 689Q110 689 130 690T171 692Q194 660 228 616T302 521T386 415T474 304T562 197T644 100V387Q644 479 641 541T637 618Q635 632 633 638T629 647Q624 652 616 655T584 661L549 663L546 666V689L549 692Q567 691 595 690T662 689Q700 689 728 690T775 692L778 689V666L775 663L740 661Q717 659 709 656T695 647Q693 645 691 639T687 618Q685 604 683 542T680 387V87Q680 52 681 27T684 -19Q658 -9 631 -6L154 588H152V302Q152 210 154 148T159 71Q161 57 163 51T167 42Q172 37 180 34T212 28L247 26L250 23V0L247 -3Q229 -2 201 -1T134 0Q96 0 68 -1T21 -3L18 0V23L21 26L56 28Q79 30 87 33T101 42Q103 44 105 50T109 71Q110 85 113 147T116 302V575ZM558 861Q556 849 551 832T535 798T507 771T464 759Q447 759 431 764T383 783Q357 794 342 799T313 804Q290 804 280 790T263 756H237Q239 768 244 785T259 819T287 846T331 858Q348 858 364 853T412 834Q438 823 453 818T482 813Q505 813 515 827T532 861H558Z"  />
<glyph unicode="&#xD2;" horiz-adv-x="815" d="M127 383Q127 314 144 248T195 131T283 49T409 18Q454 18 503 33T592 85T659 182T685 332Q685 417 663 481T602 588T511 652T397 674Q345 674 296 657T210 603T150 512T127 383ZM45 335Q45 432 75 502T156 617T271 683T404 704Q489 704 557 681T672 613T744 504T770 358Q770 289 746 223T673 103T555 18T391 -15Q324 -15 273 1T183 45T118 108T75 182T52 260T45 335ZM294 833Q280 841 275 848T270 867Q270 880 279 890T305 901Q316 901 325 895T344 878L490 732H456L294 833Z"  />
<glyph unicode="&#xD3;" horiz-adv-x="815" d="M127 383Q127 314 144 248T195 131T283 49T409 18Q454 18 503 33T592 85T659 182T685 332Q685 417 663 481T602 588T511 652T397 674Q345 674 296 657T210 603T150 512T127 383ZM45 335Q45 432 75 502T156 617T271 683T404 704Q489 704 557 681T672 613T744 504T770 358Q770 289 746 223T673 103T555 18T391 -15Q324 -15 273 1T183 45T118 108T75 182T52 260T45 335ZM481 878Q491 888 500 894T520 901Q537 901 546 891T555 867Q555 856 550 849T531 833L369 732H335L481 878Z"  />
<glyph unicode="&#xD4;" horiz-adv-x="815" d="M127 383Q127 314 144 248T195 131T283 49T409 18Q454 18 503 33T592 85T659 182T685 332Q685 417 663 481T602 588T511 652T397 674Q345 674 296 657T210 603T150 512T127 383ZM45 335Q45 432 75 502T156 617T271 683T404 704Q489 704 557 681T672 613T744 504T770 358Q770 289 746 223T673 103T555 18T391 -15Q324 -15 273 1T183 45T118 108T75 182T52 260T45 335ZM379 899H434L557 732H524L407 837L291 732H258L379 899Z"  />
<glyph unicode="&#xD5;" horiz-adv-x="815" d="M127 383Q127 314 144 248T195 131T283 49T409 18Q454 18 503 33T592 85T659 182T685 332Q685 417 663 481T602 588T511 652T397 674Q345 674 296 657T210 603T150 512T127 383ZM45 335Q45 432 75 502T156 617T271 683T404 704Q489 704 557 681T672 613T744 504T770 358Q770 289 746 223T673 103T555 18T391 -15Q324 -15 273 1T183 45T118 108T75 182T52 260T45 335ZM568 861Q566 849 561 832T545 798T517 771T474 759Q457 759 441 764T393 783Q367 794 352 799T323 804Q300 804 290 790T273 756H247Q249 768 254 785T269 819T297 846T341 858Q358 858 374 853T422 834Q448 823 463 818T492 813Q515 813 525 827T542 861H568Z"  />
<glyph unicode="&#xD6;" horiz-adv-x="815" d="M127 383Q127 314 144 248T195 131T283 49T409 18Q454 18 503 33T592 85T659 182T685 332Q685 417 663 481T602 588T511 652T397 674Q345 674 296 657T210 603T150 512T127 383ZM45 335Q45 432 75 502T156 617T271 683T404 704Q489 704 557 681T672 613T744 504T770 358Q770 289 746 223T673 103T555 18T391 -15Q324 -15 273 1T183 45T118 108T75 182T52 260T45 335ZM459 797Q459 815 472 829T505 843Q523 843 537 829T551 797Q551 779 537 765T505 751Q486 751 473 765T459 797ZM264 797Q264 814 277 828T309 843Q327 843 341 830T356 797Q356 778 342 765T309 751Q290 751 277 765T264 797Z"  />
<glyph unicode="&#xD7;" horiz-adv-x="600" d="M74 443L110 479L299 288L490 479L526 443L336 253L526 63L490 27L299 218L110 27L74 63L264 253L74 443Z"  />
<glyph unicode="&#xD8;" horiz-adv-x="815" d="M604 585Q565 630 512 652T397 674Q345 674 296 657T210 603T150 512T127 383Q127 314 143 250T193 134L604 585ZM143 79Q116 106 98 138T67 204T50 271T45 335Q45 432 75 502T156 617T271 683T404 704Q480 704 541 686T648 633L730 723H733L754 703V700L673 611Q720 567 745 504T770 358Q770 289 746 223T673 103T555 18T391 -15Q318 -15 263 4T168 57L85 -34H82L61 -14V-11L143 79ZM214 107Q247 66 295 42T409 18Q454 18 503 33T592 85T659 182T685 332Q685 404 670 460T625 558L214 107Z"  />
<glyph unicode="&#xD9;" horiz-adv-x="741" d="M105 578Q105 615 104 628T98 646Q95 651 85 655T45 661L9 663L6 666V689L9 692Q41 691 75 690T144 689Q177 689 210 690T276 692L279 689V666L276 663L240 661Q211 659 201 655T187 646Q183 641 182 628T180 578V222Q180 181 189 146T222 85T282 45T377 30Q462 30 508 57T578 130Q592 159 596 196T601 295V387Q601 479 598 541T594 618Q592 632 590 638T586 647Q581 652 573 655T541 661L506 663L503 666V689L506 692Q524 691 552 690T619 689Q657 689 685 690T732 692L735 689V666L732 663L697 661Q674 659 666 656T652 647Q650 645 648 639T644 618Q642 604 640 542T637 387V302Q637 263 636 235T633 186T627 149T615 116Q602 88 582 64T532 23T461 -5T365 -15Q284 -15 233 2T154 49T115 116T105 196V578ZM285 833Q271 841 266 848T261 867Q261 880 270 890T296 901Q307 901 316 895T335 878L481 732H447L285 833Z"  />
<glyph unicode="&#xDA;" horiz-adv-x="741" d="M105 578Q105 615 104 628T98 646Q95 651 85 655T45 661L9 663L6 666V689L9 692Q41 691 75 690T144 689Q177 689 210 690T276 692L279 689V666L276 663L240 661Q211 659 201 655T187 646Q183 641 182 628T180 578V222Q180 181 189 146T222 85T282 45T377 30Q462 30 508 57T578 130Q592 159 596 196T601 295V387Q601 479 598 541T594 618Q592 632 590 638T586 647Q581 652 573 655T541 661L506 663L503 666V689L506 692Q524 691 552 690T619 689Q657 689 685 690T732 692L735 689V666L732 663L697 661Q674 659 666 656T652 647Q650 645 648 639T644 618Q642 604 640 542T637 387V302Q637 263 636 235T633 186T627 149T615 116Q602 88 582 64T532 23T461 -5T365 -15Q284 -15 233 2T154 49T115 116T105 196V578ZM472 878Q482 888 491 894T511 901Q528 901 537 891T546 867Q546 856 541 849T522 833L360 732H326L472 878Z"  />
<glyph unicode="&#xDB;" horiz-adv-x="741" d="M105 578Q105 615 104 628T98 646Q95 651 85 655T45 661L9 663L6 666V689L9 692Q41 691 75 690T144 689Q177 689 210 690T276 692L279 689V666L276 663L240 661Q211 659 201 655T187 646Q183 641 182 628T180 578V222Q180 181 189 146T222 85T282 45T377 30Q462 30 508 57T578 130Q592 159 596 196T601 295V387Q601 479 598 541T594 618Q592 632 590 638T586 647Q581 652 573 655T541 661L506 663L503 666V689L506 692Q524 691 552 690T619 689Q657 689 685 690T732 692L735 689V666L732 663L697 661Q674 659 666 656T652 647Q650 645 648 639T644 618Q642 604 640 542T637 387V302Q637 263 636 235T633 186T627 149T615 116Q602 88 582 64T532 23T461 -5T365 -15Q284 -15 233 2T154 49T115 116T105 196V578ZM351 899H406L529 732H496L379 837L263 732H230L351 899Z"  />
<glyph unicode="&#xDC;" horiz-adv-x="741" d="M105 578Q105 615 104 628T98 646Q95 651 85 655T45 661L9 663L6 666V689L9 692Q41 691 75 690T144 689Q177 689 210 690T276 692L279 689V666L276 663L240 661Q211 659 201 655T187 646Q183 641 182 628T180 578V222Q180 181 189 146T222 85T282 45T377 30Q462 30 508 57T578 130Q592 159 596 196T601 295V387Q601 479 598 541T594 618Q592 632 590 638T586 647Q581 652 573 655T541 661L506 663L503 666V689L506 692Q524 691 552 690T619 689Q657 689 685 690T732 692L735 689V666L732 663L697 661Q674 659 666 656T652 647Q650 645 648 639T644 618Q642 604 640 542T637 387V302Q637 263 636 235T633 186T627 149T615 116Q602 88 582 64T532 23T461 -5T365 -15Q284 -15 233 2T154 49T115 116T105 196V578ZM431 797Q431 815 444 829T477 843Q495 843 509 829T523 797Q523 779 509 765T477 751Q458 751 445 765T431 797ZM236 797Q236 814 249 828T281 843Q299 843 313 830T328 797Q328 778 314 765T281 751Q262 751 249 765T236 797Z"  />
<glyph unicode="&#xDD;" horiz-adv-x="593" d="M273 289Q248 332 224 373T179 450T140 513T112 555Q89 587 73 606T44 635T17 650T-13 657L-16 660V677L-13 680L81 704Q89 700 94 697T107 688Q121 677 140 652T181 592T224 520T266 446T301 379T327 330L415 473Q430 498 448 529T485 592T518 649T542 692Q550 691 558 690T574 689Q582 689 590 690T606 692L609 689V677L606 674Q571 639 533 584T446 456Q408 399 389 366T358 311Q350 296 349 285T348 250V111Q348 74 349 61T355 43Q358 38 368 34T408 28L444 26L447 23V0L444 -3Q412 -2 379 -1T311 0Q276 0 243 -1T177 -3L174 0V23L177 26L213 28Q242 30 252 34T266 43Q270 48 271 61T273 111V289ZM410 878Q420 888 429 894T449 901Q466 901 475 891T484 867Q484 856 479 849T460 833L298 732H264L410 878Z"  />
<glyph unicode="&#xDE;" horiz-adv-x="593" d="M123 578Q123 615 122 628T116 646Q113 651 103 655T63 661L27 663L24 666V689L27 692Q56 691 88 690T159 689Q201 689 233 690T294 692L297 689V666L294 663L258 661Q229 659 219 655T205 646Q201 641 200 628T198 578V559Q217 559 251 560T323 562Q377 562 422 555T501 528T552 478T571 398Q571 369 558 334T515 269T439 219T326 198Q290 198 262 208L253 236L256 239Q270 234 284 231T317 228Q366 228 399 242T452 279T480 330T489 384Q489 421 477 448T442 494T388 520T318 529Q278 529 250 527T202 522Q200 502 199 473T198 403V111Q198 74 199 61T205 43Q208 38 218 34T258 28L294 26L297 23V0L294 -3Q262 -2 229 -1T161 0Q126 0 93 -1T27 -3L24 0V23L27 26L63 28Q92 30 102 34T116 43Q120 48 121 61T123 111V578Z"  />
<glyph unicode="&#xDF;" horiz-adv-x="537" d="M18 17L21 20L44 22Q63 24 72 27T87 35Q92 41 93 55T94 98V393H75Q63 393 51 392T27 389L24 392V405L27 408L94 435V505Q94 526 95 537T103 566Q109 584 128 611T176 664T241 708T318 727Q392 727 430 689T469 576Q469 544 459 500T432 395L423 391Q411 399 395 404T360 410Q337 410 320 395T303 356Q303 333 327 316T393 274Q418 259 437 247T468 221T487 191T493 153Q493 130 488 112T473 80T454 55T434 36Q420 23 408 14T382 -1T355 -9T322 -12Q308 -12 284 -8T237 12V0L234 -3L131 0Q102 0 75 -1T21 -3L18 0V17ZM159 98Q159 70 160 56T166 35Q171 30 180 27T209 22L234 20Q239 40 243 61T251 106L254 109H273L276 106L278 57Q290 46 308 38T350 30Q367 30 383 35T413 50T434 75T442 112Q442 129 438 141T422 165T392 189T345 218Q318 233 300 244T270 266T254 287T249 312Q249 329 260 350T286 390T318 425T345 447Q362 457 379 459T418 461Q422 478 424 493T427 535Q427 562 420 588T395 635T350 669T281 682Q235 682 211 662T175 613T161 555T159 506V98Z"  />
<glyph unicode="&#xE0;" horiz-adv-x="481" d="M324 259Q298 251 261 244T191 224Q175 218 160 210T134 191T116 165T109 128Q109 112 113 96T127 68T153 47T195 39Q219 39 239 47T276 68T305 92T324 114V259ZM389 77Q389 60 391 50T398 35T413 26T440 22L462 20L465 17V0L462 -3Q446 -2 428 -1T392 0Q374 0 355 -1T327 -3L321 3Q324 40 324 79Q310 65 291 49T240 9Q223 -3 208 -7T171 -12Q100 -12 69 22T37 116Q37 169 66 197T142 241Q186 256 235 264T324 283V303Q324 368 297 395T211 423Q187 423 170 418T144 406Q136 401 133 396T125 381L106 334L103 331L83 337L80 340L78 404L81 408Q93 416 108 426T144 446T189 461T245 468Q260 468 278 465T314 454T347 433T373 400Q385 375 387 344T389 264V77ZM127 657Q113 665 108 672T103 691Q103 704 112 714T138 725Q149 725 158 719T177 702L323 556H289L127 657Z"  />
<glyph unicode="&#xE1;" horiz-adv-x="481" d="M324 259Q298 251 261 244T191 224Q175 218 160 210T134 191T116 165T109 128Q109 112 113 96T127 68T153 47T195 39Q219 39 239 47T276 68T305 92T324 114V259ZM389 77Q389 60 391 50T398 35T413 26T440 22L462 20L465 17V0L462 -3Q446 -2 428 -1T392 0Q374 0 355 -1T327 -3L321 3Q324 40 324 79Q310 65 291 49T240 9Q223 -3 208 -7T171 -12Q100 -12 69 22T37 116Q37 169 66 197T142 241Q186 256 235 264T324 283V303Q324 368 297 395T211 423Q187 423 170 418T144 406Q136 401 133 396T125 381L106 334L103 331L83 337L80 340L78 404L81 408Q93 416 108 426T144 446T189 461T245 468Q260 468 278 465T314 454T347 433T373 400Q385 375 387 344T389 264V77ZM284 702Q294 712 303 718T323 725Q340 725 349 715T358 691Q358 680 353 673T334 657L172 556H138L284 702Z"  />
<glyph unicode="&#xE2;" horiz-adv-x="481" d="M324 259Q298 251 261 244T191 224Q175 218 160 210T134 191T116 165T109 128Q109 112 113 96T127 68T153 47T195 39Q219 39 239 47T276 68T305 92T324 114V259ZM389 77Q389 60 391 50T398 35T413 26T440 22L462 20L465 17V0L462 -3Q446 -2 428 -1T392 0Q374 0 355 -1T327 -3L321 3Q324 40 324 79Q310 65 291 49T240 9Q223 -3 208 -7T171 -12Q100 -12 69 22T37 116Q37 169 66 197T142 241Q186 256 235 264T324 283V303Q324 368 297 395T211 423Q187 423 170 418T144 406Q136 401 133 396T125 381L106 334L103 331L83 337L80 340L78 404L81 408Q93 416 108 426T144 446T189 461T245 468Q260 468 278 465T314 454T347 433T373 400Q385 375 387 344T389 264V77ZM223 723H278L401 556H368L251 661L135 556H102L223 723Z"  />
<glyph unicode="&#xE3;" horiz-adv-x="481" d="M324 259Q298 251 261 244T191 224Q175 218 160 210T134 191T116 165T109 128Q109 112 113 96T127 68T153 47T195 39Q219 39 239 47T276 68T305 92T324 114V259ZM389 77Q389 60 391 50T398 35T413 26T440 22L462 20L465 17V0L462 -3Q446 -2 428 -1T392 0Q374 0 355 -1T327 -3L321 3Q324 40 324 79Q310 65 291 49T240 9Q223 -3 208 -7T171 -12Q100 -12 69 22T37 116Q37 169 66 197T142 241Q186 256 235 264T324 283V303Q324 368 297 395T211 423Q187 423 170 418T144 406Q136 401 133 396T125 381L106 334L103 331L83 337L80 340L78 404L81 408Q93 416 108 426T144 446T189 461T245 468Q260 468 278 465T314 454T347 433T373 400Q385 375 387 344T389 264V77ZM412 685Q410 673 405 656T389 622T361 595T318 583Q301 583 285 588T237 607Q211 618 196 623T167 628Q144 628 134 614T117 580H91Q93 592 98 609T113 643T141 670T185 682Q202 682 218 677T266 658Q292 647 307 642T336 637Q359 637 369 651T386 685H412Z"  />
<glyph unicode="&#xE4;" horiz-adv-x="481" d="M324 259Q298 251 261 244T191 224Q175 218 160 210T134 191T116 165T109 128Q109 112 113 96T127 68T153 47T195 39Q219 39 239 47T276 68T305 92T324 114V259ZM389 77Q389 60 391 50T398 35T413 26T440 22L462 20L465 17V0L462 -3Q446 -2 428 -1T392 0Q374 0 355 -1T327 -3L321 3Q324 40 324 79Q310 65 291 49T240 9Q223 -3 208 -7T171 -12Q100 -12 69 22T37 116Q37 169 66 197T142 241Q186 256 235 264T324 283V303Q324 368 297 395T211 423Q187 423 170 418T144 406Q136 401 133 396T125 381L106 334L103 331L83 337L80 340L78 404L81 408Q93 416 108 426T144 446T189 461T245 468Q260 468 278 465T314 454T347 433T373 400Q385 375 387 344T389 264V77ZM303 621Q303 639 316 653T349 667Q367 667 381 653T395 621Q395 603 381 589T349 575Q330 575 317 589T303 621ZM108 621Q108 638 121 652T153 667Q171 667 185 654T200 621Q200 602 186 589T153 575Q134 575 121 589T108 621Z"  />
<glyph unicode="&#xE5;" horiz-adv-x="481" d="M324 259Q298 251 261 244T191 224Q175 218 160 210T134 191T116 165T109 128Q109 112 113 96T127 68T153 47T195 39Q219 39 239 47T276 68T305 92T324 114V259ZM389 77Q389 60 391 50T398 35T413 26T440 22L462 20L465 17V0L462 -3Q446 -2 428 -1T392 0Q374 0 355 -1T327 -3L321 3Q324 40 324 79Q310 65 291 49T240 9Q223 -3 208 -7T171 -12Q100 -12 69 22T37 116Q37 169 66 197T142 241Q186 256 235 264T324 283V303Q324 368 297 395T211 423Q187 423 170 418T144 406Q136 401 133 396T125 381L106 334L103 331L83 337L80 340L78 404L81 408Q93 416 108 426T144 446T189 461T245 468Q260 468 278 465T314 454T347 433T373 400Q385 375 387 344T389 264V77ZM155 630Q155 649 162 666T183 697T214 719T252 727Q271 727 289 719T320 698T341 667T349 630Q349 610 341 593T320 562T289 541T252 533Q232 533 215 541T184 562T163 593T155 630ZM185 630Q185 603 204 583T252 563Q280 563 299 582T319 630Q319 658 300 677T252 697Q223 697 204 677T185 630Z"  />
<glyph unicode="&#xE6;" horiz-adv-x="759" d="M682 34Q660 20 620 4T522 -12Q463 -12 424 18T361 91Q356 87 343 75T315 50T286 24T263 8Q244 -3 222 -7T170 -12Q104 -12 71 23T37 114Q37 154 55 181T109 227T200 256T329 275V303Q329 362 299 392T211 423Q187 423 170 418T144 406Q136 401 133 396T125 381L106 334L103 331L83 337L80 340L78 404L81 408Q93 416 108 426T144 446T189 461T245 468Q277 468 300 459T340 438T365 412T377 390Q417 431 457 449T545 468Q569 468 598 461T653 434T696 378T714 285Q714 275 714 268T712 253Q702 251 679 250T628 247T572 244T522 243H389Q389 198 400 160T432 93T484 49T557 33Q578 33 598 38T637 50T670 65T694 79L702 71L682 34ZM109 126Q109 35 205 35Q229 35 249 43T287 63T320 89T349 115Q344 127 341 142T335 174T331 208T329 239V248Q279 245 239 237T170 215T125 178T109 126ZM525 435Q483 435 458 419T418 378T397 325T389 272Q428 271 463 271T535 270Q541 270 556 270T587 272T618 274T637 275Q638 284 638 293T639 311Q639 346 628 369T599 407T561 428T525 435Z"  />
<glyph unicode="&#xE7;" horiz-adv-x="426" d="M379 25Q362 13 333 2T254 -12L228 -69Q234 -67 242 -66T265 -64Q297 -64 319 -82T341 -132Q341 -147 335 -162T315 -189T279 -208T224 -216Q190 -216 171 -212T142 -202L140 -197L150 -175L155 -172Q168 -177 182 -180T209 -183Q239 -183 256 -171T273 -139Q273 -119 260 -110T226 -100Q215 -100 208 -102T196 -107L180 -102L220 -11Q186 -8 154 6T96 48T55 118T39 219Q39 263 46 297T72 358Q84 376 105 395T155 430T216 457T281 468Q319 468 343 461T390 442L393 439Q385 404 383 373T378 317L375 314H357L354 317Q354 320 354 329T352 348T348 369T343 384Q341 388 333 395T312 409T282 421T245 426Q224 426 200 419T155 391T121 335T107 246Q107 210 116 172T147 103T200 53T277 33Q319 33 345 43T391 63L397 55L379 25Z"  />
<glyph unicode="&#xE8;" horiz-adv-x="481" d="M247 435Q205 435 180 419T140 378T119 325T111 272Q150 271 185 271T257 270Q263 270 278 270T309 272T340 274T359 275Q360 284 360 293T361 311Q361 346 350 369T321 407T283 428T247 435ZM404 34Q382 20 342 4T244 -12Q217 -12 182 -2T115 35T61 107T39 223Q39 239 41 260T47 303T60 344T79 376Q86 385 104 400T147 431T203 457T267 468Q291 468 320 461T375 434T418 378T436 285Q436 275 436 268T434 253Q424 251 401 250T350 247T294 244T244 243H111Q111 198 122 160T154 93T206 49T279 33Q300 33 320 38T359 50T392 65T416 79L424 71L404 34ZM137 657Q123 665 118 672T113 691Q113 704 122 714T148 725Q159 725 168 719T187 702L333 556H299L137 657Z"  />
<glyph unicode="&#xE9;" horiz-adv-x="481" d="M247 435Q205 435 180 419T140 378T119 325T111 272Q150 271 185 271T257 270Q263 270 278 270T309 272T340 274T359 275Q360 284 360 293T361 311Q361 346 350 369T321 407T283 428T247 435ZM404 34Q382 20 342 4T244 -12Q217 -12 182 -2T115 35T61 107T39 223Q39 239 41 260T47 303T60 344T79 376Q86 385 104 400T147 431T203 457T267 468Q291 468 320 461T375 434T418 378T436 285Q436 275 436 268T434 253Q424 251 401 250T350 247T294 244T244 243H111Q111 198 122 160T154 93T206 49T279 33Q300 33 320 38T359 50T392 65T416 79L424 71L404 34ZM304 702Q314 712 323 718T343 725Q360 725 369 715T378 691Q378 680 373 673T354 657L192 556H158L304 702Z"  />
<glyph unicode="&#xEA;" horiz-adv-x="481" d="M247 435Q205 435 180 419T140 378T119 325T111 272Q150 271 185 271T257 270Q263 270 278 270T309 272T340 274T359 275Q360 284 360 293T361 311Q361 346 350 369T321 407T283 428T247 435ZM404 34Q382 20 342 4T244 -12Q217 -12 182 -2T115 35T61 107T39 223Q39 239 41 260T47 303T60 344T79 376Q86 385 104 400T147 431T203 457T267 468Q291 468 320 461T375 434T418 378T436 285Q436 275 436 268T434 253Q424 251 401 250T350 247T294 244T244 243H111Q111 198 122 160T154 93T206 49T279 33Q300 33 320 38T359 50T392 65T416 79L424 71L404 34ZM209 723H264L387 556H354L237 661L121 556H88L209 723Z"  />
<glyph unicode="&#xEB;" horiz-adv-x="481" d="M247 435Q205 435 180 419T140 378T119 325T111 272Q150 271 185 271T257 270Q263 270 278 270T309 272T340 274T359 275Q360 284 360 293T361 311Q361 346 350 369T321 407T283 428T247 435ZM404 34Q382 20 342 4T244 -12Q217 -12 182 -2T115 35T61 107T39 223Q39 239 41 260T47 303T60 344T79 376Q86 385 104 400T147 431T203 457T267 468Q291 468 320 461T375 434T418 378T436 285Q436 275 436 268T434 253Q424 251 401 250T350 247T294 244T244 243H111Q111 198 122 160T154 93T206 49T279 33Q300 33 320 38T359 50T392 65T416 79L424 71L404 34ZM297 621Q297 639 310 653T343 667Q361 667 375 653T389 621Q389 603 375 589T343 575Q324 575 311 589T297 621ZM102 621Q102 638 115 652T147 667Q165 667 179 654T194 621Q194 602 180 589T147 575Q128 575 115 589T102 621Z"  />
<glyph unicode="&#xEC;" horiz-adv-x="259" d="M97 339Q97 361 97 375T91 395Q87 400 82 402T66 405L20 407L17 410V427L20 430Q32 431 49 435T85 444T122 455T156 468L165 462Q163 448 163 416T162 339V98Q162 70 163 56T169 35Q174 30 183 27T212 22L239 20L242 17V0L239 -3Q210 -2 183 -1T130 0Q104 0 77 -1T20 -3L17 0V17L20 20L47 22Q66 24 75 27T90 35Q95 41 96 55T97 98V339ZM-3 657Q-17 665 -22 672T-27 691Q-27 704 -18 714T8 725Q19 725 28 719T47 702L193 556H159L-3 657Z"  />
<glyph unicode="&#xED;" horiz-adv-x="259" d="M97 339Q97 361 97 375T91 395Q87 400 82 402T66 405L20 407L17 410V427L20 430Q32 431 49 435T85 444T122 455T156 468L165 462Q163 448 163 416T162 339V98Q162 70 163 56T169 35Q174 30 183 27T212 22L239 20L242 17V0L239 -3Q210 -2 183 -1T130 0Q104 0 77 -1T20 -3L17 0V17L20 20L47 22Q66 24 75 27T90 35Q95 41 96 55T97 98V339ZM194 702Q204 712 213 718T233 725Q250 725 259 715T268 691Q268 680 263 673T244 657L82 556H48L194 702Z"  />
<glyph unicode="&#xEE;" horiz-adv-x="259" d="M97 339Q97 361 97 375T91 395Q87 400 82 402T66 405L20 407L17 410V427L20 430Q32 431 49 435T85 444T122 455T156 468L165 462Q163 448 163 416T162 339V98Q162 70 163 56T169 35Q174 30 183 27T212 22L239 20L242 17V0L239 -3Q210 -2 183 -1T130 0Q104 0 77 -1T20 -3L17 0V17L20 20L47 22Q66 24 75 27T90 35Q95 41 96 55T97 98V339ZM101 723H156L279 556H246L129 661L13 556H-20L101 723Z"  />
<glyph unicode="&#xEF;" horiz-adv-x="259" d="M97 339Q97 361 97 375T91 395Q87 400 82 402T66 405L20 407L17 410V427L20 430Q32 431 49 435T85 444T122 455T156 468L165 462Q163 448 163 416T162 339V98Q162 70 163 56T169 35Q174 30 183 27T212 22L239 20L242 17V0L239 -3Q210 -2 183 -1T130 0Q104 0 77 -1T20 -3L17 0V17L20 20L47 22Q66 24 75 27T90 35Q95 41 96 55T97 98V339ZM181 621Q181 639 194 653T227 667Q245 667 259 653T273 621Q273 603 259 589T227 575Q208 575 195 589T181 621ZM-14 621Q-14 638 -1 652T31 667Q49 667 63 654T78 621Q78 602 64 589T31 575Q12 575 -1 589T-14 621Z"  />
<glyph unicode="&#xF0;" horiz-adv-x="537" d="M263 617Q240 637 206 660T142 695V698L166 727H169Q208 710 245 686T309 640L439 704H442L462 677V674L337 612Q359 594 386 564T439 492T481 394T498 270Q498 198 479 145T428 57T355 5T267 -12Q201 -12 158 12T88 72T50 149T39 225Q39 278 56 322T105 399T179 450T274 468Q314 468 348 453T399 417L401 419Q395 442 383 467T355 515T323 558T293 590L151 520H148L128 547V550L263 617ZM114 241Q114 194 124 154T154 83T202 36T267 18Q298 18 326 28T376 61T410 124T423 224Q423 265 414 303T386 372T338 420T268 438Q221 438 191 422T144 378T121 315T114 241Z"  />
<glyph unicode="&#xF1;" horiz-adv-x="574" d="M97 339Q97 361 97 375T91 395Q87 400 82 402T66 405L24 407L21 410V427L24 430Q34 431 50 435T85 444T122 455T156 468L162 462V380Q170 386 182 396T206 416T229 437T245 453Q259 459 276 463T323 468Q370 468 400 453T447 413T470 359T477 302V77Q477 60 479 50T486 35T501 26T528 22L550 20L553 17V0L550 -3Q534 -2 516 -1T480 0Q462 0 443 -1T413 -3L407 3Q411 54 411 110T412 237Q412 274 409 306T394 362T357 400T286 414Q262 414 241 406T205 386T180 364T169 350Q166 343 164 320T162 243V181Q162 110 163 81T169 41Q172 32 182 28T220 22L244 20L247 17V0L244 -3Q218 -2 191 -1T134 0Q105 0 78 -1T24 -3L21 0V17L24 20L47 22Q66 24 75 27T90 35Q95 41 96 55T97 98V339ZM432 685Q430 673 425 656T409 622T381 595T338 583Q321 583 305 588T257 607Q231 618 216 623T187 628Q164 628 154 614T137 580H111Q113 592 118 609T133 643T161 670T205 682Q222 682 238 677T286 658Q312 647 327 642T356 637Q379 637 389 651T406 685H432Z"  />
<glyph unicode="&#xF2;" horiz-adv-x="537" d="M39 225Q39 278 56 322T105 399T179 450T274 468Q323 468 364 453T435 408T481 334T498 233Q498 179 479 134T428 57T355 6T267 -12Q201 -12 158 12T88 72T50 149T39 225ZM267 18Q298 18 326 28T376 61T410 124T423 224Q423 265 415 303T387 372T337 420T262 438Q196 438 155 392T114 252Q114 199 124 156T154 83T202 35T267 18ZM155 657Q141 665 136 672T131 691Q131 704 140 714T166 725Q177 725 186 719T205 702L351 556H317L155 657Z"  />
<glyph unicode="&#xF3;" horiz-adv-x="537" d="M39 225Q39 278 56 322T105 399T179 450T274 468Q323 468 364 453T435 408T481 334T498 233Q498 179 479 134T428 57T355 6T267 -12Q201 -12 158 12T88 72T50 149T39 225ZM267 18Q298 18 326 28T376 61T410 124T423 224Q423 265 415 303T387 372T337 420T262 438Q196 438 155 392T114 252Q114 199 124 156T154 83T202 35T267 18ZM342 702Q352 712 361 718T381 725Q398 725 407 715T416 691Q416 680 411 673T392 657L230 556H196L342 702Z"  />
<glyph unicode="&#xF4;" horiz-adv-x="537" d="M39 225Q39 278 56 322T105 399T179 450T274 468Q323 468 364 453T435 408T481 334T498 233Q498 179 479 134T428 57T355 6T267 -12Q201 -12 158 12T88 72T50 149T39 225ZM267 18Q298 18 326 28T376 61T410 124T423 224Q423 265 415 303T387 372T337 420T262 438Q196 438 155 392T114 252Q114 199 124 156T154 83T202 35T267 18ZM241 723H296L419 556H386L269 661L153 556H120L241 723Z"  />
<glyph unicode="&#xF5;" horiz-adv-x="537" d="M39 225Q39 278 56 322T105 399T179 450T274 468Q323 468 364 453T435 408T481 334T498 233Q498 179 479 134T428 57T355 6T267 -12Q201 -12 158 12T88 72T50 149T39 225ZM267 18Q298 18 326 28T376 61T410 124T423 224Q423 265 415 303T387 372T337 420T262 438Q196 438 155 392T114 252Q114 199 124 156T154 83T202 35T267 18ZM430 685Q428 673 423 656T407 622T379 595T336 583Q319 583 303 588T255 607Q229 618 214 623T185 628Q162 628 152 614T135 580H109Q111 592 116 609T131 643T159 670T203 682Q220 682 236 677T284 658Q310 647 325 642T354 637Q377 637 387 651T404 685H430Z"  />
<glyph unicode="&#xF6;" horiz-adv-x="537" d="M39 225Q39 278 56 322T105 399T179 450T274 468Q323 468 364 453T435 408T481 334T498 233Q498 179 479 134T428 57T355 6T267 -12Q201 -12 158 12T88 72T50 149T39 225ZM267 18Q298 18 326 28T376 61T410 124T423 224Q423 265 415 303T387 372T337 420T262 438Q196 438 155 392T114 252Q114 199 124 156T154 83T202 35T267 18ZM321 621Q321 639 334 653T367 667Q385 667 399 653T413 621Q413 603 399 589T367 575Q348 575 335 589T321 621ZM126 621Q126 638 139 652T171 667Q189 667 203 654T218 621Q218 602 204 589T171 575Q152 575 139 589T126 621Z"  />
<glyph unicode="&#xF7;" horiz-adv-x="600" d="M47 277H553V229H47V277ZM244 462Q244 485 260 501T300 518Q323 518 339 502T356 462Q356 439 340 423T300 406Q277 406 261 422T244 462ZM244 44Q244 67 260 83T300 100Q323 100 339 84T356 44Q356 21 340 5T300 -12Q277 -12 261 4T244 44Z"  />
<glyph unicode="&#xF8;" horiz-adv-x="537" d="M384 375Q365 404 335 421T262 438Q196 438 155 392T114 252Q114 207 120 173T139 112L384 375ZM155 82Q175 51 203 35T267 18Q298 18 326 28T376 61T410 124T423 224Q423 256 418 287T400 345L155 82ZM94 64Q80 80 70 100T53 142T43 185T39 225Q39 278 56 322T105 399T179 450T274 468Q362 468 424 418L481 479H484L505 462V459L446 395Q471 366 484 326T498 233Q498 179 479 134T428 57T355 6T267 -12Q216 -12 181 1T116 41L56 -23H53L32 -6V-3L94 64Z"  />
<glyph unicode="&#xF9;" horiz-adv-x="556" d="M88 339Q88 361 88 375T82 395Q78 400 73 402T57 405L11 407L8 410V427L11 430Q23 431 40 435T76 444T113 455T147 468L156 462Q154 448 154 416T153 339V209Q153 179 154 159T156 124T161 101T168 83Q174 71 196 55T253 39Q289 39 320 57T374 101Q377 105 380 110T387 124T392 147T394 185V339Q394 361 394 375T388 395Q384 400 379 402T363 405L317 407L314 410V427L317 430Q329 431 346 435T382 444T419 455T453 468L462 462Q460 448 460 416T459 339V77Q459 60 461 50T468 35T483 26T510 22L532 20L535 17V0L532 -3Q516 -2 498 -1T462 0Q444 0 425 -1T395 -3L392 0Q393 22 393 43T394 86L330 27Q321 19 312 12T291 -1T263 -9T222 -12Q181 -12 155 1T114 36T94 82T88 132V339ZM155 657Q141 665 136 672T131 691Q131 704 140 714T166 725Q177 725 186 719T205 702L351 556H317L155 657Z"  />
<glyph unicode="&#xFA;" horiz-adv-x="556" d="M88 339Q88 361 88 375T82 395Q78 400 73 402T57 405L11 407L8 410V427L11 430Q23 431 40 435T76 444T113 455T147 468L156 462Q154 448 154 416T153 339V209Q153 179 154 159T156 124T161 101T168 83Q174 71 196 55T253 39Q289 39 320 57T374 101Q377 105 380 110T387 124T392 147T394 185V339Q394 361 394 375T388 395Q384 400 379 402T363 405L317 407L314 410V427L317 430Q329 431 346 435T382 444T419 455T453 468L462 462Q460 448 460 416T459 339V77Q459 60 461 50T468 35T483 26T510 22L532 20L535 17V0L532 -3Q516 -2 498 -1T462 0Q444 0 425 -1T395 -3L392 0Q393 22 393 43T394 86L330 27Q321 19 312 12T291 -1T263 -9T222 -12Q181 -12 155 1T114 36T94 82T88 132V339ZM342 702Q352 712 361 718T381 725Q398 725 407 715T416 691Q416 680 411 673T392 657L230 556H196L342 702Z"  />
<glyph unicode="&#xFB;" horiz-adv-x="556" d="M88 339Q88 361 88 375T82 395Q78 400 73 402T57 405L11 407L8 410V427L11 430Q23 431 40 435T76 444T113 455T147 468L156 462Q154 448 154 416T153 339V209Q153 179 154 159T156 124T161 101T168 83Q174 71 196 55T253 39Q289 39 320 57T374 101Q377 105 380 110T387 124T392 147T394 185V339Q394 361 394 375T388 395Q384 400 379 402T363 405L317 407L314 410V427L317 430Q329 431 346 435T382 444T419 455T453 468L462 462Q460 448 460 416T459 339V77Q459 60 461 50T468 35T483 26T510 22L532 20L535 17V0L532 -3Q516 -2 498 -1T462 0Q444 0 425 -1T395 -3L392 0Q393 22 393 43T394 86L330 27Q321 19 312 12T291 -1T263 -9T222 -12Q181 -12 155 1T114 36T94 82T88 132V339ZM241 723H296L419 556H386L269 661L153 556H120L241 723Z"  />
<glyph unicode="&#xFC;" horiz-adv-x="556" d="M88 339Q88 361 88 375T82 395Q78 400 73 402T57 405L11 407L8 410V427L11 430Q23 431 40 435T76 444T113 455T147 468L156 462Q154 448 154 416T153 339V209Q153 179 154 159T156 124T161 101T168 83Q174 71 196 55T253 39Q289 39 320 57T374 101Q377 105 380 110T387 124T392 147T394 185V339Q394 361 394 375T388 395Q384 400 379 402T363 405L317 407L314 410V427L317 430Q329 431 346 435T382 444T419 455T453 468L462 462Q460 448 460 416T459 339V77Q459 60 461 50T468 35T483 26T510 22L532 20L535 17V0L532 -3Q516 -2 498 -1T462 0Q444 0 425 -1T395 -3L392 0Q393 22 393 43T394 86L330 27Q321 19 312 12T291 -1T263 -9T222 -12Q181 -12 155 1T114 36T94 82T88 132V339ZM321 621Q321 639 334 653T367 667Q385 667 399 653T413 621Q413 603 399 589T367 575Q348 575 335 589T321 621ZM126 621Q126 638 139 652T171 667Q189 667 203 654T218 621Q218 602 204 589T171 575Q152 575 139 589T126 621Z"  />
<glyph unicode="&#xFD;" horiz-adv-x="481" d="M23 -198L32 -192Q40 -200 51 -206T81 -213Q100 -213 113 -206T137 -188T156 -161T173 -129Q190 -96 202 -65T222 -17Q216 5 203 40T174 114T141 194T108 269T82 328T68 360Q57 384 48 397T32 417T17 426T1 429L-16 431L-19 434V451L-16 454Q6 453 28 452T72 451Q104 451 134 452T197 454L200 451V434L197 431L171 429Q154 427 141 424T128 407Q128 401 133 385T146 348T164 304T183 260L261 79L289 143Q294 155 303 176T324 224T347 279T368 333T384 376T390 402Q390 416 381 421T348 429L326 431L323 434V451L326 454Q346 453 366 452T406 451Q429 451 451 452T497 454L500 451V434L497 431L482 429Q469 427 459 421T435 391T401 322T346 198L210 -120Q178 -195 142 -234T46 -273Q22 -273 9 -264L7 -261L23 -198ZM340 702Q350 712 359 718T379 725Q396 725 405 715T414 691Q414 680 409 673T390 657L228 556H194L340 702Z"  />
<glyph unicode="&#xFE;" horiz-adv-x="556" d="M155 77Q174 56 202 43T269 30Q312 30 344 46T398 91T429 155T440 233Q440 287 426 322T391 377T343 406T294 415Q274 415 258 410T228 398T204 382T186 367Q175 358 169 350T160 333T156 312T155 280V77ZM155 -86Q155 -157 156 -186T162 -226Q165 -235 174 -239T208 -245L232 -247L235 -250V-267L232 -270Q209 -269 183 -268T127 -267Q98 -267 71 -268T17 -270L14 -267V-250L17 -247L40 -245Q59 -243 68 -240T83 -232Q88 -226 89 -212T90 -169V598Q90 620 90 634T84 654Q80 659 75 661T59 664L17 666L14 669V686L17 689Q27 690 43 694T78 703T115 714T149 727L160 720Q158 702 157 650T155 494V372Q187 402 210 421T251 450T285 464T322 468Q358 468 392 455T451 416T492 350T508 260Q508 184 480 136T398 49Q356 19 321 4T239 -12Q211 -12 187 -4T155 9V-86Z"  />
<glyph unicode="&#xFF;" horiz-adv-x="481" d="M23 -198L32 -192Q40 -200 51 -206T81 -213Q100 -213 113 -206T137 -188T156 -161T173 -129Q190 -96 202 -65T222 -17Q216 5 203 40T174 114T141 194T108 269T82 328T68 360Q57 384 48 397T32 417T17 426T1 429L-16 431L-19 434V451L-16 454Q6 453 28 452T72 451Q104 451 134 452T197 454L200 451V434L197 431L171 429Q154 427 141 424T128 407Q128 401 133 385T146 348T164 304T183 260L261 79L289 143Q294 155 303 176T324 224T347 279T368 333T384 376T390 402Q390 416 381 421T348 429L326 431L323 434V451L326 454Q346 453 366 452T406 451Q429 451 451 452T497 454L500 451V434L497 431L482 429Q469 427 459 421T435 391T401 322T346 198L210 -120Q178 -195 142 -234T46 -273Q22 -273 9 -264L7 -261L23 -198ZM304 621Q304 639 317 653T350 667Q368 667 382 653T396 621Q396 603 382 589T350 575Q331 575 318 589T304 621ZM109 621Q109 638 122 652T154 667Q172 667 186 654T201 621Q201 602 187 589T154 575Q135 575 122 589T109 621Z"  />
<glyph unicode="&#x131;" horiz-adv-x="259" d="M97 339Q97 361 97 375T91 395Q87 400 82 402T66 405L20 407L17 410V427L20 430Q32 431 49 435T85 444T122 455T156 468L165 462Q163 448 163 416T162 339V98Q162 70 163 56T169 35Q174 30 183 27T212 22L239 20L242 17V0L239 -3Q210 -2 183 -1T130 0Q104 0 77 -1T20 -3L17 0V17L20 20L47 22Q66 24 75 27T90 35Q95 41 96 55T97 98V339Z"  />
<glyph unicode="&#x152;" horiz-adv-x="981" d="M45 335Q45 432 75 502T156 617T271 683T404 704Q426 704 450 702T499 697Q523 694 545 692T584 689Q668 689 754 690T930 692L933 689Q928 661 926 635T922 589T920 555T919 538L916 535H892L889 538Q889 550 889 558T888 576T886 599T882 635Q847 645 809 650T718 656Q689 656 658 656T603 653Q601 627 601 608T600 560V374Q617 372 641 372T692 371Q710 371 730 371T768 373T799 375T816 379Q820 382 822 385T827 397T830 419T834 457L837 460H858L861 457Q860 437 859 410T858 349Q858 310 859 281T861 242L858 239H837L834 242Q832 268 830 283T826 307T820 319T809 326Q802 329 788 330T759 333T728 334T701 335Q678 335 651 335T600 332V161Q600 132 600 99T602 33H739Q778 33 818 37T897 51Q903 72 906 86T912 113T917 136T921 163L924 166H946L949 163Q945 127 943 104T940 64T939 32T939 0L936 -3L806 -1Q768 0 720 0T594 0Q559 0 532 -2T481 -7Q458 -10 437 -12T391 -15Q324 -15 273 1T183 45T118 108T75 182T52 260T45 335ZM127 383Q127 314 144 248T195 131T283 49T409 18Q444 18 470 24T517 39Q519 50 520 71T523 121T524 183T525 250V643Q511 650 478 662T397 674Q345 674 296 657T210 603T150 512T127 383Z"  />
<glyph unicode="&#x153;" horiz-adv-x="815" d="M747 34Q725 20 686 4T597 -12Q558 -12 530 -1T481 26T448 59T428 88Q413 69 398 51T362 19T315 -3T251 -12Q190 -12 149 12T83 71T47 148T36 224Q36 273 51 317T94 395T164 448T259 468Q291 468 317 460T364 439T400 410T428 377Q493 468 610 468Q634 468 663 461T718 434T761 378T779 285Q779 275 779 268T777 253Q767 251 744 250T693 247T637 244T587 243H454Q454 198 465 160T497 93T549 49T622 33Q643 33 663 38T702 50T735 65T759 79L767 71L747 34ZM249 438Q211 438 185 424T143 384T119 324T111 250Q111 215 118 174T142 99T188 41T261 18Q302 18 328 36T368 82T388 144T394 211Q394 278 379 322T342 391T295 427T249 438ZM590 435Q548 435 523 419T483 378T462 325T454 272Q493 271 528 271T600 270Q606 270 621 270T652 272T683 274T702 275Q703 284 703 293T704 311Q704 346 693 369T664 407T626 428T590 435Z"  />
<glyph unicode="&#x160;" horiz-adv-x="556" d="M416 518L413 521L411 582Q376 671 269 671Q234 671 207 661T162 633T135 592T126 544Q126 510 139 488T178 449T238 419T316 393Q352 382 385 369T443 336T484 286T499 209Q499 170 482 130T431 58T343 5T217 -15Q165 -15 126 -4T60 18L57 22Q62 66 62 107T63 187L66 190H90L93 187Q93 180 94 169T96 146T99 121T103 101Q111 84 122 70T151 45T191 28T246 21Q280 21 312 31T369 61T409 112T424 182Q424 216 414 238T380 277T319 308T226 340Q198 349 169 360T116 390T77 438T61 513Q61 548 72 582T111 643T183 687T294 704Q351 704 390 694T457 668L460 664Q458 655 456 639T451 602T447 561T445 521L442 518H416ZM298 732H243L120 899H153L270 794L386 899H419L298 732Z"  />
<glyph unicode="&#x161;" horiz-adv-x="407" d="M75 75Q81 66 91 56T117 38T151 24T193 18Q210 18 229 23T266 39T294 70T306 119Q306 142 299 156T279 178T247 190T204 199Q177 203 147 210T93 231T52 267T36 323Q36 359 52 386T93 432T150 459T210 468Q242 468 280 462T344 441L347 438Q344 429 343 421T341 403T339 377T337 338L334 335H316L313 338L307 388Q307 391 300 399T280 416T248 431T202 438Q184 438 166 433T133 416T110 388T101 349Q101 314 123 297T190 270L257 257Q281 252 301 247T337 230T362 200T371 149Q371 119 359 91T322 39T256 2T161 -12Q125 -12 97 -6T43 10L40 13Q42 30 44 60T47 125L50 128H70L73 125L75 75ZM232 556H177L54 723H87L204 618L320 723H353L232 556Z"  />
<glyph unicode="&#x178;" horiz-adv-x="593" d="M273 289Q248 332 224 373T179 450T140 513T112 555Q89 587 73 606T44 635T17 650T-13 657L-16 660V677L-13 680L81 704Q89 700 94 697T107 688Q121 677 140 652T181 592T224 520T266 446T301 379T327 330L415 473Q430 498 448 529T485 592T518 649T542 692Q550 691 558 690T574 689Q582 689 590 690T606 692L609 689V677L606 674Q571 639 533 584T446 456Q408 399 389 366T358 311Q350 296 349 285T348 250V111Q348 74 349 61T355 43Q358 38 368 34T408 28L444 26L447 23V0L444 -3Q412 -2 379 -1T311 0Q276 0 243 -1T177 -3L174 0V23L177 26L213 28Q242 30 252 34T266 43Q270 48 271 61T273 111V289ZM366 797Q366 815 379 829T412 843Q430 843 444 829T458 797Q458 779 444 765T412 751Q393 751 380 765T366 797ZM171 797Q171 814 184 828T216 843Q234 843 248 830T263 797Q263 778 249 765T216 751Q197 751 184 765T171 797Z"  />
<glyph unicode="&#x17D;" horiz-adv-x="630" d="M7 20Q129 175 243 333T470 653H363Q353 653 329 653T274 653T212 651T157 647Q141 645 131 642T115 631T106 609T100 571L96 532L93 529H72L69 532Q69 538 69 549T70 574T71 598T71 613Q71 641 70 658T67 689L70 692Q118 691 181 690T324 689Q408 689 477 690T581 692L584 689V667Q564 644 539 611T485 538T423 454T358 365Q324 319 291 274T226 185T168 104T119 36H283Q312 36 344 36T406 38T461 41T502 47Q517 50 525 56T539 75T548 111T558 172L561 175H584L587 172Q585 151 584 133T581 94T579 52T578 0L575 -3Q491 -2 409 -1T243 0Q143 0 89 -1T10 -3L7 0V20ZM358 732H303L180 899H213L330 794L446 899H479L358 732Z"  />
<glyph unicode="&#x17E;" horiz-adv-x="463" d="M15 21Q25 33 53 68T123 156T216 276T322 421H291Q246 421 214 421T159 419T124 414T105 405Q85 385 79 325L76 322H55L52 325Q54 346 56 364T58 406Q58 419 58 429T57 449L64 454Q127 453 184 452T306 451Q335 451 363 452T414 454L417 451V429Q404 414 382 386T331 322T272 246T212 166T156 91T110 30Q144 31 177 31T241 32T296 34T337 38Q350 40 360 44T379 58T392 86T403 134L406 137H425L428 134Q426 122 424 111T421 85T418 50T416 0L413 -3Q338 -2 265 -1T116 0Q92 0 68 0T26 -3L22 0L15 21ZM250 556H195L72 723H105L222 618L338 723H371L250 556Z"  />
<glyph unicode="&#x192;" horiz-adv-x="500" d="M186 361H146Q140 361 132 361T116 360T102 359T92 358L89 360V397L92 400Q95 400 102 400T119 399T136 398T150 397H190Q193 428 196 456T206 509T225 558T256 606Q288 646 321 667T390 689Q407 689 422 686T449 676Q442 656 439 643T432 610L424 606Q414 617 397 626T359 635Q324 635 299 606T267 502L257 397H303Q312 397 324 397T347 398T367 399T380 400L383 397V361L380 358Q375 358 366 358T346 359T324 360T304 361H253L218 22Q208 -72 179 -129T116 -219T51 -262T7 -273Q-5 -273 -15 -268Q-9 -255 -5 -237T1 -205L5 -201Q10 -204 19 -207T42 -210Q73 -210 92 -199T122 -163T140 -96T153 6L186 361Z"  />
<glyph unicode="&#x2C6;" horiz-adv-x="259" d="M101 723H156L279 556H246L129 661L13 556H-20L101 723Z"  />
<glyph unicode="&#x2C7;" horiz-adv-x="259" d="M158 556H103L-20 723H13L130 618L246 723H279L158 556Z"  />
<glyph unicode="&#x2DA;" horiz-adv-x="259" d="M33 630Q33 649 40 666T61 697T92 719T130 727Q149 727 167 719T198 698T219 667T227 630Q227 610 219 593T198 562T167 541T130 533Q110 533 93 541T62 562T41 593T33 630ZM63 630Q63 603 82 583T130 563Q158 563 177 582T197 630Q197 658 178 677T130 697Q101 697 82 677T63 630Z"  />
<glyph unicode="&#x2DC;" horiz-adv-x="259" d="M290 685Q288 673 283 656T267 622T239 595T196 583Q179 583 163 588T115 607Q89 618 74 623T45 628Q22 628 12 614T-5 580H-31Q-29 592 -24 609T-9 643T19 670T63 682Q80 682 96 677T144 658Q170 647 185 642T214 637Q237 637 247 651T264 685H290Z"  />
<glyph unicode="&#x2013;" horiz-adv-x="500" d="M0 271H500V223H0V271Z"  />
<glyph unicode="&#x2014;" horiz-adv-x="1000" d="M0 271H1000V223H0V271Z"  />
<glyph unicode="&#x2018;" horiz-adv-x="259" d="M214 696Q190 659 173 623T145 554T128 497T121 456Q106 454 95 452T74 447T54 441T32 434L25 442Q38 471 55 505T92 573T131 635T167 684L206 704L214 696Z"  />
<glyph unicode="&#x2019;" horiz-adv-x="259" d="M25 442Q49 479 66 515T94 584T111 641T118 682Q133 684 144 686T165 691T185 697T207 704L214 696Q201 667 183 633T146 565T107 503T72 454L33 434L25 442Z"  />
<glyph unicode="&#x201A;" horiz-adv-x="259" d="M25 -141Q49 -104 66 -68T94 1T111 58T118 99Q133 101 144 103T165 108T185 114T207 121L214 113Q201 84 183 50T146 -18T107 -80T72 -129L33 -149L25 -141Z"  />
<glyph unicode="&#x201C;" horiz-adv-x="481" d="M236 696Q212 659 195 623T167 554T150 497T143 456Q128 454 117 452T96 447T76 441T54 434L47 442Q60 471 77 505T114 573T153 635T189 684L228 704L236 696ZM414 696Q390 659 373 623T345 554T328 497T321 456Q306 454 295 452T274 447T254 441T232 434L225 442Q238 471 255 505T292 573T331 635T367 684L406 704L414 696Z"  />
<glyph unicode="&#x201D;" horiz-adv-x="481" d="M225 442Q249 479 266 515T294 584T311 641T318 682Q333 684 344 686T365 691T385 697T407 704L414 696Q401 667 383 633T346 565T307 503T272 454L233 434L225 442ZM47 442Q71 479 88 515T116 584T133 641T140 682Q155 684 166 686T187 691T207 697T229 704L236 696Q223 667 205 633T168 565T129 503T94 454L55 434L47 442Z"  />
<glyph unicode="&#x201E;" horiz-adv-x="481" d="M225 -141Q249 -104 266 -68T294 1T311 58T318 99Q333 101 344 103T365 108T385 114T407 121L414 113Q401 84 383 50T346 -18T307 -80T272 -129L233 -149L225 -141ZM47 -141Q71 -104 88 -68T116 1T133 58T140 99Q155 101 166 103T187 108T207 114T229 121L236 113Q223 84 205 50T168 -18T129 -80T94 -129L55 -149L47 -141Z"  />
<glyph unicode="&#x2020;" horiz-adv-x="500" d="M223 501Q223 548 220 593T211 686L217 692Q225 691 233 690T250 689Q258 689 266 690T283 692L289 686Q284 639 281 594T277 501V468H345Q380 468 404 471T448 478L456 472Q455 465 454 458T453 444Q453 437 454 431T456 416L448 410Q428 414 404 417T345 420H277L280 159Q280 133 283 91T294 3L288 -3Q283 -2 272 -1T250 0Q239 0 229 -1T212 -3L206 3Q214 48 217 90T220 159L223 420H155Q120 420 96 417T52 410L44 416Q45 424 46 430T47 444Q47 451 46 458T44 472L52 478Q72 474 96 471T155 468H223V501Z"  />
<glyph unicode="&#x2021;" horiz-adv-x="500" d="M223 501Q223 548 220 593T211 686L217 692Q225 691 233 690T250 689Q258 689 266 690T283 692L289 686Q284 639 281 594T277 501V468H345Q380 468 404 471T448 478L456 472Q455 465 454 458T453 444Q453 437 454 431T456 416L448 410Q428 414 404 417T345 420H277V362Q277 327 281 293T289 222Q285 186 281 152T277 82V20H345Q380 20 404 23T448 30L456 24Q455 17 454 10T453 -4Q453 -11 454 -17T456 -32L448 -38Q428 -34 404 -31T345 -28H277V-57Q277 -104 280 -149T289 -242L283 -248Q275 -247 267 -246T250 -245Q242 -245 234 -246T217 -248L211 -242Q216 -195 219 -150T223 -57V-28H155Q120 -28 96 -31T52 -38L44 -32Q45 -24 46 -18T47 -4Q47 3 46 10T44 24L52 30Q72 26 96 23T155 20H223V82Q223 117 219 151T211 222Q215 258 219 292T223 362V420H155Q120 420 96 417T52 410L44 416Q45 424 46 430T47 444Q47 451 46 458T44 472L52 478Q72 474 96 471T155 468H223V501Z"  />
<glyph unicode="&#x2022;" horiz-adv-x="500" d="M78 344Q78 380 91 411T128 465T183 502T250 516Q286 516 317 503T371 466T408 411T422 344Q422 308 409 277T372 223T317 186T250 172Q214 172 183 185T129 222T92 277T78 344Z"  />
<glyph unicode="&#x2026;" horiz-adv-x="1000" d="M115 44Q115 64 130 80T167 97Q189 97 204 81T219 44Q219 22 203 8T167 -7Q147 -7 131 7T115 44ZM448 44Q448 64 463 80T500 97Q522 97 537 81T552 44Q552 22 536 8T500 -7Q480 -7 464 7T448 44ZM781 44Q781 64 796 80T833 97Q855 97 870 81T885 44Q885 22 869 8T833 -7Q813 -7 797 7T781 44Z"  />
<glyph unicode="&#x2030;" horiz-adv-x="1167" d="M830 154Q830 189 838 222T864 280T911 321T982 337Q1058 337 1088 294T1119 171Q1119 118 1106 83T1072 26T1024 -5T969 -15Q930 -15 904 -2T861 34T837 88T830 154ZM890 178Q890 143 894 113T909 62T938 28T982 15Q1025 15 1042 50T1059 150Q1059 231 1037 269T966 307Q925 307 908 273T890 178ZM48 500Q48 535 56 568T82 626T129 667T200 683Q276 683 306 640T337 517Q337 464 324 429T290 372T242 341T187 331Q148 331 122 344T79 380T55 434T48 500ZM108 524Q108 489 112 459T127 408T156 374T200 361Q243 361 260 396T277 496Q277 577 255 615T184 653Q143 653 126 619T108 524ZM452 154Q452 189 460 222T486 280T533 321T604 337Q680 337 710 294T741 171Q741 118 728 83T694 26T646 -5T591 -15Q552 -15 526 -2T483 34T459 88T452 154ZM512 178Q512 143 516 113T531 62T560 28T604 15Q647 15 664 50T681 150Q681 231 659 269T588 307Q547 307 530 273T512 178ZM554 712L558 715H595L598 712L229 -44L225 -47H188L185 -44L554 712Z"  />
<glyph unicode="&#x2039;" horiz-adv-x="296" d="M46 235Q93 274 135 317T219 404H222L240 393V389Q228 374 217 359T192 325T163 283T124 227Q148 188 176 150T240 65V62L222 50H219Q202 68 181 90T137 135T91 180T46 219V235Z"  />
<glyph unicode="&#x203A;" horiz-adv-x="296" d="M250 219Q203 180 161 137T77 50H74L56 61V65Q68 80 79 95T104 129T133 171T172 227Q148 266 120 304T56 389V392L74 404H77Q93 386 114 364T159 319T205 274T250 235V219Z"  />
<glyph unicode="&#x20AC;" horiz-adv-x="500" d="M463 73L452 26Q423 6 389 -4T320 -15Q258 -15 214 8T139 69T91 158T68 263Q51 263 36 263T3 261L0 264L8 291L11 294Q25 293 38 293T66 292Q65 301 65 309T65 327Q65 341 65 354T67 382Q51 382 35 382T3 380L0 383L8 410L11 413Q26 412 40 412T70 411Q77 463 93 512T139 601T212 663T315 687Q353 687 388 676T460 657L463 654Q455 622 452 589T446 523L443 520H423L419 522Q419 542 419 561T417 601Q400 625 373 638T316 652Q267 652 235 630T183 572T154 494T141 411H261Q292 411 322 411T383 413L386 410L378 383L375 380Q344 382 313 382T251 382H140Q140 374 140 366T139 349Q139 335 139 321T141 292H233Q262 292 291 292T349 294L352 291L344 264L341 261Q312 262 283 262T225 263H144Q148 222 159 180T192 104T246 48T330 26Q365 26 396 41T452 82L463 73Z"  />
<glyph unicode="&#x2122;" horiz-adv-x="990" d="M162 674H109Q77 674 63 654T43 604H22V692H356V604H335Q330 633 316 653T269 674H216V344Q216 323 225 317T267 306V288H111V306Q144 310 153 316T162 344V674ZM495 600H493V360Q493 337 503 323T546 306V288H417V306Q450 309 459 323T469 360V625Q469 628 465 635T453 651T432 667T402 674V692H511L672 370L838 692H932V674Q903 672 889 659T874 617V341Q874 331 875 325T882 316T897 310T924 306V288H769V306Q786 308 796 310T811 315T818 325T820 341V603H818L660 288H651L495 600Z"  />
<glyph unicode="&#xE000;" horiz-adv-x="259" d="M6 833Q-8 841 -13 848T-18 867Q-18 880 -9 890T17 901Q28 901 37 895T56 878L202 732H168L6 833Z"  />
<glyph unicode="&#xE002;" horiz-adv-x="259" d="M203 878Q213 888 222 894T242 901Q259 901 268 891T277 867Q277 856 272 849T253 833L91 732H57L203 878Z"  />
<glyph unicode="&#xE004;" horiz-adv-x="259" d="M101 899H156L279 732H246L129 837L13 732H-20L101 899Z"  />
<glyph unicode="&#xE006;" horiz-adv-x="259" d="M158 732H103L-20 899H13L130 794L246 899H279L158 732Z"  />
<glyph unicode="&#xE009;" horiz-adv-x="259" d="M290 861Q288 849 283 832T267 798T239 771T196 759Q179 759 163 764T115 783Q89 794 74 799T45 804Q22 804 12 790T-5 756H-31Q-29 768 -24 785T-9 819T19 846T63 858Q80 858 96 853T144 834Q170 823 185 818T214 813Q237 813 247 827T264 861H290Z"  />
<glyph unicode="&#xE00B;" horiz-adv-x="259" d="M183 796Q183 814 196 828T229 842Q247 842 261 828T275 796Q275 778 261 764T229 750Q210 750 197 764T183 796ZM-12 796Q-12 813 1 827T33 842Q51 842 65 829T80 796Q80 777 66 764T33 750Q14 750 1 764T-12 796Z"  />
<glyph unicode="&#xE011;" horiz-adv-x="259" d="M33 821Q33 840 40 857T61 888T92 910T130 918Q149 918 167 910T198 889T219 858T227 821Q227 801 219 784T198 753T167 732T130 724Q110 724 93 732T62 753T41 784T33 821ZM63 821Q63 794 82 774T130 754Q158 754 177 773T197 821Q197 849 178 868T130 888Q101 888 82 868T63 821Z"  />

</font>
</defs>
</svg>
