<?xml version="1.0" encoding="UTF-8" standalone="no"?>
<svg width="268px" height="46px" viewBox="0 0 268 46" version="1.1" xmlns="http://www.w3.org/2000/svg" xmlns:xlink="http://www.w3.org/1999/xlink" xmlns:sketch="http://www.bohemiancoding.com/sketch/ns">
    <!-- Generator: Sketch 3.4 (15575) - http://www.bohemiancoding.com/sketch -->
    <title>Untitled</title>
    <desc>Created with Sketch.</desc>
    <defs></defs>
    <g id="Page-1" stroke="none" stroke-width="1" fill="none" fill-rule="evenodd" sketch:type="MSPage">
        <g id="Smarkets_Logo_OnWhite_RGB" sketch:type="MSLayerGroup" transform="translate(1.000000, 0.000000)">
            <path d="M103.103,45.57 C103.278,45.881 103.372,45.994 103.731,46 L105.264,46 C105.671,45.99 105.738,45.896 105.509,45.447 C105.378,45.175 89.734,12.974 88.306,10.036 C88.193,9.887 88.072,9.824 87.799,9.824 L86.353,9.824 C85.956,9.824 85.837,9.884 85.954,10.187 L103.103,45.57" id="Fill-1" fill="#00B073" sketch:type="MSShapeGroup"></path>
            <path d="M37.068,10.135 C36.791,10.135 36.514,10.374 36.514,10.65 L34.93,36.836 C34.93,37.232 34.93,37.352 35.205,37.352 L36.87,37.352 C37.146,37.352 37.186,37.312 37.227,36.797 L38.373,15.8 L48.237,30.182 C48.359,30.359 48.411,30.382 48.513,30.382 C48.547,30.382 48.586,30.379 48.636,30.379 C48.674,30.379 48.706,30.382 48.734,30.382 C48.82,30.382 48.872,30.359 48.989,30.182 L58.857,15.603 L60.042,36.996 C60.042,37.273 60.124,37.352 60.282,37.352 L61.946,37.352 C62.301,37.352 62.341,37.273 62.341,36.996 L60.837,10.65 C60.837,10.414 60.639,10.177 60.359,10.177 C60.164,10.177 59.966,10.295 59.807,10.533 L48.794,27.051 L37.662,10.533 C37.503,10.295 37.345,10.135 37.068,10.135" id="Fill-2" fill="#0E1A18" sketch:type="MSShapeGroup"></path>
            <path d="M10.357,9.938 C4.218,9.938 0.894,12.909 0.894,17.266 C0.894,21.665 4.258,23.487 9.29,24.636 C9.643,24.715 10.438,24.871 10.795,24.953 C15.391,25.942 18.16,27.209 18.16,30.814 C18.16,34.184 15.549,36.084 10.478,36.084 C6.395,36.084 3.31,34.223 2.198,31.094 C2.144,30.93 2.127,30.822 2.005,30.822 C1.951,30.822 1.875,30.844 1.762,30.894 L0.297,31.409 C-0.023,31.529 -0.098,31.529 0.138,32.123 C1.604,35.848 5.445,38.024 10.636,38.024 C16.657,38.024 20.303,35.529 20.303,30.34 C20.303,25.744 16.381,23.923 11.469,22.894 C11.072,22.812 10.317,22.654 9.962,22.576 C5.842,21.705 3.029,20.277 3.029,16.989 C3.029,14.057 5.168,11.879 10.279,11.879 C14.437,11.879 16.856,13.899 17.965,16.951 C18.015,17.075 18.065,17.153 18.166,17.153 C18.225,17.153 18.3,17.127 18.402,17.068 L19.589,16.553 C19.946,16.395 19.946,16.276 19.825,15.919 C18.678,12.71 15.707,9.938 10.357,9.938" id="Fill-4" fill="#0E1A18" sketch:type="MSShapeGroup"></path>
            <path d="M116.625,24.912 L116.625,12.473 L124.868,12.473 C128.667,12.473 131.756,14.97 131.756,18.891 C131.756,22.378 129.26,24.912 124.665,24.912 L116.625,24.912 L116.625,24.912 Z M114.636,10.492 C114.543,10.492 114.407,10.52 114.407,10.849 L114.407,36.996 C114.407,37.273 114.446,37.352 114.686,37.352 L116.346,37.352 C116.586,37.352 116.625,37.312 116.625,36.996 L116.625,26.854 L125.736,26.854 L133.024,37.035 C133.181,37.273 133.343,37.352 133.58,37.352 L135.166,37.352 C135.483,37.352 135.6,37.312 135.6,37.114 C135.6,36.916 135.56,36.877 135.402,36.639 C132.628,32.756 128.033,26.458 128.033,26.458 C131.48,25.348 133.855,22.734 133.855,18.852 C133.855,14.335 130.45,10.493 124.984,10.493 L114.686,10.493 C114.672,10.493 114.656,10.492 114.636,10.492 L114.636,10.492 Z" id="Fill-6" fill="#0E1A18" sketch:type="MSShapeGroup"></path>
            <path d="M256.411,9.939 C250.271,9.939 246.946,12.911 246.946,17.267 C246.946,21.665 250.311,23.488 255.34,24.636 C255.698,24.715 256.492,24.873 256.848,24.953 C261.444,25.942 264.213,27.209 264.213,30.816 C264.213,34.184 261.602,36.084 256.532,36.084 C252.449,36.084 249.357,34.223 248.249,31.094 C248.197,30.93 248.18,30.823 248.059,30.823 C248.004,30.822 247.927,30.846 247.815,30.895 L246.349,31.409 C246.03,31.529 245.956,31.529 246.191,32.123 C247.656,35.848 251.498,38.025 256.69,38.025 C262.709,38.025 266.354,35.53 266.354,30.341 C266.354,25.744 262.432,23.924 257.521,22.894 C257.124,22.812 256.371,22.654 256.016,22.577 C251.896,21.705 249.082,20.277 249.082,16.989 C249.082,14.057 251.22,11.88 256.333,11.88 C260.493,11.88 262.91,13.901 264.016,16.951 C264.068,17.076 264.118,17.154 264.218,17.154 C264.277,17.154 264.352,17.127 264.455,17.068 L265.641,16.554 C265.999,16.396 265.999,16.276 265.881,15.919 C264.732,12.712 261.76,9.939 256.411,9.939" id="Fill-7" fill="#0E1A18" sketch:type="MSShapeGroup"></path>
            <path d="M237.205,10.493 L217.199,10.493 C216.923,10.493 216.882,10.533 216.882,10.89 L216.882,12.196 C216.882,12.436 216.923,12.473 217.159,12.473 L226.075,12.473 L226.075,36.916 C226.075,37.352 226.111,37.352 226.471,37.352 L228.014,37.352 C228.293,37.352 228.293,37.312 228.293,36.996 L228.293,12.473 L237.166,12.473 C237.524,12.473 237.524,12.436 237.524,12.196 L237.524,10.89 C237.524,10.533 237.524,10.493 237.205,10.493" id="Fill-8" fill="#0E1A18" sketch:type="MSShapeGroup"></path>
            <path d="M205.218,10.493 L187.866,10.493 C187.629,10.493 187.669,10.533 187.669,10.89 L187.669,36.797 C187.669,37.273 187.709,37.352 188.027,37.352 L205.336,37.352 C205.735,37.352 205.775,37.352 205.775,36.877 L205.775,35.887 C205.775,35.372 205.775,35.372 205.336,35.372 L189.89,35.372 L189.89,24.675 L205.06,24.675 C205.258,24.675 205.3,24.596 205.3,24.042 L205.3,23.249 C205.3,22.774 205.258,22.694 205.06,22.694 L189.89,22.694 L189.89,12.473 L205.218,12.473 C205.496,12.473 205.577,12.394 205.577,11.918 L205.577,10.928 C205.577,10.533 205.536,10.493 205.218,10.493" id="Fill-9" fill="#0E1A18" sketch:type="MSShapeGroup"></path>
            <path d="M82.407,28.994 C82.407,28.994 84.337,24.992 87.658,18.099 L86.534,15.779 C81.483,26.1 77.241,34.848 76.305,36.797 C76.064,37.273 76.147,37.352 76.619,37.352 L78.007,37.352 C78.406,37.352 78.482,37.234 78.68,36.877 L81.532,30.895 L93.859,30.895 L92.938,28.994 L82.407,28.994" id="Fill-10" fill="#0E1A18" sketch:type="MSShapeGroup"></path>
            <path d="M152.982,30.338 L152.982,10.689 C152.982,10.413 152.945,10.293 152.629,10.293 L151.123,10.293 C150.843,10.293 150.766,10.373 150.766,10.649 L150.766,33.516 L152.982,30.338" id="Fill-11" fill="#0E1A18" sketch:type="MSShapeGroup"></path>
            <path d="M165.044,23.582 L163.641,25.591 L171.939,36.678 C172.056,36.836 172.455,37.151 172.649,37.151 L174.471,37.151 C174.95,37.151 174.869,36.875 174.748,36.716 L165.044,23.582" id="Fill-12" fill="#0E1A18" sketch:type="MSShapeGroup"></path>
            <path d="M177.878,0.806 L176.257,0.806 C176.022,0.806 175.861,0.885 175.704,1.121 L150.915,36.653 C150.868,36.734 150.849,36.799 150.849,36.918 C150.849,37.098 150.954,37.145 151.208,37.151 L152.926,37.151 C153.142,37.145 153.298,37.063 153.448,36.838 L178.206,1.39 L178.201,1.39 C178.287,1.259 178.313,1.198 178.313,1.043 C178.313,0.844 178.196,0.806 177.878,0.806" id="Fill-13" fill="#00B073" sketch:type="MSShapeGroup"></path>
        </g>
    </g>
</svg>